<svg xmlns="http://www.w3.org/2000/svg" viewBox="0 0 767 257.76"><defs><style>.cls-1,.cls-3{fill:#005a96;}.cls-2,.cls-4{fill:#fff;}.cls-2{stroke:#005a96;stroke-miterlimit:10;stroke-width:0.82px;}.cls-3{fill-rule:evenodd;}.cls-5{fill:#0aa;}</style></defs><title>Portalkran_Vollwand_links</title><g id="Basis"><rect class="cls-1" x="179.74" y="4.68" width="407.08" height="4.03"/><path class="cls-1" d="M586.82,173.9V11.49H179.74V42.57H578.18V174.1L575,178.28v5.83h5.74a2,2,0,0,0,4,0H590v-5.83Z"/><rect class="cls-2" x="348.74" y="16.28" width="59.93" height="16.05"/><polygon class="cls-3" points="355.81 24.86 357.11 24.86 357.11 23.53 352.94 23.53 352.94 24.86 354.24 24.86 354.24 29.57 355.81 29.57 355.81 24.86"/><polygon class="cls-3" points="361.15 24.86 361.15 23.53 357.71 23.53 357.71 29.57 361.15 29.57 361.15 28.24 359.29 28.24 359.29 27.2 361.06 27.2 361.06 25.87 359.29 25.87 359.29 24.86 361.15 24.86"/><rect class="cls-1" x="362.16" y="23.53" width="1.57" height="6.04"/><path class="cls-3" d="M369.09,23.67a3.7,3.7,0,0,0-1.43-.3,3.27,3.27,0,0,0-2.3,1,3.13,3.13,0,0,0-.89,2.21,2.93,2.93,0,0,0,1,2.28,3.36,3.36,0,0,0,2.27.89,4.41,4.41,0,0,0,1.38-.28V27.57a1.81,1.81,0,0,1-1.35.64,1.57,1.57,0,0,1-1.64-1.65,1.59,1.59,0,0,1,1.62-1.67,1.68,1.68,0,0,1,1.37.67Z"/><polygon class="cls-3" points="371.68 25.86 371.68 23.53 370.1 23.53 370.1 29.57 371.68 29.57 371.68 27.09 373.94 27.09 373.94 29.57 375.51 29.57 375.51 23.53 373.94 23.53 373.94 25.86 371.68 25.86"/><polygon class="cls-3" points="376.61 29.57 378.35 29.57 378.3 26.31 379.74 29.57 381.17 26.3 381.14 29.57 382.87 29.57 382.87 23.52 380.92 23.52 379.76 26.38 378.56 23.52 376.61 23.52 376.61 29.57"/><polygon class="cls-3" points="390.31 29.57 391.88 29.57 391.88 25.87 394.77 29.57 396.34 29.57 396.34 23.53 394.77 23.53 394.77 27.22 391.88 23.53 390.31 23.53 390.31 29.57"/><polygon class="cls-3" points="397.09 29.57 398.66 29.57 398.66 25.87 401.55 29.57 403.12 29.57 403.12 23.53 401.55 23.53 401.55 27.22 398.66 23.53 397.09 23.53 397.09 29.57"/><polygon class="cls-3" points="388.08 29.57 389.75 29.57 387.48 23.53 385.76 23.53 383.44 29.57 385.1 29.57 386.6 25.39 388.08 29.57"/><polygon class="cls-3" points="386.59 18.87 386.59 22.28 387.49 22.28 387.49 21.27 387.82 20.88 388.75 22.28 389.76 22.28 388.4 20.34 389.62 18.87 388.64 18.87 387.5 20.24 387.49 20.24 387.49 18.87 386.59 18.87"/><path class="cls-3" d="M390.56,22.28h.86V20.74c0-.35.34-.46.64-.46h.27v-.63h-.16a.89.89,0,0,0-.77.41h0v-.35h-.82Z"/><path class="cls-3" d="M394,20.5v-.07c0-.2.13-.34.4-.34s.4.12.4.32-.09.25-.34.3l-.49.1c-.6.12-.85.32-.85.8a.72.72,0,0,0,.81.74.93.93,0,0,0,.86-.34h0a.7.7,0,0,0,.11.27h.82a.91.91,0,0,1-.1-.5V20.44c0-.47-.2-.79-1.22-.79-.66,0-1.19.2-1.19.79v.06Zm.8,1c0,.28-.3.4-.53.4a.32.32,0,0,1-.33-.36c0-.23.14-.36.49-.41a1.49,1.49,0,0,0,.37-.13Z"/><path class="cls-3" d="M396.91,22.28h.86v-1.7c0-.29.17-.43.46-.43s.37.1.37.36v1.77h.87v-1.9c0-.51-.32-.73-.86-.73a1,1,0,0,0-.86.36h0v-.3h-.83Z"/><path class="cls-3" d="M403.12,21.1V21c0-.79-.23-1.3-1.23-1.3-1.17,0-1.34.64-1.34,1.32s.05,1.38,1.3,1.38c.81,0,1.19-.34,1.22-.93h-.78c-.05.31-.17.48-.45.48s-.43-.3-.43-.6v-.2Zm-1.71-.39v-.1c0-.24.1-.52.44-.52s.42.23.44.62Z"/><g id="Schild_Teichmann_Krane_6" data-name="Schild Teichmann Krane 6"><rect class="cls-4" x="348.74" y="16.28" width="59.93" height="16.04"/><polygon class="cls-3" points="355.81 24.86 357.11 24.86 357.11 23.53 352.94 23.53 352.94 24.86 354.24 24.86 354.24 29.57 355.81 29.57 355.81 24.86"/><polygon class="cls-3" points="361.15 24.86 361.15 23.53 357.71 23.53 357.71 29.57 361.15 29.57 361.15 28.24 359.29 28.24 359.29 27.2 361.06 27.2 361.06 25.87 359.29 25.87 359.29 24.86 361.15 24.86"/><rect class="cls-1" x="362.16" y="23.53" width="1.57" height="6.04"/><path class="cls-3" d="M369.09,23.67a3.7,3.7,0,0,0-1.43-.3,3.27,3.27,0,0,0-2.3,1,3.13,3.13,0,0,0-.89,2.21,2.93,2.93,0,0,0,1,2.28,3.36,3.36,0,0,0,2.27.89,4.41,4.41,0,0,0,1.38-.28V27.57a1.81,1.81,0,0,1-1.35.64,1.57,1.57,0,0,1-1.64-1.65,1.59,1.59,0,0,1,1.62-1.67,1.68,1.68,0,0,1,1.37.67Z"/><polygon class="cls-3" points="371.68 25.86 371.68 23.53 370.1 23.53 370.1 29.57 371.68 29.57 371.68 27.09 373.94 27.09 373.94 29.57 375.51 29.57 375.51 23.53 373.94 23.53 373.94 25.86 371.68 25.86"/><polygon class="cls-3" points="376.61 29.57 378.35 29.57 378.3 26.31 379.74 29.57 381.17 26.3 381.14 29.57 382.87 29.57 382.87 23.52 380.92 23.52 379.76 26.38 378.56 23.52 376.61 23.52 376.61 29.57"/><polygon class="cls-3" points="390.31 29.57 391.88 29.57 391.88 25.87 394.77 29.57 396.34 29.57 396.34 23.53 394.77 23.53 394.77 27.22 391.88 23.53 390.31 23.53 390.31 29.57"/><polygon class="cls-3" points="397.09 29.57 398.66 29.57 398.66 25.87 401.55 29.57 403.12 29.57 403.12 23.53 401.55 23.53 401.55 27.22 398.66 23.53 397.09 23.53 397.09 29.57"/><polygon class="cls-3" points="388.08 29.57 389.75 29.57 387.48 23.53 385.76 23.53 383.44 29.57 385.1 29.57 386.6 25.39 388.08 29.57"/><polygon class="cls-3" points="386.59 18.87 386.59 22.28 387.49 22.28 387.49 21.27 387.82 20.88 388.75 22.28 389.76 22.28 388.4 20.34 389.62 18.87 388.64 18.87 387.5 20.24 387.49 20.24 387.49 18.87 386.59 18.87"/><path class="cls-3" d="M390.56,22.28h.86V20.74c0-.35.34-.46.64-.46h.27v-.63h-.16a.89.89,0,0,0-.77.41h0v-.35h-.82Z"/><path class="cls-3" d="M394,20.5v-.07c0-.2.13-.34.4-.34s.4.12.4.32-.09.25-.34.3l-.49.1c-.6.12-.85.32-.85.8a.72.72,0,0,0,.81.74.93.93,0,0,0,.86-.34h0a.7.7,0,0,0,.11.27h.82a.91.91,0,0,1-.1-.5V20.44c0-.47-.2-.79-1.22-.79-.66,0-1.19.2-1.19.79v.06Zm.8,1c0,.28-.3.4-.53.4a.32.32,0,0,1-.33-.36c0-.23.14-.36.49-.41a1.49,1.49,0,0,0,.37-.13Z"/><path class="cls-3" d="M396.91,22.28h.86v-1.7c0-.29.17-.43.46-.43s.37.1.37.36v1.77h.87v-1.9c0-.51-.32-.73-.86-.73a1,1,0,0,0-.86.36h0v-.3h-.83Z"/><path class="cls-3" d="M403.12,21.1V21c0-.79-.23-1.3-1.23-1.3-1.17,0-1.34.64-1.34,1.32s.05,1.38,1.3,1.38c.81,0,1.19-.34,1.22-.93h-.78c-.05.31-.17.48-.45.48s-.43-.3-.43-.6v-.2Zm-1.71-.39v-.1c0-.24.1-.52.44-.52s.42.23.44.62Z"/></g></g><g id="Hubhöhe"><rect class="cls-5" x="388.32" y="86.92" width="1.24" height="93.14"/><polygon class="cls-5" points="382.42 92.35 395.46 92.35 388.93 81.49 382.42 92.35"/><polygon class="cls-5" points="382.42 174.59 395.46 174.59 388.93 185.45 382.42 174.59"/><rect class="cls-5" x="388.2" y="196.59" width="1.24" height="51.54"/><polygon class="cls-5" points="382.3 200.7 395.34 200.7 388.82 189.84 382.3 200.7"/><polygon class="cls-5" points="382.3 242.71 395.34 242.71 388.82 253.57 382.3 242.71"/></g><g id="Spurweite"><rect class="cls-5" x="259.94" y="187.13" width="306.61" height="1.24"/><polygon class="cls-5" points="262.4 181.23 262.4 194.27 251.54 187.74 262.4 181.23"/><polygon class="cls-5" points="563.42 181.23 563.42 194.27 574.28 187.74 563.42 181.23"/></g><g id="Ausladung"><path class="cls-5" d="M251.12,178.28l-2.57-3.81-.08-131.9h-8.64l.08,114.25L198.24,42.57H192.6l47.31,129.76v2.19l-2.62,3.76v5.83h4.93a2,2,0,0,0,4,0h4.92Z"/><path class="cls-5" d="M5.4,31.2V42.57h29v3.29l2.11,1.31h0v3.49H47.65l.79,9.86a5.35,5.35,0,0,0,2,9.32v.93h-.11c0,.59,0,1.21,0,1.78h.82v0c0,.27-.23.35-.21.64a1.55,1.55,0,0,0,.35.38,4.21,4.21,0,0,1,.54.9,3.87,3.87,0,0,0,.27.43,2.53,2.53,0,0,0,.13.22l.71,1a.89.89,0,0,1,.2.63,1.77,1.77,0,0,1-.1.51,1.2,1.2,0,0,1-1,.75,1.26,1.26,0,0,1-1-.37.24.24,0,0,0-.09-.08,2.8,2.8,0,0,1-.15-.3c0-.16,0-.31-.09-.49l-.12-.37c0-.12-.1-.24-.14-.35a1.8,1.8,0,0,0-.38-.73l-.11-.08a.51.51,0,0,0-.6.2,4,4,0,0,0,0,.93c0,.07,0,.13,0,.19l-.06.59v.45a3.14,3.14,0,0,0,.57,1.54,3.42,3.42,0,0,0,.75.72,3,3,0,0,0,1.58.54h.38a3.78,3.78,0,0,0,2.35-1,3.91,3.91,0,0,0,.94-1.59,5,5,0,0,0,.12-.71V76.7h0a3.75,3.75,0,0,0-.38-1.54,1.6,1.6,0,0,1-.18-.29s-.08-.06,0-.09-.08-.09-.12-.14a4.24,4.24,0,0,0-.46-.49c-.22-.2-.44-.41-.67-.59s-.46-.38-.68-.6a3.14,3.14,0,0,1-.34-.4h.56c0-.57,0-1.18,0-1.76,0,0,0,0,0,0h-.12v-1a5.34,5.34,0,0,0,1.44-9.53l.78-9.61H67.13V46.89H65.7v-1h3.13l.47-.72V42.57H178.9V11.49H25.48ZM54.13,59.88a5.19,5.19,0,0,0-2.33-.55,5.3,5.3,0,0,0-2.68.73l-.76-9.4h6.52Z"/><polygon class="cls-5" points="32.87 4.68 28.76 8.71 178.9 8.71 178.9 4.68 32.87 4.68"/><path class="cls-5" d="M761.12,31.18,741,11.47H587.62V42.55h110.8v3.31l2.1,1.31h0v3.49h11.18l.79,9.86a5.35,5.35,0,0,0,2,9.32c0,.32,0,.65,0,.93h-.11c0,.59,0,1.21,0,1.78h.81a0,0,0,0,1,0,0c0,.27-.23.35-.21.64a1.72,1.72,0,0,0,.34.38,4.24,4.24,0,0,1,.55.9,3.87,3.87,0,0,0,.27.43,2.53,2.53,0,0,0,.13.22l.71,1a.89.89,0,0,1,.2.63,1.77,1.77,0,0,1-.1.51,1.2,1.2,0,0,1-1,.75,1.26,1.26,0,0,1-1-.37l-.09-.08a2.8,2.8,0,0,1-.15-.3c0-.16,0-.31-.09-.49l-.12-.37c0-.12-.1-.24-.14-.35a1.8,1.8,0,0,0-.38-.73l-.11-.08a.51.51,0,0,0-.6.2c-.11.27,0,.58,0,.93,0,.07,0,.13,0,.19l-.06.59v.45a3.14,3.14,0,0,0,.57,1.54,3.42,3.42,0,0,0,.75.72,3,3,0,0,0,1.58.54h.38a3.65,3.65,0,0,0,3.28-2.64,3.89,3.89,0,0,0,.13-.71V76.7h0a3.75,3.75,0,0,0-.38-1.54,1.6,1.6,0,0,1-.18-.29s-.08-.06-.05-.09-.08-.09-.12-.14a4.24,4.24,0,0,0-.46-.49c-.23-.2-.44-.41-.67-.59a7.49,7.49,0,0,1-.68-.6,3.14,3.14,0,0,1-.34-.4h.56c0-.57,0-1.18,0-1.76,0,0,0,0,0,0h-.13v-1a5.35,5.35,0,0,0,1.45-9.53l.78-9.61h11.53V46.89h-1.42v-1h3.13l.47-.72V42.55h27.76Zm-42.93,28.7a5.25,5.25,0,0,0-5,.18l-.76-9.4h6.52Z"/><polygon class="cls-5" points="733.65 4.66 587.62 4.66 587.62 8.69 737.76 8.69 733.65 4.66"/><rect class="cls-5" x="60.57" y="187.13" width="172.08" height="1.24"/><polygon class="cls-5" points="63.02 181.23 63.02 194.27 52.15 187.74 63.02 181.23"/><polygon class="cls-5" points="225.63 181.23 225.63 194.27 236.49 187.74 225.63 181.23"/><rect class="cls-5" x="598.58" y="187.13" width="106.56" height="1.24"/><polygon class="cls-5" points="601.02 181.23 601.02 194.27 590.16 187.74 601.02 181.23"/><polygon class="cls-5" points="705.13 181.23 705.13 194.27 716 187.74 705.13 181.23"/></g><g id="Steuerung"><g id="Krankabine_2" data-name="Krankabine 2"><path class="cls-5" d="M317.9,44.75V91.57l29.69.05,8.92-46.94Zm28.42,44.59H320.14V47l34.27,0Z"/><path class="cls-5" d="M341,84.38l-4.86-9.66a1.69,1.69,0,0,0-1.76-.91l-.24,0h-2.9a4.76,4.76,0,0,0,.56-2.26V63.93a4.79,4.79,0,0,0-2.9-4.42,4.47,4.47,0,1,0-4.12-.1,4.81,4.81,0,0,0-3.16,4.52V74.55a3.15,3.15,0,0,0,0,.56,1.5,1.5,0,0,0,0,.37,1.7,1.7,0,0,0,1.7,1.7h10.26L338,85.91a1.7,1.7,0,1,0,3-1.53Z"/></g><path class="cls-5" d="M501.21,143.93h-2.49V126.32h-.67v17.61H495a1.45,1.45,0,0,0-1.49,1.42v27.5a1.45,1.45,0,0,0,1.49,1.41h6.22a1.45,1.45,0,0,0,1.49-1.41v-27.5A1.45,1.45,0,0,0,501.21,143.93Zm1.17,28.63A1.39,1.39,0,0,1,501,174h-5.78a1.39,1.39,0,0,1-1.39-1.39V145.63a1.39,1.39,0,0,1,1.39-1.39H501a1.39,1.39,0,0,1,1.39,1.39Z"/><path class="cls-5" d="M500.57,144.88h-4.94a1.26,1.26,0,0,0-1.18,1.32V172a1.27,1.27,0,0,0,1.18,1.33h4.94a1.27,1.27,0,0,0,1.18-1.33V146.2A1.26,1.26,0,0,0,500.57,144.88Zm-2.28,26a1.58,1.58,0,1,1,1.57-1.58A1.57,1.57,0,0,1,498.29,170.87Zm0-4.1a1.58,1.58,0,1,1,1.57-1.57A1.57,1.57,0,0,1,498.29,166.77Zm0-4.14a1.57,1.57,0,1,1,1.57-1.57A1.57,1.57,0,0,1,498.29,162.63Zm0-4.1a1.57,1.57,0,1,1,1.57-1.57A1.57,1.57,0,0,1,498.29,158.53Zm0-4.37a1.58,1.58,0,1,1,1.57-1.58A1.57,1.57,0,0,1,498.29,154.16Zm0-4.38a1.57,1.57,0,1,1,1.57-1.57A1.57,1.57,0,0,1,498.29,149.78Z"/><path class="cls-5" d="M448.24,141.45a4.82,4.82,0,0,0-.08.86,4.57,4.57,0,0,0,9.13,0,4.82,4.82,0,0,0-.08-.86Z"/><path class="cls-5" d="M447.79,140.07h10.39a.89.89,0,0,0,0-1.77h-.24a5.38,5.38,0,0,0-10.67.17.9.9,0,0,0-.34.71A.88.88,0,0,0,447.79,140.07Z"/><path class="cls-5" d="M469.84,151.06a7.53,7.53,0,0,1,0-11.17l-.8-.87a8.71,8.71,0,0,0,0,12.91Z"/><path class="cls-5" d="M470.54,150.29l.79-.88a5.3,5.3,0,0,1,0-7.87l-.79-.88a6.51,6.51,0,0,0,0,9.63Z"/><path class="cls-5" d="M472.12,148.54l.8-.88a3,3,0,0,1,0-4.37l-.8-.87a4.14,4.14,0,0,0,0,6.12Z"/><path class="cls-5" d="M481.1,151.06l.79.88a8.71,8.71,0,0,0,0-12.92l-.79.87a7.53,7.53,0,0,1,0,11.17Z"/><path class="cls-5" d="M479.61,149.41l.79.88a6.49,6.49,0,0,0,0-9.63l-.79.88a5.3,5.3,0,0,1,0,7.87Z"/><path class="cls-5" d="M478.82,148.54a4.12,4.12,0,0,0,0-6.12l-.79.87a3,3,0,0,1,0,4.37Z"/><path class="cls-5" d="M475.75,145.47c0-.22-.2-.6-.37-.6s-.32.38-.32.6l-.1,9H468v2.78l-3.08-1a.15.15,0,0,1-.09-.06l-5.75-7.91H446.17L443,152.75v12.5a2.11,2.11,0,0,0,4.22,0v-10.4a.32.32,0,0,1,.28-.32.33.33,0,0,1,.34.32v27.64a2.29,2.29,0,0,0,2.31,2.26h0a2.29,2.29,0,0,0,2.3-2.26V168.77a.21.21,0,0,1,.21-.21h.55a.22.22,0,0,1,.21.21v13.72a2.31,2.31,0,0,0,2.34,2.26h0a2.31,2.31,0,0,0,2.33-2.26V167.41l0-12.26a.21.21,0,0,1,.36-.14c1.21,1.33,3.57,4.14,3.57,4.15a44.31,44.31,0,0,0,6,2.23V166h14.7V154.44H475.8Z"/></g><g id="Traglast"><path class="cls-5" d="M405.81,40.11h-3.14V38.8H373.44L371.34,40v5.83l2.1,1.31h0v3.49h11.18l.8,9.86a5.34,5.34,0,0,0,1.94,9.32v.93h-.11c0,.59,0,1.21,0,1.78h.82v0c0,.27-.23.35-.21.64a1.78,1.78,0,0,0,.35.38,4.21,4.21,0,0,1,.54.9c.09.15.17.29.27.43s.08.15.13.22c.24.33.48.68.72,1a1,1,0,0,1,.2.63,2.16,2.16,0,0,1-.11.51,1.2,1.2,0,0,1-1,.75,1.22,1.22,0,0,1-1-.37.39.39,0,0,0-.1-.08c0-.1-.11-.19-.15-.3s0-.31-.09-.49-.08-.25-.12-.37-.09-.24-.14-.35a1.8,1.8,0,0,0-.38-.73l-.1-.08a.53.53,0,0,0-.61.2,4,4,0,0,0,0,.93,1.11,1.11,0,0,1,0,.19l-.06.59v.45a3.24,3.24,0,0,0,.57,1.54,3.42,3.42,0,0,0,.75.72,3,3,0,0,0,1.58.54h.38a3.65,3.65,0,0,0,3.29-2.64,5,5,0,0,0,.13-.71V76.7h0a3.91,3.91,0,0,0-.39-1.54,2.45,2.45,0,0,1-.18-.29s-.08-.06,0-.09-.09-.09-.12-.14a4.34,4.34,0,0,0-.47-.49c-.22-.2-.44-.41-.66-.59s-.46-.38-.69-.6a3,3,0,0,1-.33-.4h.56c0-.57,0-1.18,0-1.76,0,0,0,0,0,0h-.12v-1a5.35,5.35,0,0,0,1.45-9.53l.77-9.61H404.1V46.89h-1.43v-1h3.14l.47-.72V40.83ZM391.1,59.88a5.19,5.19,0,0,0-2.33-.55,5.3,5.3,0,0,0-2.68.73l-.76-9.4h6.52Z"/></g></svg>