<svg xmlns="http://www.w3.org/2000/svg" viewBox="0 0 767 290.79"><defs><style>.cls-1,.cls-3{fill:#005a96;}.cls-2{fill:#fff;}.cls-3,.cls-5{fill-rule:evenodd;}.cls-4,.cls-5{fill:#0aa;}</style></defs><title>Containerkran</title><g id="Basis"><path class="cls-1" d="M592.17,163.31h.16V4.49H191.27V8.86h1.92l27.46,25.89,1,1H192.81v4.38h391v123.2h2.46v0h-2.36l-3.28,4.11v5.42h5.64a2,2,0,0,0,3.92,0h5.21v-5.42ZM199.77,8.86h48.32l-24.16,22.8Zm53.84,26.87H226.17L253.61,9.87Zm1.32,0V10.26l27,25.47Zm31.79-1.66L260,8.86h26.56l.16.15Zm1.76,1.66-.43-.41V10.26l27,25.47Zm31.36-1.66L293.12,8.86h26.72Zm1.76,1.66-.44-.41V9.77l27.52,26Zm32-1.53L326.76,8.86h26.86Zm1.62,1.53-.3-.28V10.08l27.19,25.65Zm31.39-1.93L360.21,8.86h26.42ZM388,8.86h26.62L388,34Zm31.89,26.59-.3.28H392.66l27.19-25.65Zm1.32-26.59H448L421.17,34.2Zm32.45,26.46-.43.41H426.1l27.52-26Zm1.32-26.46h26.73L454.94,34.07Zm31.8,26.46-.44.41H459.74l27-25.47ZM488.06,9l.16-.15h26.56L488.06,34.07Zm31.79,26.72h-27l27-25.47ZM521.18,9l.16-.15h27.22L521.18,34.7Zm32.45,26.31-.44.41H526.64l27-25.47ZM555,9l.17-.15h26.55L555,34.07Zm28.87,26.72H559.75L583.82,13Z"/><g id="Schild_Teichmann_Krane_2" data-name="Schild Teichmann Krane 2"><rect class="cls-2" x="357.77" y="15.27" width="59.04" height="14.91"/><path class="cls-1" d="M417.24,30.58H357.35V14.87h59.89Zm-59-.8h58.19V15.67H358.2Z"/><polygon class="cls-3" points="364.74 23.24 366.02 23.24 366.02 22 361.92 22 361.92 23.24 363.19 23.24 363.19 27.62 364.74 27.62 364.74 23.24"/><polygon class="cls-3" points="370 23.24 370 22 366.62 22 366.62 27.62 370 27.62 370 26.38 368.16 26.38 368.16 25.42 369.91 25.42 369.91 24.18 368.16 24.18 368.16 23.24 370 23.24"/><rect class="cls-1" x="370.99" y="22" width="1.55" height="5.62"/><path class="cls-3" d="M377.83,22.14a3.82,3.82,0,0,0-1.42-.28,3.32,3.32,0,0,0-2.26.9,2.85,2.85,0,0,0-.88,2.06,2.67,2.67,0,0,0,1,2.12,3.4,3.4,0,0,0,2.23.83,4.65,4.65,0,0,0,1.37-.26V25.76a1.85,1.85,0,0,1-1.34.59,1.5,1.5,0,0,1-1.61-1.52,1.53,1.53,0,0,1,1.59-1.56,1.74,1.74,0,0,1,1.36.62Z"/><polygon class="cls-3" points="380.37 24.17 380.37 22 378.82 22 378.82 27.62 380.37 27.62 380.37 25.32 382.6 25.32 382.6 27.62 384.15 27.62 384.15 22 382.6 22 382.6 24.17 380.37 24.17"/><polygon class="cls-3" points="385.24 27.62 386.94 27.62 386.89 24.59 388.31 27.62 389.73 24.58 389.7 27.62 391.4 27.62 391.4 21.99 389.47 21.99 388.33 24.66 387.15 21.99 385.24 21.99 385.24 27.62"/><polygon class="cls-3" points="398.73 27.62 400.28 27.62 400.28 24.18 403.12 27.62 404.67 27.62 404.67 22 403.12 22 403.12 25.44 400.28 22 398.73 22 398.73 27.62"/><polygon class="cls-3" points="405.41 27.62 406.96 27.62 406.96 24.18 409.81 27.62 411.35 27.62 411.35 22 409.81 22 409.81 25.44 406.96 22 405.41 22 405.41 27.62"/><polygon class="cls-3" points="396.53 27.62 398.18 27.62 395.94 22 394.25 22 391.96 27.62 393.6 27.62 395.07 23.74 396.53 27.62"/><polygon class="cls-3" points="395.06 17.68 395.06 20.85 395.95 20.85 395.95 19.91 396.28 19.55 397.19 20.85 398.19 20.85 396.85 19.04 398.05 17.68 397.09 17.68 395.96 18.95 395.95 18.95 395.95 17.68 395.06 17.68"/><path class="cls-3" d="M399,20.85h.85V19.41c0-.32.33-.43.63-.43h.27v-.58h-.16a.89.89,0,0,0-.76.38h0v-.32H399Z"/><path class="cls-3" d="M402.4,19.19v-.07c0-.18.14-.31.4-.31s.39.12.39.3-.09.23-.34.28l-.48.09c-.59.12-.84.3-.84.74s.21.69.8.69a.94.94,0,0,0,.85-.31h0a.91.91,0,0,0,.11.25h.81a.73.73,0,0,1-.1-.47V19.13c0-.43-.2-.73-1.21-.73-.64,0-1.16.18-1.16.73v.06Zm.79.93c0,.26-.29.37-.52.37a.3.3,0,0,1-.32-.33c0-.21.13-.33.48-.39a1.38,1.38,0,0,0,.36-.12Z"/><path class="cls-3" d="M405.23,20.85h.85V19.26c0-.26.16-.39.45-.39s.37.09.37.33v1.65h.85V19.08c0-.47-.32-.68-.85-.68a1,1,0,0,0-.84.34h0v-.28h-.82Z"/><path class="cls-3" d="M411.35,19.75v-.14c0-.73-.22-1.21-1.22-1.21s-1.32.59-1.32,1.23.05,1.28,1.29,1.28c.8,0,1.17-.31,1.2-.87h-.77c0,.3-.16.45-.45.45s-.42-.27-.42-.55v-.19Zm-1.69-.37v-.09a.43.43,0,0,1,.44-.48c.35,0,.42.21.43.57Z"/></g><rect class="cls-4" x="652.65" y="47.34" width="1.03" height="120.51"/><polygon class="cls-4" points="647.71 50.58 658.61 50.58 653.16 42.01 647.71 50.58"/><polygon class="cls-4" points="647.71 164.18 658.61 164.18 653.16 172.75 647.71 164.18"/><rect class="cls-4" x="151.25" y="47.34" width="1.03" height="120.51"/><polygon class="cls-4" points="146.32 50.58 157.22 50.58 151.76 42.01 146.32 50.58"/><polygon class="cls-4" points="146.32 164.18 157.22 164.18 151.76 172.75 146.32 164.18"/><rect class="cls-4" x="151.27" y="182.84" width="1.03" height="40.65"/><polygon class="cls-4" points="146.34 186.08 157.24 186.08 151.79 177.51 146.34 186.08"/><polygon class="cls-4" points="146.34 219.21 157.24 219.21 151.79 227.78 146.34 219.21"/><polygon class="cls-1" points="161.04 260.17 161.82 260.9 173.82 249.57 173.05 248.84 161.04 260.17"/><polygon class="cls-1" points="161.04 267.97 161.82 268.7 173.82 257.37 173.05 256.64 161.04 267.97"/><polygon class="cls-1" points="161.04 275.77 161.82 276.51 173.82 265.18 173.05 264.44 161.04 275.77"/><polygon class="cls-1" points="161.04 283.58 161.82 284.31 173.82 272.98 173.05 272.25 161.04 283.58"/><polygon class="cls-1" points="173.63 280.81 172.86 280.08 168.57 284.13 170.12 284.13 173.63 280.81"/><polygon class="cls-1" points="161.04 189.85 161.82 190.58 173.83 179.25 173.05 178.52 161.04 189.85"/><polygon class="cls-1" points="169.32 189.85 161.04 197.66 161.82 198.39 171.34 189.41 173.83 187.06 173.83 185.6 169.32 189.85"/><polygon class="cls-1" points="161.04 205.46 161.82 206.19 173.82 194.86 173.05 194.13 161.04 205.46"/><polygon class="cls-1" points="161.04 213.27 161.82 214 173.82 202.67 173.05 201.94 161.04 213.27"/><polygon class="cls-1" points="161.04 221.07 161.82 221.8 173.82 210.47 173.05 209.74 161.04 221.07"/><polygon class="cls-1" points="161.04 228.88 161.82 229.61 173.82 218.28 173.05 217.55 161.04 228.88"/><polygon class="cls-1" points="161.04 236.68 161.82 237.41 173.82 226.08 173.05 225.35 161.04 236.68"/><polygon class="cls-1" points="161.04 244.49 161.82 245.22 173.82 233.89 173.05 233.16 161.04 244.49"/><polygon class="cls-1" points="161.04 252.29 161.82 253.02 173.82 241.69 173.05 240.96 161.04 252.29"/><polygon class="cls-1" points="167.44 178.89 166.66 178.16 160.66 183.82 161.43 184.55 167.44 178.89"/><path class="cls-1" d="M116.48,223h-27V193.93h27Zm-25.93-1h24.9V194.9H90.55Z"/><path class="cls-1" d="M87.55,223h-27V193.93h27Zm-25.93-1h24.9V194.9H61.62Z"/><path class="cls-1" d="M57.94,223H31V193.93h27ZM32,222h24.9V194.9H32Z"/><path class="cls-3" d="M23.09,188.84v45.54l7.39,10c1,2.88-.58,4.47,4.74,6.44,15.52,5.74,40.28,10.63,40.28,10.63s21.42-4.77,35.46-10.63c4.78-2,3.27-2.49,5-6.28L124,234.4V188.84Zm2.07,44.57v-42H122v42l0,0Z"/><path class="cls-3" d="M86.08,266.22a6.59,6.59,0,0,0-2-1.7,22.39,22.39,0,0,0-4.66-2.08L78.11,262a.49.49,0,0,1-.37-.54,5.29,5.29,0,0,0,0-.8.45.45,0,0,1,.23-.5,3.13,3.13,0,0,1,.32-.15,9.88,9.88,0,0,0,2.31-1.3,4.62,4.62,0,0,0,1.75-4.94,7.14,7.14,0,0,0-2.51-3.9,4.8,4.8,0,0,0-2.13-1.08,2.26,2.26,0,0,0-2.38.79,3.79,3.79,0,0,0-.71,1.57,9,9,0,0,0-.23,2.19,19.49,19.49,0,0,0,.28,3.14c.13.76.3,1.52.45,2.27a.47.47,0,0,1-.29.53,8.35,8.35,0,0,0-.74.47.51.51,0,0,1-.59,0,2.61,2.61,0,0,1-.28-.17,10,10,0,0,0-2.33-1.24,5.83,5.83,0,0,0-2.62-.28,5.43,5.43,0,0,0-3,1.49,7.24,7.24,0,0,0-2,3.2,4.89,4.89,0,0,0-.12,2.81,2.27,2.27,0,0,0,2.34,1.67,6.47,6.47,0,0,0,2.61-.68,18.14,18.14,0,0,0,3.53-2.16c.67-.51,1.31-1,2-1.56a.52.52,0,0,1,.67-.06,7.67,7.67,0,0,0,.77.36c.25.11.37.24.36.49s0,.36,0,.54a7.38,7.38,0,0,0,.1,2.48,4.75,4.75,0,0,0,2.82,3.42,7.39,7.39,0,0,0,3.48.59v0c.57-.1,1.14-.18,1.7-.31a5.17,5.17,0,0,0,2.44-1.27,2.09,2.09,0,0,0,.72-1.55A2.44,2.44,0,0,0,86.08,266.22Z"/><path class="cls-2" d="M81.42,271.12V271a7.67,7.67,0,0,1-3.31-.63,5.11,5.11,0,0,1-3-3.64,7.63,7.63,0,0,1-.11-2.58c0-.21,0-.37,0-.52s0-.11-.15-.18-.56-.25-.81-.38a.21.21,0,0,0-.28,0l-.53.43-1.43,1.13a18.75,18.75,0,0,1-3.6,2.21,6.81,6.81,0,0,1-2.75.7,2.63,2.63,0,0,1-2.69-1.91,5.12,5.12,0,0,1,.13-3A7.5,7.5,0,0,1,65,259.37a5.76,5.76,0,0,1,3.19-1.58l.18,0a6.09,6.09,0,0,1,2.6.32,10.46,10.46,0,0,1,2.42,1.27l.26.16a.17.17,0,0,0,.09,0,.21.21,0,0,0,.11-.05c.28-.19.54-.35.78-.49s.13-.12.12-.19l-.16-.77c-.1-.5-.2-1-.28-1.5a18.2,18.2,0,0,1-.29-3.2,9.47,9.47,0,0,1,.23-2.26A4.08,4.08,0,0,1,75,249.4a2.61,2.61,0,0,1,2.72-.92A5.22,5.22,0,0,1,80,249.63a7.42,7.42,0,0,1,2.61,4.08A4.89,4.89,0,0,1,80.77,259a10.08,10.08,0,0,1-2.38,1.35l-.3.14s-.08,0-.06.18a6.77,6.77,0,0,1,.06.85c0,.17,0,.19.14.22l.47.15.86.28a23.59,23.59,0,0,1,4.74,2.12A6.64,6.64,0,0,1,86.36,266a2.67,2.67,0,0,1,.57,1.58,2.42,2.42,0,0,1-.81,1.78,5.52,5.52,0,0,1-2.6,1.35c-.4.1-.81.17-1.2.23l-.52.09Zm-7.57-8.72a1,1,0,0,1,.57.14c.22.12.47.24.73.35a.76.76,0,0,1,.56.8,4,4,0,0,1,0,.49,7.55,7.55,0,0,0,.09,2.44,4.4,4.4,0,0,0,2.64,3.19,7,7,0,0,0,3.31.56H82l.18,0c.4-.06.77-.13,1.14-.22a4.79,4.79,0,0,0,2.29-1.17,1.79,1.79,0,0,0,.61-1.33,2,2,0,0,0-.45-1.21,6.16,6.16,0,0,0-1.87-1.61,21.6,21.6,0,0,0-4.59-2l-.85-.28-.48-.16a.79.79,0,0,1-.6-.85,5.32,5.32,0,0,0-.05-.75.76.76,0,0,1,.39-.82,2.41,2.41,0,0,1,.33-.15,9.52,9.52,0,0,0,2.25-1.27A4.31,4.31,0,0,0,82,253.85a6.78,6.78,0,0,0-2.4-3.73,4.4,4.4,0,0,0-2-1,1.9,1.9,0,0,0-2,.67,3.57,3.57,0,0,0-.66,1.44,8.37,8.37,0,0,0-.21,2.11,17.85,17.85,0,0,0,.28,3.1c.08.5.18,1,.28,1.49l.16.77a.79.79,0,0,1-.45.87,8.07,8.07,0,0,0-.72.45.86.86,0,0,1-1,.06l-.3-.19a9.84,9.84,0,0,0-2.25-1.19,5.27,5.27,0,0,0-2.29-.28l-.16,0a4.92,4.92,0,0,0-2.8,1.39,6.82,6.82,0,0,0-1.89,3.06,4.52,4.52,0,0,0-.12,2.63,1.94,1.94,0,0,0,2,1.43,6,6,0,0,0,2.47-.64,17.37,17.37,0,0,0,3.46-2.13c.47-.36.94-.74,1.41-1.12l.53-.43A1.06,1.06,0,0,1,73.85,262.4Z"/><path class="cls-1" d="M142.36,226.29a4.56,4.56,0,0,0-3.42,1.43,3.47,3.47,0,0,1-2.58,1.06h0a3.47,3.47,0,0,1-2.58-1.06,4.79,4.79,0,0,0-6.83,0,3.47,3.47,0,0,1-2.58,1.06h0a3.47,3.47,0,0,1-2.58-1.06,4.79,4.79,0,0,0-6.83,0,3.47,3.47,0,0,1-2.58,1.06h0a3.47,3.47,0,0,1-2.58-1.06,4.79,4.79,0,0,0-6.83,0,3.68,3.68,0,0,1-5.17,0,4.79,4.79,0,0,0-6.83,0,3.67,3.67,0,0,1-5.16,0,4.79,4.79,0,0,0-6.83,0,3.67,3.67,0,0,1-5.16,0,4.79,4.79,0,0,0-6.83,0,3.67,3.67,0,0,1-5.16,0,4.79,4.79,0,0,0-6.83,0,3.67,3.67,0,0,1-5.16,0,4.79,4.79,0,0,0-6.83,0,3.68,3.68,0,0,1-5.17,0,4.79,4.79,0,0,0-6.83,0,3.67,3.67,0,0,1-5.16,0,4.79,4.79,0,0,0-6.83,0,3.47,3.47,0,0,1-2.58,1.06,3.47,3.47,0,0,1-2.58-1.06,4.56,4.56,0,0,0-3.42-1.43h0A4.56,4.56,0,0,0,7,227.72a3.47,3.47,0,0,1-2.58,1.06l-.22,0v1.05h.22a4.56,4.56,0,0,0,3.41-1.43,3.44,3.44,0,0,1,2.58-1.07h0A3.44,3.44,0,0,1,13,228.39a4.58,4.58,0,0,0,3.42,1.43,4.58,4.58,0,0,0,3.42-1.43,3.65,3.65,0,0,1,5.16,0,4.79,4.79,0,0,0,6.83,0,3.65,3.65,0,0,1,5.16,0,4.79,4.79,0,0,0,6.83,0,3.65,3.65,0,0,1,5.16,0,4.79,4.79,0,0,0,6.83,0,3.65,3.65,0,0,1,5.16,0,4.79,4.79,0,0,0,6.83,0,3.44,3.44,0,0,1,2.58-1.07A3.48,3.48,0,0,1,73,228.39a4.54,4.54,0,0,0,3.41,1.43,4.62,4.62,0,0,0,3.42-1.43,3.65,3.65,0,0,1,5.16,0,4.56,4.56,0,0,0,3.41,1.43h0a4.6,4.6,0,0,0,3.42-1.43,3.65,3.65,0,0,1,5.16,0,4.79,4.79,0,0,0,6.83,0,3.65,3.65,0,0,1,5.16,0,4.6,4.6,0,0,0,3.42,1.43h0a4.56,4.56,0,0,0,3.41-1.43,3.65,3.65,0,0,1,5.16,0,4.62,4.62,0,0,0,3.42,1.43h0a4.54,4.54,0,0,0,3.41-1.43,3.66,3.66,0,0,1,5.17,0,4.58,4.58,0,0,0,3.41,1.43h0a4.58,4.58,0,0,0,3.42-1.43,3.44,3.44,0,0,1,2.58-1.07,3.76,3.76,0,0,1,1.22.21v-1.09A4.91,4.91,0,0,0,142.36,226.29Z"/></g><g id="Ausladung"><rect class="cls-4" x="51.04" y="175.14" width="132.57" height="0.97"/><polygon class="cls-4" points="55.58 170.49 55.58 180.77 46.49 175.63 55.58 170.49"/><polygon class="cls-4" points="177.74 170.49 177.74 180.77 186.81 175.63 177.74 170.49"/><path class="cls-4" d="M190.41,4.45H48.72V8.82h2.06L22.3,35.69H19.58v4.37H33.21v3.77l1.75,1h0v2.76h4.17V76.44a4,4,0,0,0-.62,2.11,4.22,4.22,0,0,0,3.07,4h-3.1l-5.27-2.25V115H61.15V80.28l-5.27,2.25H52.73a4.22,4.22,0,0,0,3.07-4,3.89,3.89,0,0,0-.5-1.91v-29h5.29v-3H59.4v-.81H62l.39-.57v-3.2h128V35.69H163.5l26.91-25.38ZM39.71,75.7V47.62h6.85V76.18a4.49,4.49,0,0,0-3.63-1.8A4.54,4.54,0,0,0,39.71,75.7Zm7.45,4.09A4.3,4.3,0,0,0,50,82.53H44.28A4.34,4.34,0,0,0,47.16,79.79Zm13.07,7.59v26.76H34.13V87.38ZM54.72,75.83a4.57,4.57,0,0,0-6.92.28V47.62h6.92Zm2.65-67H85.22L57.37,35.1ZM56.05,10V35.69H28.86ZM90.49,35.41l-.3.28H63.3L90.49,10ZM91.81,8.82h26.86L91.81,34.16Zm32.46,26.46-.44.41H96.75l27.52-26Zm1.32-26.46h26.72L125.59,34Zm31.79,26.46-.43.41H130.39l27-25.47ZM158.71,34V9l.16-.15h26.56Z"/><rect class="cls-4" x="603.14" y="175.14" width="126.69" height="0.97"/><polygon class="cls-4" points="605.18 170.49 605.18 180.77 596.11 175.63 605.18 170.49"/><polygon class="cls-4" points="726.65 170.49 726.65 180.77 735.74 175.63 726.65 170.49"/><path class="cls-4" d="M763.69,35.69H761L732.48,8.82h2.07V4.45H592.82v5.82l26.94,25.42H592.82v4.38H721.94v3.76l1.75,1h0v2.76h4.16V76.44a4,4,0,0,0-.62,2.11,4.21,4.21,0,0,0,3.08,4h-3.11L722,80.28V115h27.93V80.28l-5.27,2.25h-3.15a4.22,4.22,0,0,0,3.07-4,3.89,3.89,0,0,0-.5-1.91v-29h5.3v-3h-1.2v-.81h2.62l.4-.57V40.07h12.54Zm-35.25,40V47.62h6.85V76.18a4.46,4.46,0,0,0-3.63-1.8A4.54,4.54,0,0,0,728.44,75.7Zm7.45,4.09a4.3,4.3,0,0,0,2.87,2.74H733A4.34,4.34,0,0,0,735.89,79.79ZM749,87.38v26.76h-26.1V87.38Zm-5.51-11.55a4.57,4.57,0,0,0-6.92.28V47.62h6.92Zm-17.56-67V35.1L698,8.82ZM624.56,34,597.84,8.82H624.4l.16.15Zm1.76,1.66-.44-.41V10.22l27,25.47ZM657.68,34,631,8.82h26.72Zm1.75,1.66-.43-.41V9.73l27.52,26Zm32-1.53L664.6,8.82h26.86Zm1.62,1.53-.3-.28V10L720,35.69Zm34.14,0V10l27.19,25.65Z"/></g><g id="Spurweite"><rect class="cls-4" x="209.19" y="175.14" width="363.03" height="0.97"/><polygon class="cls-4" points="211.23 170.49 211.23 180.77 202.15 175.63 211.23 170.49"/><polygon class="cls-4" points="569.62 170.49 569.62 180.77 578.7 175.63 569.62 170.49"/></g><g id="Traglast"><path class="cls-4" d="M358.17,39.29h-2.61v-1H331.12l-1.76,1v4.59l1.76,1h0v2.76h4.16V76.44a3.94,3.94,0,0,0-.61,2.11,4.22,4.22,0,0,0,3.07,4h-3.11l-5.26-2.25V115H357.3V80.28L352,82.53h-3.15a4.22,4.22,0,0,0,3.07-4,4,4,0,0,0-.49-1.91v-29h5.29v-3h-1.19v-.81h2.61l.4-.57v-3.4ZM335.87,75.7V47.62h6.85V76.18a4.57,4.57,0,0,0-6.85-.48Zm7.44,4.09a4.34,4.34,0,0,0,2.87,2.74h-5.75A4.34,4.34,0,0,0,343.31,79.79Zm13.07,7.59v26.76H330.29V87.38Zm-5.51-11.55a4.57,4.57,0,0,0-6.92.28V47.62h6.92Z"/></g><g id="Hubhöhe"><path class="cls-5" d="M329.37,118.69v57H357.3v-57Zm27,56.13H330.29V119.56h26.09Z"/><path class="cls-4" d="M358.17,39.29h-2.61v-1H331.12l-1.76,1v4.59l1.76,1h0v2.76h4.16V76.44a3.94,3.94,0,0,0-.61,2.11,4.22,4.22,0,0,0,3.07,4h-3.11l-5.26-2.25V115H357.3V80.28L352,82.53h-3.15a4.22,4.22,0,0,0,3.07-4,4,4,0,0,0-.49-1.91v-29h5.29v-3h-1.19v-.81h2.61l.4-.57v-3.4ZM335.87,75.7V47.62h6.85V76.18a4.57,4.57,0,0,0-6.85-.48Zm7.44,4.09a4.34,4.34,0,0,0,2.87,2.74h-5.75A4.34,4.34,0,0,0,343.31,79.79Zm13.07,7.59v26.76H330.29V87.38Zm-5.51-11.55a4.57,4.57,0,0,0-6.92.28V47.62h6.92Z"/></g><g id="Feststützenanordnung"><path class="cls-4" d="M199.58,160.36,259.69,4.49h-5.42l-7.16,18.23H199.58V4.49h-8.51V164l-2.56,3.49v5.42h4.85a2,2,0,0,0,3.91,0h4.86v-5.42l-2.55-3.55Zm0-136h46.89L229.76,67.72H199.58Zm0,45h29.53l-29.53,76.55Z"/></g><g id="Steuerung"><g id="Krankabine_2" data-name="Krankabine 2"><path class="cls-4" d="M271.45,42.07V83.42l27.79,0L307.58,42Zm26.6,39.38h-24.5V44.06l32.07,0Z"/><path class="cls-4" d="M293.11,77.07l-4.55-8.53a1.63,1.63,0,0,0-1.65-.81l-.23,0H284a4,4,0,0,0,.53-2V59a4.27,4.27,0,0,0-2.72-3.91,3.92,3.92,0,0,0,2.35-3.54,4.19,4.19,0,0,0-8.36,0A3.91,3.91,0,0,0,277.93,55a4.26,4.26,0,0,0-3,4v9.38a3.47,3.47,0,0,0,0,.49,1.86,1.86,0,0,0,0,.33,1.54,1.54,0,0,0,1.59,1.5h9.6l4.11,7.71a1.65,1.65,0,0,0,2.14.67A1.47,1.47,0,0,0,293.11,77.07Z"/></g><path class="cls-4" d="M473.54,141.07h-2.09V127.18h-.55v13.89h-2.56a1.18,1.18,0,0,0-1.24,1.12v21.69a1.18,1.18,0,0,0,1.24,1.12h5.2a1.19,1.19,0,0,0,1.24-1.12V142.19A1.19,1.19,0,0,0,473.54,141.07Zm1,22.58a1.13,1.13,0,0,1-1.16,1.1h-4.84a1.13,1.13,0,0,1-1.16-1.1V142.41a1.13,1.13,0,0,1,1.16-1.09h4.84a1.13,1.13,0,0,1,1.16,1.09Z"/><path class="cls-4" d="M473,141.82h-4.13a1,1,0,0,0-1,1V163.2a1,1,0,0,0,1,1.05H473a1,1,0,0,0,1-1.05V142.86A1,1,0,0,0,473,141.82Zm-1.9,20.5a1.24,1.24,0,1,1,1.31-1.24A1.28,1.28,0,0,1,471.1,162.32Zm0-3.24a1.24,1.24,0,1,1,1.31-1.24A1.28,1.28,0,0,1,471.1,159.08Zm0-3.26a1.24,1.24,0,1,1,1.31-1.24A1.28,1.28,0,0,1,471.1,155.82Zm0-3.23a1.24,1.24,0,1,1,1.31-1.24A1.28,1.28,0,0,1,471.1,152.59Zm0-3.45a1.24,1.24,0,1,1,1.31-1.24A1.28,1.28,0,0,1,471.1,149.14Zm0-3.45a1.24,1.24,0,1,1,1.31-1.24A1.28,1.28,0,0,1,471.1,145.69Z"/><path class="cls-4" d="M429.26,139.11a3.08,3.08,0,0,0-.07.68,3.83,3.83,0,0,0,7.64,0,3.82,3.82,0,0,0-.07-.68Z"/><path class="cls-4" d="M428.88,138h8.69a.7.7,0,1,0,0-1.4h-.21a4.53,4.53,0,0,0-8.91.14.68.68,0,0,0-.29.56A.71.71,0,0,0,428.88,138Z"/><path class="cls-4" d="M447.32,146.7a5.71,5.71,0,0,1,0-8.81l-.67-.69a6.62,6.62,0,0,0,0,10.18Z"/><path class="cls-4" d="M447.9,146.09l.66-.69a4,4,0,0,1,0-6.21l-.66-.7a4.95,4.95,0,0,0,0,7.6Z"/><path class="cls-4" d="M449.22,144.71l.67-.69a2.3,2.3,0,0,1,0-3.45l-.67-.69a3.15,3.15,0,0,0,0,4.83Z"/><path class="cls-4" d="M456.72,146.7l.67.69a6.61,6.61,0,0,0,0-10.19l-.67.69a5.7,5.7,0,0,1,0,8.81Z"/><path class="cls-4" d="M455.48,145.4l.67.69a4.95,4.95,0,0,0,0-7.6l-.67.7a4,4,0,0,1,0,6.21Z"/><path class="cls-4" d="M454.82,144.71a3.13,3.13,0,0,0,0-4.83l-.66.69a2.31,2.31,0,0,1,0,3.45Z"/><path class="cls-4" d="M452.25,142.29c0-.18-.16-.48-.3-.48s-.27.3-.27.48l-.09,7.07H445.8v2.19l-2.58-.8-.07-.05-4.81-6.24H427.53L424.84,148v9.86a1.78,1.78,0,0,0,3.53,0v-8.2a.26.26,0,0,1,.24-.26.27.27,0,0,1,.28.26v21.8a1.87,1.87,0,0,0,1.93,1.78h0a1.87,1.87,0,0,0,1.93-1.78V160.67a.17.17,0,0,1,.17-.17h.46a.17.17,0,0,1,.18.17v10.82a1.89,1.89,0,0,0,1.95,1.78h0a1.89,1.89,0,0,0,1.95-1.78v-11.9l0-9.67a.17.17,0,0,1,.3-.11c1,1.05,3,3.27,3,3.27a38.24,38.24,0,0,0,5,1.77v3.59h12.29v-9.08H452.3Z"/></g></svg>