<svg xmlns="http://www.w3.org/2000/svg" viewBox="0 0 766.83 601.4"><defs><style>.cls-1,.cls-2{fill:#005a96;}.cls-2,.cls-4{fill-rule:evenodd;}.cls-3{fill:#fff;}.cls-4,.cls-5{fill:#0aa;}</style></defs><title>Wandschwenkkran</title><g id="Basis"><rect class="cls-1" x="44.14" y="544.77" width="520.29" height="4.39"/><path class="cls-2" d="M509.8,128.72v-3.2H143v-4.68h-5.46v4.68H82.31V111.46H56.61v-9.1h-8v9.1h0v10.9H15.62v-20h-8v20H4.07V127H7.58v21.72h8V127h33v21.72h7v80.16h-7v20h-33v-20h-8v20H4.07v4.6H7.58v21.73h8V253.46h33v21.73h8V253.46H79.68v-3.84l35.66-92.78H509.8v-3.2h-3.9V128.72Zm-446,120.14H59.62V127h4.16Z"/><g id="Schild_Teichmann_Krane_7" data-name="Schild Teichmann Krane 7"><rect class="cls-3" x="257.08" y="129.24" width="83.52" height="22.36"/><polygon class="cls-2" points="266.95 141.19 268.75 141.19 268.75 139.34 262.94 139.34 262.94 141.19 264.75 141.19 264.75 147.76 266.95 147.76 266.95 141.19"/><polygon class="cls-2" points="274.39 141.19 274.39 139.34 269.59 139.34 269.59 147.76 274.39 147.76 274.39 145.91 271.79 145.91 271.79 144.45 274.25 144.45 274.25 142.6 271.79 142.6 271.79 141.19 274.39 141.19"/><rect class="cls-1" x="275.78" y="139.34" width="2.19" height="8.42"/><path class="cls-2" d="M285.45,139.54a5,5,0,0,0-2-.42,4.56,4.56,0,0,0-3.21,1.36,4.37,4.37,0,0,0-1.25,3.08,4.15,4.15,0,0,0,1.36,3.19,4.69,4.69,0,0,0,3.16,1.23,6,6,0,0,0,1.93-.39V145a2.52,2.52,0,0,1-1.88.89,2.19,2.19,0,0,1-2.28-2.29,2.22,2.22,0,0,1,2.24-2.33,2.35,2.35,0,0,1,1.92.93Z"/><polygon class="cls-2" points="289.05 142.59 289.05 139.34 286.87 139.34 286.87 147.76 289.05 147.76 289.05 144.31 292.22 144.31 292.22 147.76 294.4 147.76 294.4 139.34 292.22 139.34 292.22 142.59 289.05 142.59"/><polygon class="cls-2" points="295.93 147.76 298.35 147.76 298.29 143.22 300.29 147.76 302.3 143.2 302.25 147.76 304.66 147.76 304.66 139.32 301.94 139.32 300.32 143.32 298.65 139.32 295.93 139.32 295.93 147.76"/><polygon class="cls-2" points="315.03 147.76 317.22 147.76 317.22 142.6 321.24 147.76 323.43 147.76 323.43 139.34 321.24 139.34 321.24 144.49 317.22 139.34 315.03 139.34 315.03 147.76"/><polygon class="cls-2" points="324.47 147.76 326.66 147.76 326.66 142.6 330.69 147.76 332.88 147.76 332.88 139.34 330.69 139.34 330.69 144.49 326.66 139.34 324.47 139.34 324.47 147.76"/><polygon class="cls-2" points="311.91 147.76 314.25 147.76 311.07 139.34 308.68 139.34 305.45 147.76 307.77 147.76 309.86 141.94 311.91 147.76"/><polygon class="cls-2" points="309.84 132.85 309.84 137.6 311.1 137.6 311.1 136.19 311.56 135.65 312.85 137.6 314.26 137.6 312.38 134.89 314.07 132.85 312.71 132.85 311.12 134.75 311.1 134.75 311.1 132.85 309.84 132.85"/><path class="cls-2" d="M315.37,137.6h1.21v-2.15c0-.48.47-.64.89-.64h.37v-.88h-.22a1.24,1.24,0,0,0-1.08.57h0V134h-1.15Z"/><path class="cls-2" d="M320.22,135.12V135c0-.28.19-.47.56-.47s.56.17.56.44-.12.35-.48.42l-.68.15c-.83.17-1.19.44-1.19,1.11a1,1,0,0,0,1.13,1,1.29,1.29,0,0,0,1.2-.47h0a1,1,0,0,0,.14.37h1.16a1.16,1.16,0,0,1-.15-.69V135c0-.65-.27-1.1-1.7-1.1-.91,0-1.65.28-1.65,1.1v.09Zm1.12,1.39c0,.4-.42.56-.74.56s-.45-.23-.45-.5.19-.5.67-.58a1.41,1.41,0,0,0,.52-.18Z"/><path class="cls-2" d="M324.22,137.6h1.21v-2.37c0-.4.22-.6.63-.6s.51.15.51.5v2.47h1.21V135c0-.7-.44-1-1.2-1a1.41,1.41,0,0,0-1.19.51h0V134h-1.16Z"/><path class="cls-2" d="M332.87,136v-.21c0-1.09-.31-1.81-1.72-1.81-1.61,0-1.86.89-1.86,1.85s.07,1.92,1.81,1.92c1.13,0,1.66-.47,1.71-1.3h-1.08c-.08.44-.24.67-.64.67s-.6-.41-.6-.83V136Zm-2.38-.54v-.15c0-.33.14-.71.62-.71s.58.31.62.86Z"/></g></g><g id="Traglast"><path class="cls-4" d="M492.19,146H469.37a2.87,2.87,0,0,0-2.88,2.88V159a2.87,2.87,0,0,0,2.88,2.88h3.31l5.1,29.22a5,5,0,0,0,1.64,8.91c0,.33,0,.68,0,1h-.11c0,.56,0,1.16,0,1.71h.79c0,.27-.23.34-.2.61a1.65,1.65,0,0,0,.33.37,3.58,3.58,0,0,1,.52.87c.08.13.17.28.26.41a2.25,2.25,0,0,1,.12.21c.23.31.46.65.69,1a1,1,0,0,1,.19.61,1.77,1.77,0,0,1-.1.5,1.13,1.13,0,0,1-1,.71,1.22,1.22,0,0,1-1-.35.34.34,0,0,0-.09-.08c0-.1-.1-.19-.14-.29s0-.29-.09-.46a2.53,2.53,0,0,0-.12-.36c0-.12-.09-.23-.13-.35a1.64,1.64,0,0,0-.37-.69.2.2,0,0,0-.09-.07.5.5,0,0,0-.59.19,3.3,3.3,0,0,0,0,.89c0,.06,0,.12,0,.18s0,.38,0,.57v.42a3,3,0,0,0,.54,1.48,3.19,3.19,0,0,0,.73.69,2.7,2.7,0,0,0,1.51.51h.36a3.51,3.51,0,0,0,2.26-1,3.64,3.64,0,0,0,.89-1.54,3.42,3.42,0,0,0,.13-.68v-.39h0a3.65,3.65,0,0,0-.37-1.48,2.29,2.29,0,0,1-.17-.28s-.08-.06-.05-.09-.07-.08-.11-.13a3.94,3.94,0,0,0-.44-.47c-.22-.19-.43-.39-.64-.56s-.44-.37-.66-.58a2.8,2.8,0,0,1-.32-.38h.54c0-.55,0-1.13,0-1.69,0,0,0,0,0,0h-.11v-1a5,5,0,0,0,1.49-8.88l5.1-29.22h3.31a2.88,2.88,0,0,0,2.88-2.88V148.85A2.88,2.88,0,0,0,492.19,146Zm-9.53,44.46a4.84,4.84,0,0,0-3.76,0l-5-28.52h13.71Z"/></g><g id="Ausladung"><rect class="cls-5" x="45.05" y="575.42" width="467.27" height="1.76"/><polygon class="cls-5" points="504.59 567.03 504.59 585.56 520.02 576.29 504.59 567.03"/><rect class="cls-5" x="44.24" y="559.78" width="1.76" height="33.02"/></g><g id="Hubhöhe"><rect class="cls-5" x="449.4" y="216.28" width="1.76" height="312.99"/><polygon class="cls-5" points="441.01 219.66 459.54 219.66 450.27 204.22 441.01 219.66"/><polygon class="cls-5" points="441.01 522.64 459.54 522.64 450.27 538.08 441.01 522.64"/></g><g id="Bauhöhe"><rect class="cls-5" x="538.37" y="135.23" width="1.76" height="409.54"/><polygon class="cls-5" points="529.98 141.22 548.51 141.22 539.24 125.79 529.98 141.22"/></g><g id="Steuerung"><path class="cls-5" d="M755.36,435.34h-6.59V388.73H747v46.61h-8.08a3.86,3.86,0,0,0-3.95,3.75v72.77a3.85,3.85,0,0,0,3.95,3.75h16.44a3.85,3.85,0,0,0,3.94-3.75V439.09A3.85,3.85,0,0,0,755.36,435.34Zm3.1,75.77a3.67,3.67,0,0,1-3.67,3.67H739.48a3.67,3.67,0,0,1-3.67-3.67V439.85a3.67,3.67,0,0,1,3.67-3.68h15.31a3.67,3.67,0,0,1,3.67,3.68Z"/><path class="cls-5" d="M753.66,437.85H740.6a3.33,3.33,0,0,0-3.12,3.51v68.23a3.34,3.34,0,0,0,3.12,3.52h13.06a3.34,3.34,0,0,0,3.13-3.52V441.36A3.33,3.33,0,0,0,753.66,437.85Zm-6,68.77a4.16,4.16,0,1,1,4.16-4.16A4.16,4.16,0,0,1,747.64,506.62Zm0-10.85a4.16,4.16,0,1,1,4.16-4.15A4.15,4.15,0,0,1,747.64,495.77Zm0-10.94a4.16,4.16,0,1,1,4.16-4.16A4.16,4.16,0,0,1,747.64,484.83Zm0-10.85a4.16,4.16,0,1,1,4.16-4.16A4.16,4.16,0,0,1,747.64,474Zm0-11.58a4.16,4.16,0,1,1,4.16-4.16A4.16,4.16,0,0,1,747.64,462.4Zm0-11.57a4.16,4.16,0,1,1,4.16-4.16A4.16,4.16,0,0,1,747.64,450.83Z"/><path class="cls-5" d="M615.2,428.77A12.22,12.22,0,0,0,615,431a12.09,12.09,0,1,0,24.17,0,12.22,12.22,0,0,0-.22-2.27Z"/><path class="cls-5" d="M614,425.13h27.51a2.35,2.35,0,0,0,0-4.7h-.66a14.22,14.22,0,0,0-28.22.47,2.38,2.38,0,0,0-.92,1.87A2.34,2.34,0,0,0,614,425.13Z"/><path class="cls-5" d="M672.36,454.22a19.93,19.93,0,0,1,0-29.56l-2.11-2.31a23,23,0,0,0,0,34.15Z"/><path class="cls-5" d="M674.21,452.17l2.09-2.32a14,14,0,0,1,0-20.82l-2.09-2.35a17.22,17.22,0,0,0,0,25.49Z"/><path class="cls-5" d="M678.39,447.54l2.1-2.32a8,8,0,0,1,0-11.57l-2.1-2.31a11,11,0,0,0,0,16.2Z"/><path class="cls-5" d="M702.14,454.22l2.1,2.31a23,23,0,0,0,0-34.18l-2.1,2.31a19.93,19.93,0,0,1,0,29.56Z"/><path class="cls-5" d="M698.21,449.85l2.1,2.32a17.2,17.2,0,0,0,0-25.49l-2.1,2.35a14,14,0,0,1,0,20.82Z"/><path class="cls-5" d="M696.13,447.54a11,11,0,0,0,0-16.2L694,433.65a8,8,0,0,1,0,11.57Z"/><path class="cls-5" d="M688,439.42c0-.6-.52-1.6-1-1.6s-.84,1-.84,1.6l-.27,23.74H667.56v7.35l-8.16-2.7a.54.54,0,0,1-.24-.16L644,446.71H609.72l-8.5,12v33.08a5.59,5.59,0,0,0,11.17,0V464.24a.81.81,0,0,1,.74-.84.86.86,0,0,1,.91.84v73.15a6,6,0,0,0,6.09,6h.08a6,6,0,0,0,6.09-6V501.08a.55.55,0,0,1,.55-.55h1.46a.55.55,0,0,1,.55.55v36.31a6.14,6.14,0,0,0,6.2,6h.08a6.12,6.12,0,0,0,6.17-6V497.47l0-32.44a.55.55,0,0,1,1-.37c3.21,3.53,9.43,11,9.45,11,.78.86,9.67,3.86,15.89,5.92v12.05h38.91V463.16H688.12Z"/></g><g id="Wandbeschaffenehit"><rect class="cls-5" x="17.55" y="15.31" width="28.87" height="1.86" transform="translate(-2.12 27.37) rotate(-44.99)"/><rect class="cls-5" x="17.55" y="29.37" width="28.87" height="1.86" transform="translate(-12.06 31.48) rotate(-44.99)"/><rect class="cls-5" x="17.55" y="43.43" width="28.87" height="1.86" transform="translate(-22 35.6) rotate(-44.99)"/><rect class="cls-5" x="17.55" y="57.49" width="28.87" height="1.86" transform="translate(-31.94 39.71) rotate(-44.99)"/><rect class="cls-5" x="17.55" y="71.55" width="28.87" height="1.86" transform="translate(-41.88 43.83) rotate(-44.99)"/><rect class="cls-5" x="17.55" y="85.61" width="28.87" height="1.86" transform="translate(-51.82 47.95) rotate(-44.99)"/><rect class="cls-5" x="17.56" y="99.67" width="28.86" height="1.86" transform="translate(-61.67 51.9) rotate(-44.89)"/><rect class="cls-5" x="17.55" y="113.73" width="28.87" height="1.86" transform="translate(-71.69 56.18) rotate(-44.99)"/><rect class="cls-5" x="17.55" y="127.79" width="28.87" height="1.86" transform="translate(-81.64 60.29) rotate(-44.99)"/><rect class="cls-5" x="17.56" y="141.85" width="28.86" height="1.86" transform="translate(-91.46 64.22) rotate(-44.9)"/><rect class="cls-5" x="17.55" y="155.91" width="28.87" height="1.86" transform="translate(-101.51 68.53) rotate(-44.99)"/><rect class="cls-5" x="17.55" y="169.97" width="28.87" height="1.86" transform="translate(-111.45 72.64) rotate(-44.99)"/><rect class="cls-5" x="17.55" y="184.03" width="28.87" height="1.86" transform="translate(-121.4 76.77) rotate(-44.99)"/><rect class="cls-5" x="17.55" y="198.09" width="28.87" height="1.86" transform="translate(-131.33 80.87) rotate(-44.99)"/><rect class="cls-5" x="17.56" y="212.15" width="28.86" height="1.86" transform="translate(-141.05 84.69) rotate(-44.89)"/><rect class="cls-5" x="17.55" y="226.21" width="28.87" height="1.86" transform="translate(-151.24 89.15) rotate(-45)"/><rect class="cls-5" x="17.55" y="240.27" width="28.87" height="1.86" transform="translate(-161.19 93.26) rotate(-45)"/><rect class="cls-5" x="17.56" y="254.33" width="28.86" height="1.86" transform="translate(-170.83 96.99) rotate(-44.89)"/><rect class="cls-5" x="17.55" y="268.39" width="28.87" height="1.86" transform="translate(-181 101.42) rotate(-44.98)"/><rect class="cls-5" x="17.55" y="282.45" width="28.87" height="1.86" transform="translate(-191.01 105.62) rotate(-45)"/><polygon class="cls-5" points="22.44 308.3 21.13 306.99 41.54 286.58 42.85 287.9 22.44 308.3"/><rect class="cls-5" x="17.55" y="310.57" width="28.87" height="1.86" transform="translate(-210.9 113.85) rotate(-45)"/><rect class="cls-5" x="17.55" y="324.63" width="28.87" height="1.86" transform="translate(-220.84 117.97) rotate(-45)"/><rect class="cls-5" x="17.56" y="338.69" width="28.86" height="1.86" transform="translate(-230.3 121.52) rotate(-44.88)"/><rect class="cls-5" x="17.55" y="352.75" width="28.87" height="1.86" transform="translate(-240.62 126.09) rotate(-44.97)"/><rect class="cls-5" x="17.55" y="366.81" width="28.87" height="1.86" transform="translate(-250.56 130.2) rotate(-44.97)"/><rect class="cls-5" x="17.56" y="380.87" width="28.86" height="1.86" transform="translate(-260.07 133.81) rotate(-44.88)"/><rect class="cls-5" x="17.55" y="394.93" width="28.87" height="1.86" transform="translate(-270.55 138.56) rotate(-45)"/><rect class="cls-5" x="17.55" y="408.99" width="28.87" height="1.86" transform="translate(-280.49 142.68) rotate(-45)"/><polygon class="cls-5" points="22.44 434.84 21.13 433.53 41.54 413.12 42.85 414.44 22.44 434.84"/><rect class="cls-5" x="17.55" y="437.11" width="28.87" height="1.86" transform="translate(-300.37 150.92) rotate(-45)"/><rect class="cls-5" x="17.55" y="451.17" width="28.87" height="1.86" transform="translate(-310.32 155.04) rotate(-45)"/><rect class="cls-5" x="17.55" y="465.23" width="28.87" height="1.86" transform="translate(-320.26 159.15) rotate(-45)"/><rect class="cls-5" x="17.55" y="479.29" width="28.87" height="1.86" transform="translate(-330.2 163.27) rotate(-45)"/><rect class="cls-5" x="17.55" y="493.35" width="28.87" height="1.86" transform="translate(-340.14 167.39) rotate(-45)"/><rect class="cls-5" x="17.55" y="507.41" width="28.87" height="1.86" transform="translate(-350.09 171.51) rotate(-45)"/><rect class="cls-5" x="17.55" y="521.47" width="28.87" height="1.86" transform="translate(-359.87 175.45) rotate(-44.97)"/><rect class="cls-5" x="17.55" y="535.53" width="28.87" height="1.86" transform="translate(-369.81 179.57) rotate(-44.97)"/></g></svg>