<svg xmlns="http://www.w3.org/2000/svg" viewBox="0 0 768.17 322.63"><defs><style>.cls-1,.cls-3{fill:#005a96;}.cls-2,.cls-4{fill:#fff;}.cls-2{stroke:#005a96;stroke-miterlimit:10;stroke-width:0.81px;}.cls-3,.cls-6{fill-rule:evenodd;}.cls-5,.cls-6{fill:#0aa;}</style></defs><title>Containerkran Vollwand</title><g id="Basis"><rect class="cls-1" x="179.13" y="5.47" width="409.1" height="3.93"/><path class="cls-1" d="M588.23,170.25V12.1H179.13V42.37H579.55V170.44l-3.16,4.07v5.68h5.76a2,2,0,0,0,4,0h5.32v-5.68Z"/><rect class="cls-2" x="348.97" y="16.76" width="60.23" height="15.62"/><polygon class="cls-3" points="356.07 25.12 357.38 25.12 357.38 23.82 353.19 23.82 353.19 25.12 354.5 25.12 354.5 29.71 356.07 29.71 356.07 25.12"/><polygon class="cls-3" points="361.44 25.12 361.44 23.82 357.99 23.82 357.99 29.71 361.44 29.71 361.44 28.41 359.56 28.41 359.56 27.4 361.34 27.4 361.34 26.1 359.56 26.1 359.56 25.12 361.44 25.12"/><rect class="cls-1" x="362.45" y="23.82" width="1.58" height="5.88"/><path class="cls-3" d="M369.42,24a3.94,3.94,0,0,0-1.44-.29,3.37,3.37,0,0,0-2.31.95,3,3,0,0,0-.9,2.15,2.85,2.85,0,0,0,1,2.23,3.45,3.45,0,0,0,2.28.86,4.44,4.44,0,0,0,1.39-.27V27.76a1.83,1.83,0,0,1-1.36.62,1.55,1.55,0,0,1-1.64-1.6A1.57,1.57,0,0,1,368,25.15a1.73,1.73,0,0,1,1.38.65Z"/><polygon class="cls-3" points="372.02 26.09 372.02 23.82 370.44 23.82 370.44 29.71 372.02 29.71 372.02 27.3 374.3 27.3 374.3 29.71 375.88 29.71 375.88 23.82 374.3 23.82 374.3 26.09 372.02 26.09"/><polygon class="cls-3" points="376.98 29.71 378.73 29.71 378.68 26.54 380.13 29.71 381.57 26.52 381.54 29.71 383.27 29.71 383.27 23.81 381.31 23.81 380.14 26.6 378.94 23.81 376.98 23.81 376.98 29.71"/><polygon class="cls-3" points="390.75 29.71 392.33 29.71 392.33 26.1 395.24 29.71 396.81 29.71 396.81 23.82 395.24 23.82 395.24 27.42 392.33 23.82 390.75 23.82 390.75 29.71"/><polygon class="cls-3" points="397.56 29.71 399.14 29.71 399.14 26.1 402.05 29.71 403.63 29.71 403.63 23.82 402.05 23.82 402.05 27.42 399.14 23.82 397.56 23.82 397.56 29.71"/><polygon class="cls-3" points="388.51 29.71 390.19 29.71 387.9 23.82 386.18 23.82 383.84 29.71 385.52 29.71 387.02 25.64 388.51 29.71"/><polygon class="cls-3" points="387.01 19.29 387.01 22.61 387.92 22.61 387.92 21.63 388.25 21.25 389.18 22.61 390.19 22.61 388.83 20.71 390.06 19.29 389.07 19.29 387.93 20.62 387.92 20.62 387.92 19.29 387.01 19.29"/><path class="cls-3" d="M391,22.61h.87v-1.5c0-.34.34-.45.64-.45h.27v-.62h-.16a.92.92,0,0,0-.78.4h0v-.33H391Z"/><path class="cls-3" d="M394.5,20.88v-.07c0-.2.13-.33.4-.33s.4.12.4.31-.09.24-.34.29l-.49.1c-.6.12-.86.31-.86.78a.71.71,0,0,0,.82.71.94.94,0,0,0,.86-.32h0a1,1,0,0,0,.11.26h.83a.76.76,0,0,1-.11-.48V20.81c0-.45-.19-.77-1.22-.77-.66,0-1.19.2-1.19.78v.06Zm.8,1c0,.28-.3.39-.53.39a.31.31,0,0,1-.33-.35c0-.22.14-.35.49-.4a1.49,1.49,0,0,0,.37-.13Z"/><path class="cls-3" d="M397.38,22.61h.87V21c0-.28.16-.41.46-.41s.37.09.37.35v1.72H400V20.75c0-.49-.32-.71-.86-.71a1.07,1.07,0,0,0-.87.36h0v-.29h-.83Z"/><path class="cls-3" d="M403.62,21.46v-.15c0-.77-.22-1.27-1.24-1.27-1.17,0-1.34.63-1.34,1.3s0,1.33,1.31,1.33c.81,0,1.19-.32,1.22-.9h-.78c-.05.31-.17.47-.46.47s-.43-.29-.43-.58v-.2Zm-1.72-.38V21a.44.44,0,0,1,.45-.5c.36,0,.42.21.44.6Z"/><g id="Schild_Teichmann_Krane_6" data-name="Schild Teichmann Krane 6"><rect class="cls-4" x="348.97" y="16.77" width="60.23" height="15.62"/><polygon class="cls-3" points="356.07 25.12 357.38 25.12 357.38 23.82 353.19 23.82 353.19 25.12 354.5 25.12 354.5 29.71 356.07 29.71 356.07 25.12"/><polygon class="cls-3" points="361.44 25.12 361.44 23.82 357.99 23.82 357.99 29.71 361.44 29.71 361.44 28.41 359.56 28.41 359.56 27.4 361.34 27.4 361.34 26.1 359.56 26.1 359.56 25.12 361.44 25.12"/><rect class="cls-1" x="362.45" y="23.82" width="1.58" height="5.88"/><path class="cls-3" d="M369.42,24a3.94,3.94,0,0,0-1.44-.29,3.37,3.37,0,0,0-2.31.95,3,3,0,0,0-.9,2.15,2.85,2.85,0,0,0,1,2.23,3.45,3.45,0,0,0,2.28.86,4.44,4.44,0,0,0,1.39-.27V27.76a1.83,1.83,0,0,1-1.36.62,1.55,1.55,0,0,1-1.64-1.6A1.57,1.57,0,0,1,368,25.15a1.73,1.73,0,0,1,1.38.65Z"/><polygon class="cls-3" points="372.02 26.09 372.02 23.82 370.44 23.82 370.44 29.71 372.02 29.71 372.02 27.3 374.3 27.3 374.3 29.71 375.88 29.71 375.88 23.82 374.3 23.82 374.3 26.09 372.02 26.09"/><polygon class="cls-3" points="376.98 29.71 378.73 29.71 378.68 26.54 380.13 29.71 381.57 26.52 381.54 29.71 383.27 29.71 383.27 23.81 381.31 23.81 380.14 26.6 378.94 23.81 376.98 23.81 376.98 29.71"/><polygon class="cls-3" points="390.75 29.71 392.33 29.71 392.33 26.1 395.24 29.71 396.81 29.71 396.81 23.82 395.24 23.82 395.24 27.42 392.33 23.82 390.75 23.82 390.75 29.71"/><polygon class="cls-3" points="397.56 29.71 399.14 29.71 399.14 26.1 402.05 29.71 403.63 29.71 403.63 23.82 402.05 23.82 402.05 27.42 399.14 23.82 397.56 23.82 397.56 29.71"/><polygon class="cls-3" points="388.51 29.71 390.19 29.71 387.9 23.82 386.18 23.82 383.84 29.71 385.52 29.71 387.02 25.64 388.51 29.71"/><polygon class="cls-3" points="387.01 19.29 387.01 22.61 387.92 22.61 387.92 21.63 388.25 21.25 389.18 22.61 390.19 22.61 388.83 20.71 390.06 19.29 389.07 19.29 387.93 20.62 387.92 20.62 387.92 19.29 387.01 19.29"/><path class="cls-3" d="M391,22.61h.87v-1.5c0-.34.34-.45.64-.45h.27v-.62h-.16a.92.92,0,0,0-.78.4h0v-.33H391Z"/><path class="cls-3" d="M394.5,20.88v-.07c0-.2.13-.33.4-.33s.4.12.4.31-.09.24-.34.29l-.49.1c-.6.12-.86.31-.86.78a.71.71,0,0,0,.82.71.94.94,0,0,0,.86-.32h0a1,1,0,0,0,.11.26h.83a.76.76,0,0,1-.11-.48V20.81c0-.45-.19-.77-1.22-.77-.66,0-1.19.2-1.19.78v.06Zm.8,1c0,.28-.3.39-.53.39a.31.31,0,0,1-.33-.35c0-.22.14-.35.49-.4a1.49,1.49,0,0,0,.37-.13Z"/><path class="cls-3" d="M397.38,22.61h.87V21c0-.28.16-.41.46-.41s.37.09.37.35v1.72H400V20.75c0-.49-.32-.71-.86-.71a1.07,1.07,0,0,0-.87.36h0v-.29h-.83Z"/><path class="cls-3" d="M403.62,21.46v-.15c0-.77-.22-1.27-1.24-1.27-1.17,0-1.34.63-1.34,1.3s0,1.33,1.31,1.33c.81,0,1.19-.32,1.22-.9h-.78c-.05.31-.17.47-.46.47s-.43-.29-.43-.58v-.2Zm-1.72-.38V21a.44.44,0,0,1,.45-.5c.36,0,.42.21.44.6Z"/></g><rect class="cls-5" x="104.01" y="49.7" width="1.24" height="123.59"/><polygon class="cls-5" points="98.08 54.99 111.18 54.99 104.63 44.41 98.08 54.99"/><polygon class="cls-5" points="98.08 168.76 111.18 168.76 104.63 179.34 98.08 168.76"/><rect class="cls-5" x="639.71" y="49.7" width="1.24" height="123.59"/><polygon class="cls-5" points="633.78 54.99 646.88 54.99 640.32 44.41 633.78 54.99"/><polygon class="cls-5" points="633.78 168.76 646.88 168.76 640.32 179.34 633.78 168.76"/><rect class="cls-5" x="192.63" y="191.79" width="1.24" height="50.19"/><polygon class="cls-5" points="186.7 195.79 199.8 195.79 193.25 185.22 186.7 195.79"/><polygon class="cls-5" points="186.7 236.7 199.8 236.7 193.25 247.27 186.7 236.7"/><polygon class="cls-1" points="204.38 289.12 205.31 290.02 219.74 276.03 218.81 275.13 204.38 289.12"/><polygon class="cls-1" points="204.38 298.75 205.31 299.66 219.74 285.67 218.81 284.76 204.38 298.75"/><polygon class="cls-1" points="204.38 308.39 205.31 309.29 219.74 295.3 218.81 294.4 204.38 308.39"/><polygon class="cls-1" points="204.38 318.02 205.31 318.93 219.74 304.94 218.81 304.03 204.38 318.02"/><polygon class="cls-1" points="219.51 314.61 218.58 313.71 213.43 318.7 215.29 318.7 219.51 314.61"/><polygon class="cls-1" points="204.38 202.31 205.31 203.22 219.74 189.23 218.81 188.33 204.38 202.31"/><polygon class="cls-1" points="214.32 202.31 204.38 211.95 205.31 212.85 216.75 201.76 219.74 198.86 219.74 197.06 214.32 202.31"/><polygon class="cls-1" points="204.38 221.58 205.31 222.49 219.74 208.5 218.81 207.6 204.38 221.58"/><polygon class="cls-1" points="204.38 231.22 205.31 232.12 219.74 218.13 218.81 217.23 204.38 231.22"/><polygon class="cls-1" points="204.38 240.85 205.31 241.76 219.74 227.77 218.81 226.87 204.38 240.85"/><polygon class="cls-1" points="204.38 250.49 205.31 251.39 219.74 237.4 218.81 236.5 204.38 250.49"/><polygon class="cls-1" points="204.38 260.12 205.31 261.02 219.74 247.04 218.81 246.14 204.38 260.12"/><polygon class="cls-1" points="204.38 269.76 205.31 270.66 219.74 256.67 218.81 255.77 204.38 269.76"/><polygon class="cls-1" points="204.38 279.39 205.31 280.3 219.74 266.31 218.81 265.41 204.38 279.39"/><polygon class="cls-1" points="212.06 188.78 211.13 187.88 203.91 194.87 204.84 195.77 212.06 188.78"/><path class="cls-1" d="M150.09,240.25H117.68V204.36h32.41ZM118.92,239h29.93V205.57H118.92Z"/><path class="cls-1" d="M115.32,240.25H82.9V204.36h32.42ZM84.14,239h29.94V205.57H84.14Z"/><path class="cls-1" d="M79.72,240.25H47.3V204.36H79.72ZM48.54,239H78.47V205.57H48.54Z"/><path class="cls-3" d="M37.82,198.09V254.3l8.89,12.4c1.24,3.55-.7,5.51,5.7,7.95,18.65,7.09,48.41,13.12,48.41,13.12s25.76-5.89,42.64-13.12c5.74-2.46,3.93-3.08,6-7.76l9.7-12.56V198.09Zm2.49,55V201.2H156.68v51.87l0,0Z"/><path class="cls-3" d="M113.54,293.61a7.92,7.92,0,0,0-2.36-2.1,26.82,26.82,0,0,0-5.61-2.56c-.53-.19-1.07-.36-1.6-.54a.6.6,0,0,1-.45-.66,6.58,6.58,0,0,0-.06-1,.57.57,0,0,1,.27-.62l.39-.19a11.37,11.37,0,0,0,2.77-1.6,5.77,5.77,0,0,0,2.11-6.1,8.78,8.78,0,0,0-3-4.81,5.79,5.79,0,0,0-2.56-1.34,2.71,2.71,0,0,0-2.86,1,4.89,4.89,0,0,0-.85,1.94,11.16,11.16,0,0,0-.28,2.7,25.2,25.2,0,0,0,.34,3.88c.16.94.36,1.87.53,2.8a.57.57,0,0,1-.33.66,8.6,8.6,0,0,0-.9.58.62.62,0,0,1-.71.05l-.33-.22A12.1,12.1,0,0,0,95.22,284a6.49,6.49,0,0,0-3.15-.34,6.4,6.4,0,0,0-3.6,1.83,8.84,8.84,0,0,0-2.37,3.95,6.21,6.21,0,0,0-.15,3.47,2.75,2.75,0,0,0,2.82,2.06,7.76,7.76,0,0,0,3.14-.84,21.18,21.18,0,0,0,4.24-2.67c.8-.62,1.57-1.28,2.35-1.92a.63.63,0,0,1,.82-.08,7.83,7.83,0,0,0,.92.45.58.58,0,0,1,.43.61c0,.22,0,.44,0,.66a9.53,9.53,0,0,0,.12,3.06,5.82,5.82,0,0,0,3.4,4.22,8.66,8.66,0,0,0,4.18.73v.05c.68-.13,1.37-.21,2-.38a6.16,6.16,0,0,0,2.93-1.57,2.57,2.57,0,0,0,.86-1.91A2.93,2.93,0,0,0,113.54,293.61Z"/><path class="cls-4" d="M107.94,299.67v-.12a8.78,8.78,0,0,1-4-.78,6.25,6.25,0,0,1-3.63-4.5,9.8,9.8,0,0,1-.13-3.18c0-.26,0-.45.06-.64s0-.14-.18-.22a8.92,8.92,0,0,1-1-.48.25.25,0,0,0-.33,0l-.64.53c-.57.48-1.14.95-1.72,1.4a22.36,22.36,0,0,1-4.32,2.73,8,8,0,0,1-3.31.87A3.18,3.18,0,0,1,85.55,293a6.49,6.49,0,0,1,.15-3.68,9.31,9.31,0,0,1,2.48-4.12,6.83,6.83,0,0,1,3.83-2l.22,0a7.17,7.17,0,0,1,3.13.39,12.65,12.65,0,0,1,2.91,1.57,3.28,3.28,0,0,0,.31.2.18.18,0,0,0,.11,0,.42.42,0,0,0,.13-.07c.34-.24.65-.43.94-.6s.15-.14.14-.24l-.19-.94c-.12-.62-.24-1.24-.34-1.86a24.2,24.2,0,0,1-.35-3.95,12.18,12.18,0,0,1,.28-2.79,5.12,5.12,0,0,1,.94-2.09,3.1,3.1,0,0,1,3.27-1.13,6.14,6.14,0,0,1,2.75,1.43,9.23,9.23,0,0,1,3.14,5,6.12,6.12,0,0,1-2.24,6.48,11.94,11.94,0,0,1-2.86,1.67,2.46,2.46,0,0,0-.36.17s-.09.05-.07.21a8.5,8.5,0,0,1,.07,1.05c0,.22,0,.24.16.28l.57.19,1,.35a27.75,27.75,0,0,1,5.7,2.6,8.54,8.54,0,0,1,2.48,2.21,3.44,3.44,0,0,1,.68,1.95,3,3,0,0,1-1,2.19,6.47,6.47,0,0,1-3.13,1.67c-.48.13-1,.21-1.44.29l-.62.1Zm-9.1-10.77a1.19,1.19,0,0,1,.69.16,8,8,0,0,0,.88.44,1,1,0,0,1,.67,1c0,.2,0,.4,0,.6a9.54,9.54,0,0,0,.11,3,5.42,5.42,0,0,0,3.18,3.95,8.25,8.25,0,0,0,4,.69l.37,0,.22,0c.48-.08.93-.16,1.37-.27A5.84,5.84,0,0,0,113,297a2.24,2.24,0,0,0,.74-1.64,2.53,2.53,0,0,0-.54-1.49,7.39,7.39,0,0,0-2.25-2,26.18,26.18,0,0,0-5.52-2.52l-1-.34-.58-.19a1,1,0,0,1-.72-1.05,8.44,8.44,0,0,0-.06-.93,1,1,0,0,1,.47-1l.39-.18a11.63,11.63,0,0,0,2.71-1.57,5.38,5.38,0,0,0,2-5.7,8.4,8.4,0,0,0-2.88-4.6,5.24,5.24,0,0,0-2.37-1.24,2.27,2.27,0,0,0-2.45.83,4.53,4.53,0,0,0-.78,1.78,11.18,11.18,0,0,0-.26,2.61,23.58,23.58,0,0,0,.33,3.82c.11.61.23,1.22.35,1.83l.18,1a1,1,0,0,1-.53,1.07c-.27.15-.55.34-.87.56a1,1,0,0,1-1.17.07l-.35-.23a11.4,11.4,0,0,0-2.71-1.47,6.11,6.11,0,0,0-2.76-.35l-.19,0a6.05,6.05,0,0,0-3.37,1.72,8.54,8.54,0,0,0-2.26,3.78,5.72,5.72,0,0,0-.15,3.25,2.36,2.36,0,0,0,2.41,1.77,7,7,0,0,0,3-.8,20.82,20.82,0,0,0,4.16-2.62c.58-.45,1.14-.92,1.7-1.38l.64-.54A1.16,1.16,0,0,1,98.84,288.9Z"/><path class="cls-1" d="M181.2,244.31a5.41,5.41,0,0,0-4.11,1.77,4.1,4.1,0,0,1-3.1,1.31h0a4.1,4.1,0,0,1-3.1-1.31,5.65,5.65,0,0,0-8.21,0,4.13,4.13,0,0,1-3.11,1.31h0a4.11,4.11,0,0,1-3.1-1.31,5.65,5.65,0,0,0-8.21,0,4.1,4.1,0,0,1-3.1,1.31h0a4.1,4.1,0,0,1-3.1-1.31,5.66,5.66,0,0,0-8.22,0,4.32,4.32,0,0,1-6.2,0,5.65,5.65,0,0,0-8.21,0,4.33,4.33,0,0,1-6.21,0,5.65,5.65,0,0,0-8.21,0,4.32,4.32,0,0,1-6.2,0,5.65,5.65,0,0,0-8.21,0,4.33,4.33,0,0,1-6.21,0,5.65,5.65,0,0,0-8.21,0,4.33,4.33,0,0,1-6.21,0,5.65,5.65,0,0,0-8.21,0,4.32,4.32,0,0,1-6.2,0,5.65,5.65,0,0,0-8.21,0,4.33,4.33,0,0,1-6.21,0,5.65,5.65,0,0,0-8.21,0,4.33,4.33,0,0,1-6.21,0,5.39,5.39,0,0,0-4.1-1.77h0a5.41,5.41,0,0,0-4.11,1.77,4.1,4.1,0,0,1-3.1,1.31l-.27,0v1.29h.27a5.41,5.41,0,0,0,4.11-1.77,4.1,4.1,0,0,1,3.1-1.31h0a4.1,4.1,0,0,1,3.1,1.31,5.65,5.65,0,0,0,8.21,0,4.33,4.33,0,0,1,6.21,0,5.65,5.65,0,0,0,8.21,0,4.32,4.32,0,0,1,6.2,0,5.66,5.66,0,0,0,8.22,0,4.32,4.32,0,0,1,6.2,0,5.65,5.65,0,0,0,8.21,0,4.33,4.33,0,0,1,6.21,0,5.65,5.65,0,0,0,8.21,0,4.32,4.32,0,0,1,6.2,0,5.65,5.65,0,0,0,8.21,0,4.33,4.33,0,0,1,6.21,0,5.39,5.39,0,0,0,4.11,1.77h0a5.39,5.39,0,0,0,4.1-1.77,4.33,4.33,0,0,1,6.21,0,5.65,5.65,0,0,0,8.21,0,4.32,4.32,0,0,1,6.2,0,5.41,5.41,0,0,0,4.11,1.77h0a5.39,5.39,0,0,0,4.1-1.77,4.33,4.33,0,0,1,6.21,0,5.39,5.39,0,0,0,4.1,1.77h0a5.39,5.39,0,0,0,4.11-1.77,4.33,4.33,0,0,1,6.21,0,5.39,5.39,0,0,0,4.1,1.77h0a5.41,5.41,0,0,0,4.11-1.77,4.1,4.1,0,0,1,3.1-1.31,4.45,4.45,0,0,1,1.47.26V244.5A5.92,5.92,0,0,0,181.2,244.31Z"/></g><g id="Ausladung"><rect class="cls-5" x="58.57" y="182.29" width="172.93" height="1.2"/><polygon class="cls-5" points="61.03 176.55 61.03 189.24 50.11 182.89 61.03 176.55"/><polygon class="cls-5" points="224.44 176.55 224.44 189.24 235.36 182.89 224.44 176.55"/><path class="cls-5" d="M3.93,31.3V42.37H35V45.6l1.79,1.07h0v2.87H41V79.59a4.26,4.26,0,0,0-.62,2.2,4.36,4.36,0,0,0,3.12,4.14H40.32L35,83.59V119.8H63.32V83.59L58,85.93h-3.2a4.36,4.36,0,0,0,3.12-4.14,4.17,4.17,0,0,0-.51-2V49.54h5.37v-3.1H61.55V45.6h2.66l.4-.59V42.37H178.28V12.1H24.1ZM41.57,78.82V49.54h7V79.31a4.58,4.58,0,0,0-7-.49Zm7.55,4.26A4.42,4.42,0,0,0,52,85.93H46.2A4.4,4.4,0,0,0,49.12,83.08ZM62.39,91V118.9H35.9V91ZM56.8,79a4.58,4.58,0,0,0-7,.3V49.54h7Z"/><polygon class="cls-5" points="31.53 5.47 27.4 9.4 178.28 9.4 178.28 5.47 31.53 5.47"/><rect class="cls-5" x="600.07" y="182.29" width="110.93" height="1.2"/><polygon class="cls-5" points="602.52 176.55 602.52 189.24 591.6 182.89 602.52 176.55"/><polygon class="cls-5" points="705.49 176.55 705.49 189.24 716.41 182.89 705.49 176.55"/><path class="cls-5" d="M763.39,31.28l-20.17-19.2H589V42.35H700.65V45.6l1.78,1.07h0v2.87h4.23V79.59a4.26,4.26,0,0,0-.62,2.2,4.36,4.36,0,0,0,3.12,4.14H706l-5.34-2.34V119.8H729V83.59l-5.34,2.34h-3.2a4.37,4.37,0,0,0,3.12-4.14,4.17,4.17,0,0,0-.51-2V49.54h5.37v-3.1h-1.21V45.6h2.66l.4-.59V42.35h33.09ZM707.25,78.82V49.54h7V79.31a4.59,4.59,0,0,0-7-.49Zm7.56,4.26a4.4,4.4,0,0,0,2.92,2.85h-5.84A4.4,4.4,0,0,0,714.81,83.08ZM728.08,91V118.9H701.59V91Zm-5.6-12a4.57,4.57,0,0,0-7,.3V49.54h7Z"/><polygon class="cls-5" points="735.79 5.45 589.04 5.45 589.04 9.38 739.92 9.38 735.79 5.45"/></g><g id="Spurweite"><rect class="cls-5" x="259.77" y="182.29" width="308.11" height="1.2"/><polygon class="cls-5" points="262.22 176.55 262.22 189.24 251.31 182.89 262.22 176.55"/><polygon class="cls-5" points="564.74 176.55 564.74 189.24 575.65 182.89 564.74 176.55"/></g><g id="Traglast"><path class="cls-5" d="M381.32,40.87h-2.66V39.79h-24.8l-1.79,1V45.6l1.79,1.07h0v2.87h4.22V79.59a4.26,4.26,0,0,0-.62,2.2,4.36,4.36,0,0,0,3.12,4.14h-3.15l-5.35-2.34V119.8h28.36V83.59l-5.35,2.34h-3.2A4.36,4.36,0,0,0,375,81.79a4.17,4.17,0,0,0-.51-2V49.54h5.38v-3.1h-1.22V45.6h2.66l.4-.59V41.46ZM358.68,78.82V49.54h6.95V79.31a4.58,4.58,0,0,0-6.95-.49Zm7.56,4.26a4.39,4.39,0,0,0,2.91,2.85h-5.83A4.42,4.42,0,0,0,366.24,83.08ZM379.5,91V118.9H353V91Zm-5.59-12a4.57,4.57,0,0,0-7,.3V49.54h7Z"/></g><g id="Hubhöhe"><path class="cls-6" d="M352.08,123.63v59.43h28.36V123.63Zm27.42,58.52H353V124.54H379.5Z"/><path class="cls-5" d="M381.32,40.87h-2.66V39.79h-24.8l-1.79,1V45.6l1.79,1.07h0v2.87h4.22V79.59a4.26,4.26,0,0,0-.62,2.2,4.36,4.36,0,0,0,3.12,4.14h-3.15l-5.35-2.34V119.8h28.36V83.59l-5.35,2.34h-3.2A4.36,4.36,0,0,0,375,81.79a4.17,4.17,0,0,0-.51-2V49.54h5.38v-3.1h-1.22V45.6h2.66l.4-.59V41.46ZM358.68,78.82V49.54h6.95V79.31a4.58,4.58,0,0,0-6.95-.49Zm7.56,4.26a4.39,4.39,0,0,0,2.91,2.85h-5.83A4.42,4.42,0,0,0,366.24,83.08ZM379.5,91V118.9H353V91Zm-5.59-12a4.57,4.57,0,0,0-7,.3V49.54h7Z"/></g><g id="Feststützenanordnung"><path class="cls-5" d="M250.87,174.51l-2.59-3.7L248.2,42.37h-8.68l.07,111.24L197.72,42.37h-5.67L239.6,168.72v2.13L237,174.51v5.68h5a2,2,0,0,0,4,0h5Z"/></g><g id="Steuerung"><g id="Krankabine_2" data-name="Krankabine 2"><path class="cls-5" d="M274.09,44.49V90.08l29.84,0,9-45.71Zm28.57,43.42-26.31,0V46.67l34.43,0Z"/><path class="cls-5" d="M297.35,83.08l-4.89-9.41a1.71,1.71,0,0,0-1.76-.89l-.25,0h-2.92a4.49,4.49,0,0,0,.57-2.21V63.16a4.69,4.69,0,0,0-2.92-4.31,4.33,4.33,0,0,0,2.53-3.9,4.5,4.5,0,0,0-9,0,4.33,4.33,0,0,0,2.33,3.81,4.69,4.69,0,0,0-3.18,4.4V73.5a3,3,0,0,0,.05.55,1.36,1.36,0,0,0-.05.36,1.68,1.68,0,0,0,1.71,1.65h10.3l4.42,8.51a1.73,1.73,0,0,0,2.29.73A1.64,1.64,0,0,0,297.35,83.08Z"/></g><path class="cls-5" d="M525.4,141h-2.5V123.88h-.68V141h-3.07a1.44,1.44,0,0,0-1.49,1.38v26.78a1.44,1.44,0,0,0,1.49,1.38h6.25a1.44,1.44,0,0,0,1.49-1.38V142.41A1.44,1.44,0,0,0,525.4,141Zm1.18,27.88a1.37,1.37,0,0,1-1.4,1.35h-5.81a1.37,1.37,0,0,1-1.4-1.35V142.69a1.38,1.38,0,0,1,1.4-1.35h5.81a1.38,1.38,0,0,1,1.4,1.35Z"/><path class="cls-5" d="M524.75,142h-5a1.24,1.24,0,0,0-1.18,1.3v25.1a1.24,1.24,0,0,0,1.18,1.3h5a1.25,1.25,0,0,0,1.19-1.3v-25.1A1.25,1.25,0,0,0,524.75,142Zm-2.28,25.31a1.53,1.53,0,1,1,1.58-1.53A1.55,1.55,0,0,1,522.47,167.26Zm0-4a1.53,1.53,0,1,1,1.58-1.53A1.55,1.55,0,0,1,522.47,163.27Zm0-4a1.53,1.53,0,1,1,1.58-1.53A1.55,1.55,0,0,1,522.47,159.24Zm0-4a1.53,1.53,0,1,1,1.58-1.53A1.55,1.55,0,0,1,522.47,155.25Zm0-4.26a1.53,1.53,0,1,1,1.58-1.53A1.55,1.55,0,0,1,522.47,151Zm0-4.26a1.53,1.53,0,1,1,1.58-1.53A1.55,1.55,0,0,1,522.47,146.73Z"/><path class="cls-5" d="M472.17,138.62a4.58,4.58,0,0,0-.08.83,4.59,4.59,0,0,0,9.18,0,3.84,3.84,0,0,0-.09-.83Z"/><path class="cls-5" d="M471.71,137.28h10.45a.87.87,0,1,0,0-1.73h-.25a5.42,5.42,0,0,0-10.71.17.84.84,0,0,0-.35.69A.88.88,0,0,0,471.71,137.28Z"/><path class="cls-5" d="M493.88,148a7.2,7.2,0,0,1,0-10.88l-.8-.85a8.3,8.3,0,0,0,0,12.57Z"/><path class="cls-5" d="M494.58,147.23l.79-.86a5,5,0,0,1,0-7.66l-.79-.87a6.22,6.22,0,0,0,0,9.39Z"/><path class="cls-5" d="M496.17,145.52l.8-.85a2.89,2.89,0,0,1,0-4.26l-.8-.85a3.94,3.94,0,0,0,0,6Z"/><path class="cls-5" d="M505.19,148l.79.85a8.29,8.29,0,0,0,0-12.58l-.79.85a7.19,7.19,0,0,1,0,10.88Z"/><path class="cls-5" d="M503.7,146.37l.79.86a6.2,6.2,0,0,0,0-9.39l-.79.87a5.07,5.07,0,0,1,0,7.66Z"/><path class="cls-5" d="M502.9,145.52a3.94,3.94,0,0,0,0-6l-.8.85a2.89,2.89,0,0,1,0,4.26Z"/><path class="cls-5" d="M499.81,142.54c0-.23-.19-.6-.37-.6s-.32.37-.32.6l-.1,8.73h-7V154l-3.1-1a.15.15,0,0,1-.09-.06l-5.78-7.7h-13l-3.23,4.4v12.17a2.13,2.13,0,0,0,4.24,0V151.67a.31.31,0,0,1,.29-.31.32.32,0,0,1,.34.31v26.91a2.26,2.26,0,0,0,2.32,2.2h0a2.26,2.26,0,0,0,2.32-2.2V165.22a.2.2,0,0,1,.21-.2h.55a.2.2,0,0,1,.21.2v13.36a2.29,2.29,0,0,0,2.35,2.2h0a2.29,2.29,0,0,0,2.35-2.2V163.89l0-11.93a.21.21,0,0,1,.36-.14c1.22,1.3,3.58,4,3.59,4a44.79,44.79,0,0,0,6,2.18v4.43h14.77v-11.2h-7Z"/></g></svg>