<svg xmlns="http://www.w3.org/2000/svg" viewBox="0 0 767 257.76"><defs><style>.cls-1,.cls-3{fill:#005a96;}.cls-2,.cls-4{fill:#fff;}.cls-2{stroke:#005a96;stroke-miterlimit:10;stroke-width:0.82px;}.cls-3{fill-rule:evenodd;}.cls-5{fill:#0aa;}</style></defs><title>Portalkran_Vollwand_rechts</title><g id="Basis"><rect class="cls-1" x="179.74" y="4.38" width="407.08" height="4.03"/><path class="cls-1" d="M586.82,173.6V11.19H179.74V42.27H578.18V173.8L575,178v5.84h5.74a2,2,0,0,0,4,0H590V178Z"/><rect class="cls-2" x="348.74" y="15.97" width="59.93" height="16.05"/><polygon class="cls-3" points="355.81 24.55 357.11 24.55 357.11 23.22 352.94 23.22 352.94 24.55 354.24 24.55 354.24 29.27 355.81 29.27 355.81 24.55"/><polygon class="cls-3" points="361.15 24.55 361.15 23.22 357.71 23.22 357.71 29.27 361.15 29.27 361.15 27.93 359.29 27.93 359.29 26.89 361.06 26.89 361.06 25.56 359.29 25.56 359.29 24.55 361.15 24.55"/><rect class="cls-1" x="362.16" y="23.22" width="1.57" height="6.04"/><path class="cls-3" d="M369.09,23.37a3.71,3.71,0,0,0-1.43-.31,3.27,3.27,0,0,0-2.3,1,3.15,3.15,0,0,0-.89,2.21,3,3,0,0,0,1,2.29,3.36,3.36,0,0,0,2.27.89,4.41,4.41,0,0,0,1.38-.28V27.26a1.81,1.81,0,0,1-1.35.64,1.57,1.57,0,0,1-1.64-1.64,1.59,1.59,0,0,1,1.62-1.67,1.7,1.7,0,0,1,1.37.66Z"/><polygon class="cls-3" points="371.68 25.55 371.68 23.22 370.1 23.22 370.1 29.27 371.68 29.27 371.68 26.79 373.94 26.79 373.94 29.27 375.51 29.27 375.51 23.22 373.94 23.22 373.94 25.55 371.68 25.55"/><polygon class="cls-3" points="376.61 29.27 378.35 29.27 378.3 26.01 379.74 29.27 381.17 26 381.14 29.27 382.87 29.27 382.87 23.21 380.92 23.21 379.76 26.08 378.56 23.21 376.61 23.21 376.61 29.27"/><polygon class="cls-3" points="390.31 29.27 391.88 29.27 391.88 25.56 394.77 29.27 396.34 29.27 396.34 23.22 394.77 23.22 394.77 26.92 391.88 23.22 390.31 23.22 390.31 29.27"/><polygon class="cls-3" points="397.09 29.27 398.66 29.27 398.66 25.56 401.55 29.27 403.12 29.27 403.12 23.22 401.55 23.22 401.55 26.92 398.66 23.22 397.09 23.22 397.09 29.27"/><polygon class="cls-3" points="388.08 29.27 389.75 29.27 387.48 23.22 385.76 23.22 383.44 29.27 385.1 29.27 386.6 25.09 388.08 29.27"/><polygon class="cls-3" points="386.59 18.57 386.59 21.98 387.49 21.98 387.49 20.97 387.82 20.58 388.75 21.98 389.76 21.98 388.4 20.03 389.62 18.57 388.64 18.57 387.5 19.93 387.49 19.93 387.49 18.57 386.59 18.57"/><path class="cls-3" d="M390.56,22h.86V20.43c0-.34.34-.46.64-.46h.27v-.63h-.16a.89.89,0,0,0-.77.41h0v-.34h-.82Z"/><path class="cls-3" d="M394,20.2v-.07c0-.21.13-.34.4-.34s.4.12.4.32-.09.24-.34.3l-.49.1c-.6.12-.85.32-.85.8A.72.72,0,0,0,394,22a.92.92,0,0,0,.86-.33h0A.77.77,0,0,0,395,22h.82a.91.91,0,0,1-.1-.5V20.13c0-.46-.2-.79-1.22-.79-.66,0-1.19.2-1.19.79v.07Zm.8,1c0,.28-.3.4-.53.4a.32.32,0,0,1-.33-.36c0-.23.14-.36.49-.42a1.17,1.17,0,0,0,.37-.13Z"/><path class="cls-3" d="M396.91,22h.86V20.27c0-.28.17-.42.46-.42s.37.1.37.36V22h.87V20.07c0-.5-.32-.73-.86-.73a1,1,0,0,0-.86.37h0v-.3h-.83Z"/><path class="cls-3" d="M403.12,20.79v-.14c0-.79-.23-1.31-1.23-1.31-1.17,0-1.34.64-1.34,1.33s.05,1.37,1.3,1.37c.81,0,1.19-.33,1.22-.93h-.78c-.05.32-.17.49-.45.49s-.43-.3-.43-.6v-.21Zm-1.71-.39v-.1c0-.24.1-.51.44-.51s.42.22.44.61Z"/><g id="Schild_Teichmann_Krane_6" data-name="Schild Teichmann Krane 6"><rect class="cls-4" x="348.74" y="15.98" width="59.93" height="16.04"/><polygon class="cls-3" points="355.81 24.55 357.11 24.55 357.11 23.22 352.94 23.22 352.94 24.55 354.24 24.55 354.24 29.27 355.81 29.27 355.81 24.55"/><polygon class="cls-3" points="361.15 24.55 361.15 23.22 357.71 23.22 357.71 29.27 361.15 29.27 361.15 27.93 359.29 27.93 359.29 26.89 361.06 26.89 361.06 25.56 359.29 25.56 359.29 24.55 361.15 24.55"/><rect class="cls-1" x="362.16" y="23.22" width="1.57" height="6.04"/><path class="cls-3" d="M369.09,23.37a3.71,3.71,0,0,0-1.43-.31,3.27,3.27,0,0,0-2.3,1,3.15,3.15,0,0,0-.89,2.21,3,3,0,0,0,1,2.29,3.36,3.36,0,0,0,2.27.89,4.41,4.41,0,0,0,1.38-.28V27.26a1.81,1.81,0,0,1-1.35.64,1.57,1.57,0,0,1-1.64-1.64,1.59,1.59,0,0,1,1.62-1.67,1.7,1.7,0,0,1,1.37.66Z"/><polygon class="cls-3" points="371.68 25.55 371.68 23.22 370.1 23.22 370.1 29.27 371.68 29.27 371.68 26.79 373.94 26.79 373.94 29.27 375.51 29.27 375.51 23.22 373.94 23.22 373.94 25.55 371.68 25.55"/><polygon class="cls-3" points="376.61 29.27 378.35 29.27 378.3 26.01 379.74 29.27 381.17 26 381.14 29.27 382.87 29.27 382.87 23.21 380.92 23.21 379.76 26.08 378.56 23.21 376.61 23.21 376.61 29.27"/><polygon class="cls-3" points="390.31 29.27 391.88 29.27 391.88 25.56 394.77 29.27 396.34 29.27 396.34 23.22 394.77 23.22 394.77 26.92 391.88 23.22 390.31 23.22 390.31 29.27"/><polygon class="cls-3" points="397.09 29.27 398.66 29.27 398.66 25.56 401.55 29.27 403.12 29.27 403.12 23.22 401.55 23.22 401.55 26.92 398.66 23.22 397.09 23.22 397.09 29.27"/><polygon class="cls-3" points="388.08 29.27 389.75 29.27 387.48 23.22 385.76 23.22 383.44 29.27 385.1 29.27 386.6 25.09 388.08 29.27"/><polygon class="cls-3" points="386.59 18.57 386.59 21.98 387.49 21.98 387.49 20.97 387.82 20.58 388.75 21.98 389.76 21.98 388.4 20.03 389.62 18.57 388.64 18.57 387.5 19.93 387.49 19.93 387.49 18.57 386.59 18.57"/><path class="cls-3" d="M390.56,22h.86V20.43c0-.34.34-.46.64-.46h.27v-.63h-.16a.89.89,0,0,0-.77.41h0v-.34h-.82Z"/><path class="cls-3" d="M394,20.2v-.07c0-.21.13-.34.4-.34s.4.12.4.32-.09.24-.34.3l-.49.1c-.6.12-.85.32-.85.8A.72.72,0,0,0,394,22a.92.92,0,0,0,.86-.33h0A.77.77,0,0,0,395,22h.82a.91.91,0,0,1-.1-.5V20.13c0-.46-.2-.79-1.22-.79-.66,0-1.19.2-1.19.79v.07Zm.8,1c0,.28-.3.4-.53.4a.32.32,0,0,1-.33-.36c0-.23.14-.36.49-.42a1.17,1.17,0,0,0,.37-.13Z"/><path class="cls-3" d="M396.91,22h.86V20.27c0-.28.17-.42.46-.42s.37.1.37.36V22h.87V20.07c0-.5-.32-.73-.86-.73a1,1,0,0,0-.86.37h0v-.3h-.83Z"/><path class="cls-3" d="M403.12,20.79v-.14c0-.79-.23-1.31-1.23-1.31-1.17,0-1.34.64-1.34,1.33s.05,1.37,1.3,1.37c.81,0,1.19-.33,1.22-.93h-.78c-.05.32-.17.49-.45.49s-.43-.3-.43-.6v-.21Zm-1.71-.39v-.1c0-.24.1-.51.44-.51s.42.22.44.61Z"/></g></g><g id="Hubhöhe"><rect class="cls-5" x="388.32" y="86.93" width="1.24" height="93.14"/><polygon class="cls-5" points="382.42 92.36 395.46 92.36 388.93 81.5 382.42 92.36"/><polygon class="cls-5" points="382.42 174.59 395.46 174.59 388.93 185.46 382.42 174.59"/><rect class="cls-5" x="388.2" y="196.6" width="1.24" height="51.54"/><polygon class="cls-5" points="382.3 200.71 395.34 200.71 388.82 189.85 382.3 200.71"/><polygon class="cls-5" points="382.3 242.72 395.34 242.72 388.82 253.58 382.3 242.72"/></g><g id="Ausladung"><path class="cls-5" d="M237.09,178l2.57-3.8.08-131.9h8.64l-.08,114.24L290,42.27h5.65L248.3,172v2.19l2.62,3.76v5.84H246a2,2,0,0,1-4,0h-4.92Z"/><rect class="cls-5" x="60.57" y="186.82" width="172.08" height="1.24"/><polygon class="cls-5" points="63.02 180.92 63.02 193.96 52.15 187.44 63.02 180.92"/><polygon class="cls-5" points="225.63 180.92 225.63 193.96 236.49 187.44 225.63 180.92"/><rect class="cls-5" x="598.58" y="186.82" width="106.56" height="1.24"/><polygon class="cls-5" points="601.02 180.92 601.02 193.96 590.16 187.44 601.02 180.92"/><polygon class="cls-5" points="705.13 180.92 705.13 193.96 716 187.44 705.13 180.92"/><path class="cls-5" d="M5.4,30.9V42.27h29v3.6l2.11,1.3h0v3.5H47.65l.79,9.85a5.35,5.35,0,0,0,2,9.32v.94h-.11c0,.59,0,1.2,0,1.78h.82v0c0,.28-.23.35-.21.64a1.26,1.26,0,0,0,.35.38,4.05,4.05,0,0,1,.54.91,5.08,5.08,0,0,0,.27.43,1.48,1.48,0,0,0,.13.21l.71,1a.9.9,0,0,1,.2.63,1.85,1.85,0,0,1-.1.52,1.19,1.19,0,0,1-1,.74,1.22,1.22,0,0,1-1-.36l-.09-.09a2.1,2.1,0,0,1-.15-.3c0-.16,0-.3-.09-.48l-.12-.37-.14-.36A1.83,1.83,0,0,0,50,75.4s-.07-.07-.11-.08a.5.5,0,0,0-.6.2,4,4,0,0,0,0,.93c0,.06,0,.13,0,.19s0,.39-.06.59v.45a3.07,3.07,0,0,0,.57,1.53,3.47,3.47,0,0,0,.75.73,3,3,0,0,0,1.58.53h.38a3.82,3.82,0,0,0,2.35-1,4,4,0,0,0,.94-1.6,4.77,4.77,0,0,0,.12-.71v-.41h0a3.84,3.84,0,0,0-.38-1.55c-.07,0-.12-.2-.18-.29s-.08-.05,0-.09-.08-.08-.12-.13a3.64,3.64,0,0,0-.46-.5c-.22-.19-.44-.4-.67-.58s-.46-.38-.68-.61a2.5,2.5,0,0,1-.34-.39h.56c0-.57,0-1.18,0-1.76,0,0,0,0,0,0h-.12v-1a5.34,5.34,0,0,0,1.44-9.53l.78-9.6H67.13V46.89H65.7v-1h3.13l.47-.72V42.27H178.9V11.19H25.48Zm48.73,29a5.32,5.32,0,0,0-2.33-.54,5.39,5.39,0,0,0-2.68.72l-.76-9.39h6.52Z"/><polygon class="cls-5" points="32.87 4.38 28.76 8.41 178.9 8.41 178.9 4.38 32.87 4.38"/><path class="cls-5" d="M761.12,30.88,741,11.16H587.62V42.25h110.8v3.62l2.1,1.3h0v3.5h11.18l.79,9.85a5.35,5.35,0,0,0,2,9.32c0,.33,0,.65,0,.94h-.11c0,.59,0,1.2,0,1.78h.81v0c0,.28-.23.35-.21.64a1.37,1.37,0,0,0,.34.38,4.08,4.08,0,0,1,.55.91,5.08,5.08,0,0,0,.27.43,1.48,1.48,0,0,0,.13.21l.71,1a.9.9,0,0,1,.2.63,1.85,1.85,0,0,1-.1.52,1.19,1.19,0,0,1-1,.74,1.22,1.22,0,0,1-1-.36l-.09-.09a2.1,2.1,0,0,1-.15-.3c0-.16,0-.3-.09-.48l-.12-.37-.14-.36a1.83,1.83,0,0,0-.38-.72s-.07-.07-.11-.08a.5.5,0,0,0-.6.2c-.11.27,0,.58,0,.93,0,.06,0,.13,0,.19s0,.39-.06.59v.45a3.07,3.07,0,0,0,.57,1.53,3.47,3.47,0,0,0,.75.73,3,3,0,0,0,1.58.53h.38a3.66,3.66,0,0,0,3.41-3.35v-.41h0a3.84,3.84,0,0,0-.38-1.55c-.07,0-.12-.2-.18-.29s-.08-.05-.05-.09-.08-.08-.12-.13a3.64,3.64,0,0,0-.46-.5c-.23-.19-.44-.4-.67-.58a7.64,7.64,0,0,1-.68-.61,2.5,2.5,0,0,1-.34-.39h.56c0-.57,0-1.18,0-1.76,0,0,0,0,0,0h-.13v-1a5.35,5.35,0,0,0,1.45-9.53l.78-9.6h11.53V46.89h-1.42v-1h3.13l.47-.72v-2.9h27.76Zm-42.93,29a5.32,5.32,0,0,0-5,.18l-.76-9.39h6.52Z"/><polygon class="cls-5" points="733.65 4.36 587.62 4.36 587.62 8.39 737.76 8.39 733.65 4.36"/></g><g id="Spurweite"><rect class="cls-5" x="259.94" y="186.82" width="306.61" height="1.24"/><polygon class="cls-5" points="262.4 180.92 262.4 193.96 251.54 187.44 262.4 180.92"/><polygon class="cls-5" points="563.42 180.92 563.42 193.96 574.28 187.44 563.42 180.92"/></g><g id="Steuerung"><g id="Krankabine_2" data-name="Krankabine 2"><path class="cls-5" d="M318.72,44.44V91.27l29.69,0,8.92-46.95ZM347.15,89,321,89V46.69l34.26,0Z"/><path class="cls-5" d="M341.87,84.08,337,74.41a1.7,1.7,0,0,0-1.76-.91l-.25,0h-2.9a4.83,4.83,0,0,0,.56-2.27V63.62a4.81,4.81,0,0,0-2.9-4.42,4.47,4.47,0,1,0-4.11-.1,4.81,4.81,0,0,0-3.16,4.52V74.25a3,3,0,0,0,0,.55,1.58,1.58,0,0,0,0,.38,1.69,1.69,0,0,0,1.69,1.69h10.26l4.4,8.74a1.7,1.7,0,0,0,3-1.53Z"/></g><path class="cls-5" d="M501.21,143.94h-2.49V126.32h-.67v17.62H495a1.45,1.45,0,0,0-1.49,1.41v27.5a1.45,1.45,0,0,0,1.49,1.42h6.22a1.45,1.45,0,0,0,1.49-1.42v-27.5A1.45,1.45,0,0,0,501.21,143.94Zm1.17,28.63A1.38,1.38,0,0,1,501,174h-5.78a1.38,1.38,0,0,1-1.39-1.38V145.64a1.39,1.39,0,0,1,1.39-1.39H501a1.39,1.39,0,0,1,1.39,1.39Z"/><path class="cls-5" d="M500.57,144.88h-4.94a1.27,1.27,0,0,0-1.18,1.33V172a1.26,1.26,0,0,0,1.18,1.33h4.94a1.26,1.26,0,0,0,1.18-1.33V146.21A1.27,1.27,0,0,0,500.57,144.88Zm-2.28,26a1.57,1.57,0,1,1,1.57-1.57A1.57,1.57,0,0,1,498.29,170.87Zm0-4.1a1.57,1.57,0,1,1,1.57-1.57A1.57,1.57,0,0,1,498.29,166.77Zm0-4.13a1.58,1.58,0,1,1,1.57-1.58A1.57,1.57,0,0,1,498.29,162.64Zm0-4.1a1.58,1.58,0,1,1,1.57-1.58A1.57,1.57,0,0,1,498.29,158.54Zm0-4.38a1.57,1.57,0,1,1,1.57-1.57A1.57,1.57,0,0,1,498.29,154.16Zm0-4.37a1.58,1.58,0,1,1,1.57-1.57A1.57,1.57,0,0,1,498.29,149.79Z"/><path class="cls-5" d="M448.24,141.45a4.91,4.91,0,0,0-.08.86,4.57,4.57,0,1,0,9.13,0,4.91,4.91,0,0,0-.08-.86Z"/><path class="cls-5" d="M447.79,140.08h10.39a.89.89,0,0,0,0-1.78h-.24a5.38,5.38,0,0,0-10.67.18.9.9,0,0,0,.52,1.6Z"/><path class="cls-5" d="M469.84,151.07a7.58,7.58,0,0,1-2.47-5.58,7.5,7.5,0,0,1,2.49-5.59l-.8-.87a8.7,8.7,0,0,0,0,12.9Z"/><path class="cls-5" d="M470.54,150.3l.79-.88a5.3,5.3,0,0,1,0-7.87l-.79-.89a6.52,6.52,0,0,0,0,9.64Z"/><path class="cls-5" d="M472.12,148.55l.8-.88a3,3,0,0,1,0-4.37l-.8-.88a4.15,4.15,0,0,0,0,6.13Z"/><path class="cls-5" d="M481.1,151.07l.79.87a8.69,8.69,0,0,0,0-12.91l-.79.87a7.53,7.53,0,0,1,0,11.17Z"/><path class="cls-5" d="M479.61,149.42l.79.88a6.5,6.5,0,0,0,0-9.64l-.79.89a5.3,5.3,0,0,1,0,7.87Z"/><path class="cls-5" d="M478.82,148.55a4.13,4.13,0,0,0,0-6.13l-.79.88a3,3,0,0,1,0,4.37Z"/><path class="cls-5" d="M475.75,145.48c0-.23-.2-.61-.37-.61s-.32.38-.32.61l-.1,9H468v2.78l-3.08-1-.09-.06-5.75-7.92H446.17L443,152.75v12.5a2.11,2.11,0,0,0,4.22,0V154.86a.31.31,0,0,1,.28-.32.32.32,0,0,1,.34.32V182.5a2.29,2.29,0,0,0,2.31,2.26h0a2.29,2.29,0,0,0,2.3-2.26V168.78a.21.21,0,0,1,.21-.21h.55a.21.21,0,0,1,.21.21V182.5a2.31,2.31,0,0,0,2.34,2.26h0a2.31,2.31,0,0,0,2.33-2.26V167.41l0-12.26a.21.21,0,0,1,.36-.14c1.21,1.34,3.57,4.15,3.57,4.15a43.91,43.91,0,0,0,6,2.24V166h14.7v-11.5H475.8Z"/></g><g id="Traglast"><path class="cls-5" d="M405.81,40.11h-3.14V38.8H373.44L371.34,40v5.83l2.1,1.3h0v3.5h11.18l.8,9.85a5.34,5.34,0,0,0,1.94,9.32v.94h-.11c0,.59,0,1.2,0,1.78h.82v0c0,.28-.23.35-.21.64a1.4,1.4,0,0,0,.35.38,4.05,4.05,0,0,1,.54.91c.09.14.17.29.27.43s.08.15.13.21c.24.33.48.69.72,1a1,1,0,0,1,.2.63,2.25,2.25,0,0,1-.11.52,1.27,1.27,0,0,1-2.05.38l-.1-.09c0-.09-.11-.19-.15-.3s0-.3-.09-.48-.08-.25-.12-.37-.09-.25-.14-.36a1.83,1.83,0,0,0-.38-.72.35.35,0,0,0-.1-.08.52.52,0,0,0-.61.2,4,4,0,0,0,0,.93,1.23,1.23,0,0,1,0,.19c0,.18,0,.39-.06.59v.45a3.16,3.16,0,0,0,.57,1.53,3.47,3.47,0,0,0,.75.73,3,3,0,0,0,1.58.53h.38a3.61,3.61,0,0,0,3.29-2.64,4.73,4.73,0,0,0,.13-.71v-.41h0a4,4,0,0,0-.39-1.55,1.83,1.83,0,0,1-.18-.29s-.08-.05,0-.09-.09-.08-.12-.13a3.71,3.71,0,0,0-.47-.5c-.22-.19-.44-.4-.66-.58s-.46-.38-.69-.61a2.44,2.44,0,0,1-.33-.39h.56c0-.57,0-1.18,0-1.76,0,0,0,0,0,0h-.12v-1a5.35,5.35,0,0,0,1.45-9.53l.77-9.6H404.1V46.89h-1.43v-1h3.14l.47-.72V40.83ZM391.1,59.88a5.32,5.32,0,0,0-2.33-.54,5.39,5.39,0,0,0-2.68.72l-.76-9.39h6.52Z"/></g></svg>