<svg xmlns="http://www.w3.org/2000/svg" viewBox="0 0 767 1606.58"><defs><style>.cls-1{fill:#0aa;}.cls-2,.cls-3{fill:#005a96;}.cls-3{fill-rule:evenodd;}.cls-4{fill:#fff;}.cls-5{fill:none;}</style></defs><title>Portaldrehkran</title><g id="Traglast"><rect class="cls-1" x="535.83" y="656.52" width="2.18" height="222.06" transform="translate(-149.56 130.24) rotate(-12.15)"/><path class="cls-1" d="M525.85,632.83,144.68,41.59l-2.33-7.23a95.06,95.06,0,0,0-8-9.79,13.47,13.47,0,1,0-18.76,5,107.8,107.8,0,0,0-1.9,12.52l58.73,266.16h0l96.06,354.79h0l42.7,132.58.07,1,.15-.26,40.64,126.16,6.25-2L351,897.94l22,12.63,1.23,5.61,6.42-1.41L322,648.59h0l-96.05-354.8h0l-66-204.93L497,634l1.86-1.14L157.12,80.21l-9.85-30.58L524,634.05l.92-.59-.86.67L714.35,876.77l1.72-1.35ZM135.68,45.54l-5-8,5.3-1.44,1.83,5.7ZM120,40.4l8.47-2.3,5.93,9.59-9.24,16.1ZM171,271.28l43.66,25.06-36,9.74Zm8.59,38.25,36.8-10-26.84,46.77Zm13.35,49.32L240.2,386l-27.14,47.3Zm23.54,87L262.06,472l-35.89,9.72Zm10.65,39.33,36.92-10L237.1,522.06Zm13.39,49.44,49,28.14-28.13,49Zm24.28,89.68,46.32,26.58-36.46,9.87Zm10.92,39.86,36.23-9.81-25.23,44ZM371.14,901.9,348,888.64l-5-15.44,15.7-27.38Zm-14.47-65.61-16.33,28.46L321.09,805l32.84,18.84ZM352,815.18,318.1,795.71l-2.27-7,21.92-38.2ZM335.64,741l-22.53,39.28-21.05-65.34,43.32,24.87Zm-2.17-9.86L289.81,706l27.55-48Zm-19.24-86-48.45-27.81,27.8-48.45ZM290,555.39l-48.45-27.8,27.8-48.46Zm-24-88.77-48.46-27.8,27.81-48.46Zm-23.55-87-48.45-27.8,27.81-48.46Zm-24.31-88.93-48.17-27.64L195,219.27Zm-25.75-79.91-25.05,43.65-15.42-69.91,39.27,22.54Zm-4.2-13-38.18-21.91-1.6-7.23,19.47-33.91Zm-23-71.5-18.84,32.83L132.71,97.84l28.45,16.33Zm-6.9-21.43L130.8,89.17l-3.49-15.85L138.37,54l7.14,11.55Zm-18.57-53,1-1.67,2.16,6.71Z"/><path class="cls-1" d="M155.88,530l-21.06-44.89h4.26v-11.6H133V17.51H131.9v456h-3V17.51h-1.06v456h-9.78v-456H117v456h-3v-456H113v456h-5.75v11.6H111l-21.24,45.3-19.4,11.88S85.08,559.48,91,564.11c12.9,10.08,31.44,11.71,32.12,11.76h0c.67,0,19.22-1.68,32.12-11.76,5.93-4.63,20.65-21.87,20.65-21.87ZM113,520.16h-6.55l-10.55,6.46L113,490.16Zm4.06,0h-3V487.88l1.32-2.82H117Zm10.83,0h-9.76v-35.1h9.76Zm4.06,0h-3v-35.1h1.56l1.44,3.08Zm8,0H133V490.41l16.78,35.8Z"/></g><g id="Spurweite"><rect class="cls-1" x="429.12" y="1374.04" width="169.63" height="1.64"/><polygon class="cls-1" points="436.27 1366.22 436.27 1383.49 421.89 1374.85 436.27 1366.22"/><polygon class="cls-1" points="593.77 1366.22 593.77 1383.49 608.15 1374.85 593.77 1366.22"/></g><g id="Lastaufnahmemittel"><path class="cls-1" d="M31.81,564.93a5.91,5.91,0,0,1-.48-.78c0-.08-.2-.15-.11-.24-.17,0-.23-.23-.32-.36a9.58,9.58,0,0,0-1.24-1.31c-.59-.52-1.18-1.07-1.77-1.56s-1.22-1-1.81-1.6a6.76,6.76,0,0,1-.89-1.06h1.48c-.05-1.52,0-3.13,0-4.68.06,0,0-.08,0-.07h-.32v-2.59a14.22,14.22,0,0,0,3.84-25.33l4.13-51.15H32.39l-4.05,50.11A14.08,14.08,0,0,0,15,524.8l-4.09-50.6H9L13.23,526a14.2,14.2,0,0,0,5.16,24.77c0,.85,0,1.72,0,2.48h-.3c0,1.57,0,3.2,0,4.73h2.18v.06c-.05.73-.61.92-.55,1.69a4,4,0,0,0,.92,1,11.23,11.23,0,0,1,1.44,2.41c.23.39.46.77.71,1.15.13.18.22.39.35.57.63.87,1.26,1.81,1.9,2.75a2.51,2.51,0,0,1,.53,1.68,4.49,4.49,0,0,1-.28,1.38,3.16,3.16,0,0,1-2.73,2,3.29,3.29,0,0,1-2.73-1,1.89,1.89,0,0,0-.25-.23,5.41,5.41,0,0,1-.39-.8c-.13-.42-.14-.81-.25-1.28a8.64,8.64,0,0,0-.32-1c-.12-.33-.25-.64-.36-.94a4.92,4.92,0,0,0-1-1.93,1,1,0,0,0-.27-.2,1.35,1.35,0,0,0-1.61.52,9.58,9.58,0,0,0-.05,2.48c0,.16,0,.33-.06.51-.05.48-.1,1-.16,1.55v1.2a8.3,8.3,0,0,0,1.51,4.08,8.94,8.94,0,0,0,2,1.93A8.13,8.13,0,0,0,22.77,579h1a9.66,9.66,0,0,0,8.73-7,11.85,11.85,0,0,0,.34-1.88V569h0A10.23,10.23,0,0,0,31.81,564.93Z"/><path class="cls-1" d="M155.88,530l-21.06-44.89h4.26v-11.6H133V17.51H131.9v456h-3V17.51h-1.06v456h-9.78v-456H117v456h-3v-456H113v456h-5.75v11.6H111l-21.24,45.3-19.4,11.88S85.08,559.48,91,564.11c12.9,10.08,31.44,11.71,32.12,11.76h0c.67,0,19.22-1.68,32.12-11.76,5.93-4.63,20.65-21.87,20.65-21.87ZM113,520.16h-6.55l-10.55,6.46L113,490.16Zm4.06,0h-3V487.88l1.32-2.82H117Zm10.83,0h-9.76v-35.1h9.76Zm4.06,0h-3v-35.1h1.56l1.44,3.08Zm8,0H133V490.41l16.78,35.8Z"/></g><g id="Hubhöhe"><rect class="cls-1" x="123.38" y="592.47" width="1.64" height="777.12"/><polygon class="cls-1" points="115.56 599.64 132.83 599.64 124.19 585.26 115.56 599.64"/><polygon class="cls-1" points="115.56 1364.58 132.83 1364.58 124.19 1378.96 115.56 1364.58"/><path class="cls-1" d="M155.88,530l-21.06-44.89h4.26v-11.6H133V17.51H131.9v456h-3V17.51h-1.06v456h-9.78v-456H117v456h-3v-456H113v456h-5.75v11.6H111l-21.24,45.3-19.4,11.88S85.08,559.48,91,564.11c12.9,10.08,31.44,11.71,32.12,11.76h0c.67,0,19.22-1.68,32.12-11.76,5.93-4.63,20.65-21.87,20.65-21.87ZM113,520.16h-6.55l-10.55,6.46L113,490.16Zm4.06,0h-3V487.88l1.32-2.82H117Zm10.83,0h-9.76v-35.1h9.76Zm4.06,0h-3v-35.1h1.56l1.44,3.08Zm8,0H133V490.41l16.78,35.8Z"/></g><g id="Basis"><rect class="cls-1" x="128.19" y="1584.59" width="378.94" height="1.64"/><polygon class="cls-1" points="134.08 1576.78 134.08 1594.04 119.7 1585.4 134.08 1576.78"/><polygon class="cls-1" points="502.13 1576.78 502.13 1594.04 516.51 1585.4 502.13 1576.78"/><rect class="cls-1" x="268.92" y="1389.36" width="1.64" height="75.28"/><polygon class="cls-1" points="261.1 1396.6 278.37 1396.6 269.73 1382.21 261.1 1396.6"/><polygon class="cls-1" points="261.1 1458.96 278.37 1458.96 269.73 1473.35 261.1 1458.96"/><rect class="cls-2" x="286.97" y="1510.37" width="26.9" height="1.73" transform="translate(-980.08 654.26) rotate(-44.96)"/><rect class="cls-2" x="286.97" y="1523.47" width="26.9" height="1.73" transform="translate(-989.34 658.09) rotate(-44.96)"/><polygon class="cls-2" points="290.3 1546.34 291.52 1547.56 310.54 1528.54 309.32 1527.31 290.3 1546.34"/><polygon class="cls-2" points="290.3 1559.44 291.52 1560.67 310.54 1541.64 309.32 1540.42 290.3 1559.44"/><polygon class="cls-2" points="310.24 1554.8 309.01 1553.57 302.23 1560.36 304.68 1560.36 310.24 1554.8"/><rect class="cls-2" x="286.97" y="1392.32" width="26.9" height="1.73" transform="translate(-896.49 619.47) rotate(-44.95)"/><polygon class="cls-2" points="303.4 1402.09 290.3 1415.19 291.52 1416.42 306.6 1401.34 310.55 1397.39 310.55 1394.94 303.4 1402.09"/><rect class="cls-2" x="286.97" y="1418.53" width="26.9" height="1.73" transform="translate(-915 627.13) rotate(-44.95)"/><rect class="cls-2" x="286.97" y="1431.63" width="26.9" height="1.73" transform="translate(-924.26 630.96) rotate(-44.95)"/><rect class="cls-2" x="286.97" y="1444.73" width="26.9" height="1.73" transform="translate(-933.52 634.79) rotate(-44.95)"/><polygon class="cls-2" points="290.3 1467.6 291.52 1468.83 310.54 1449.81 309.32 1448.58 290.3 1467.6"/><rect class="cls-2" x="286.97" y="1470.94" width="26.9" height="1.73" transform="translate(-952.22 642.73) rotate(-44.96)"/><rect class="cls-2" x="286.97" y="1484.04" width="26.9" height="1.73" transform="translate(-961.48 646.56) rotate(-44.96)"/><rect class="cls-2" x="286.97" y="1497.15" width="26.9" height="1.73" transform="translate(-970.74 650.4) rotate(-44.96)"/><rect class="cls-2" x="288.33" y="1386.96" width="13.45" height="1.73" transform="translate(-894.06 613.8) rotate(-44.94)"/><path class="cls-2" d="M201.65,1452.31H155.12v-53.17h46.53Zm-44.75-1.78h43v-49.61h-43Z"/><path class="cls-2" d="M151.73,1452.31H105.19v-53.17h46.54ZM107,1450.53h43v-49.61H107Z"/><path class="cls-2" d="M100.61,1452.31H54.07v-53.17h46.54Zm-44.75-1.78h43v-49.61h-43Z"/><path class="cls-3" d="M40.47,1389.84v83.29l12.75,18.37c1.79,5.27-1,8.18,8.19,11.79,26.78,10.5,69.51,19.44,69.51,19.44s37-8.73,61.21-19.44c8.25-3.65,5.64-4.56,8.61-11.5l13.94-18.61v-83.34ZM44,1471.36v-76.9H211.11v76.85l0,0Z"/><path class="cls-3" d="M149.18,1531.38a11.84,11.84,0,0,0-3.39-3.11,38.06,38.06,0,0,0-8.06-3.8l-2.3-.79a.88.88,0,0,1-.64-1,10.36,10.36,0,0,0-.09-1.47.84.84,0,0,1,.39-.91,6,6,0,0,1,.57-.28,16.48,16.48,0,0,0,4-2.38,8.67,8.67,0,0,0,3-9,13.06,13.06,0,0,0-4.32-7.14,8.36,8.36,0,0,0-3.68-2,3.8,3.8,0,0,0-4.1,1.46,7.22,7.22,0,0,0-1.24,2.87,17.83,17.83,0,0,0-.39,4,38.16,38.16,0,0,0,.49,5.76c.23,1.39.51,2.77.76,4.15a.85.85,0,0,1-.48,1,14.45,14.45,0,0,0-1.29.86.84.84,0,0,1-1,.07l-.47-.32a17.32,17.32,0,0,0-4-2.25,9.21,9.21,0,0,0-4.53-.51,9.1,9.1,0,0,0-5.17,2.72,13.34,13.34,0,0,0-3.41,5.85,9.45,9.45,0,0,0-.2,5.14,4,4,0,0,0,4.05,3,10.84,10.84,0,0,0,4.5-1.23,30.65,30.65,0,0,0,6.09-4c1.15-.92,2.25-1.89,3.37-2.84a.87.87,0,0,1,1.17-.12,11.82,11.82,0,0,0,1.33.67.86.86,0,0,1,.62.9c0,.33,0,.65-.08,1a15,15,0,0,0,.17,4.53,8.63,8.63,0,0,0,4.88,6.26,12.27,12.27,0,0,0,6,1.08.17.17,0,0,1,0,.07c1-.18,2-.32,2.93-.57a8.71,8.71,0,0,0,4.21-2.31,3.92,3.92,0,0,0,1.24-2.84A4.51,4.51,0,0,0,149.18,1531.38Z"/><path class="cls-4" d="M141.14,1540.36v-.17a12.4,12.4,0,0,1-5.71-1.15,9.25,9.25,0,0,1-5.21-6.67,15.12,15.12,0,0,1-.18-4.71c0-.39.06-.68.07-1s0-.2-.25-.32a14.06,14.06,0,0,1-1.4-.71.34.34,0,0,0-.48.06l-.92.78c-.81.7-1.63,1.41-2.47,2.08a31.71,31.71,0,0,1-6.2,4,11.2,11.2,0,0,1-4.75,1.3,4.59,4.59,0,0,1-4.64-3.5,9.93,9.93,0,0,1,.21-5.45,14,14,0,0,1,3.56-6.11,9.77,9.77,0,0,1,5.5-2.89l.32,0a9.91,9.91,0,0,1,4.5.58,17.54,17.54,0,0,1,4.17,2.33l.44.29c.1.06.14.06.16,0a.37.37,0,0,0,.2-.09,14.73,14.73,0,0,1,1.34-.89c.24-.14.22-.22.2-.35l-.27-1.41c-.17-.92-.35-1.83-.49-2.75a35.75,35.75,0,0,1-.5-5.85,18.22,18.22,0,0,1,.4-4.14,7.61,7.61,0,0,1,1.35-3.09,4.4,4.4,0,0,1,4.7-1.68,8.85,8.85,0,0,1,3.94,2.12,13.77,13.77,0,0,1,4.52,7.45,9.27,9.27,0,0,1-3.22,9.61,17.38,17.38,0,0,1-4.11,2.47l-.52.25s-.13.08-.1.32a13.32,13.32,0,0,1,.1,1.56c0,.32.06.35.24.41l.82.28,1.48.51a39.36,39.36,0,0,1,8.19,3.86,12.26,12.26,0,0,1,3.55,3.28,5,5,0,0,1,1,2.88,4.51,4.51,0,0,1-1.4,3.25,9.28,9.28,0,0,1-4.49,2.48c-.69.18-1.39.3-2.07.42l-.9.16Zm-13.06-16a1.56,1.56,0,0,1,1,.25,12.54,12.54,0,0,0,1.27.64,1.42,1.42,0,0,1,1,1.47c0,.3,0,.6-.07.9a14.27,14.27,0,0,0,.15,4.45,8,8,0,0,0,4.56,5.85,11.52,11.52,0,0,0,5.71,1l.54,0,.3,0c.69-.12,1.34-.23,2-.4a8.25,8.25,0,0,0,4-2.15,3.36,3.36,0,0,0,1.06-2.42,3.92,3.92,0,0,0-.77-2.22,10.93,10.93,0,0,0-3.23-3,37.05,37.05,0,0,0-7.93-3.74l-1.47-.51-.82-.28a1.45,1.45,0,0,1-1-1.55,10.48,10.48,0,0,0-.09-1.39,1.44,1.44,0,0,1,.68-1.5,5.77,5.77,0,0,1,.56-.27,16.47,16.47,0,0,0,3.89-2.32,8.14,8.14,0,0,0,2.83-8.46,12.52,12.52,0,0,0-4.13-6.81,7.62,7.62,0,0,0-3.41-1.84,3.19,3.19,0,0,0-3.51,1.23,6.67,6.67,0,0,0-1.13,2.64,16.41,16.41,0,0,0-.37,3.86,35.57,35.57,0,0,0,.48,5.67c.15.91.32,1.81.49,2.72l.27,1.41a1.45,1.45,0,0,1-.77,1.59,14.89,14.89,0,0,0-1.24.83,1.43,1.43,0,0,1-1.68.1l-.51-.34a16.32,16.32,0,0,0-3.88-2.18,8.59,8.59,0,0,0-4-.52l-.27,0a8.37,8.37,0,0,0-4.83,2.55,12.64,12.64,0,0,0-3.26,5.6,8.7,8.7,0,0,0-.21,4.81,3.39,3.39,0,0,0,3.46,2.62,9.76,9.76,0,0,0,4.27-1.18,30.2,30.2,0,0,0,6-3.89c.83-.66,1.63-1.35,2.44-2.05l.92-.79A1.71,1.71,0,0,1,128.08,1524.4Z"/><path class="cls-2" d="M246.31,1458.33a7.68,7.68,0,0,0-5.89,2.62,5.79,5.79,0,0,1-4.45,2h0a5.79,5.79,0,0,1-4.45-2,7.94,7.94,0,0,0-11.79,0,5.79,5.79,0,0,1-4.45,2h0a5.81,5.81,0,0,1-4.46-2,7.93,7.93,0,0,0-11.78,0,5.81,5.81,0,0,1-4.46,2h0a5.77,5.77,0,0,1-4.45-2,7.94,7.94,0,0,0-11.79,0,6.06,6.06,0,0,1-8.91,0,7.94,7.94,0,0,0-11.79,0,6.06,6.06,0,0,1-8.91,0,7.94,7.94,0,0,0-11.79,0,6.06,6.06,0,0,1-8.91,0,7.94,7.94,0,0,0-11.79,0,6.06,6.06,0,0,1-8.91,0,7.94,7.94,0,0,0-11.79,0,6.05,6.05,0,0,1-8.9,0,7.94,7.94,0,0,0-11.79,0,6.06,6.06,0,0,1-8.91,0,7.94,7.94,0,0,0-11.79,0,6.06,6.06,0,0,1-8.91,0,7.94,7.94,0,0,0-11.79,0,6.06,6.06,0,0,1-8.91,0,7.68,7.68,0,0,0-5.89-2.62h0a7.72,7.72,0,0,0-5.9,2.62,5.77,5.77,0,0,1-4.45,2c-.13,0-.26,0-.39,0v1.91l.39,0a7.65,7.65,0,0,0,5.89-2.62,5.84,5.84,0,0,1,4.46-2h0a5.81,5.81,0,0,1,4.45,2,7.94,7.94,0,0,0,11.79,0,6.06,6.06,0,0,1,8.91,0,7.94,7.94,0,0,0,11.79,0,6.06,6.06,0,0,1,8.91,0,7.94,7.94,0,0,0,11.79,0,6.06,6.06,0,0,1,8.91,0,7.94,7.94,0,0,0,11.79,0,6.05,6.05,0,0,1,8.9,0,7.94,7.94,0,0,0,11.79,0,6.06,6.06,0,0,1,8.91,0,7.94,7.94,0,0,0,11.79,0,6.06,6.06,0,0,1,8.91,0,7.65,7.65,0,0,0,5.89,2.62h0a7.65,7.65,0,0,0,5.89-2.62,6.06,6.06,0,0,1,8.91,0,7.94,7.94,0,0,0,11.79,0,6.06,6.06,0,0,1,8.91,0,7.63,7.63,0,0,0,5.89,2.62h0a7.68,7.68,0,0,0,5.9-2.62,6.05,6.05,0,0,1,8.9,0,7.67,7.67,0,0,0,5.9,2.62h0a7.65,7.65,0,0,0,5.89-2.62,6.06,6.06,0,0,1,8.91,0,7.65,7.65,0,0,0,5.89,2.62h0a7.65,7.65,0,0,0,5.89-2.62,5.82,5.82,0,0,1,4.45-2,6.43,6.43,0,0,1,2.12.39v-2A8.16,8.16,0,0,0,246.31,1458.33Z"/><path class="cls-2" d="M752.33,876.09h-84v51.07h-5.72V876.09h-25.6L528.11,651.24a17.53,17.53,0,1,0-29,.23L390.32,876.09H345.93a7.65,7.65,0,0,0-7.64,7.63v75.35l.33.91,10,25.49s1.81,7.6,9.36,7.6H481v26.44H455.37v20.42h14.78v36.67H475l-93.49,120.23,7.11,14.53h.17l-.65,137-8,10.65v15.3h15a5.26,5.26,0,0,0,10.43,0h13.87v-15.3l-7.77-10.59,10.22-137.1H607.58l10.19,136.76-8.25,10.94v15.3h15a5.26,5.26,0,0,0,10.43,0h13.86v-15.3l-7.52-10.25-.64-137.45h1l7.12-14.49L556.11,1076.6h4.48v-36.67h14.79v-20.42H549.74V993.07H691V979.81h1.29a58.84,58.84,0,0,0,14.91-2.33l45.49-14.59c4-1.28,5.37-4.25,7.27-8V883.72A7.65,7.65,0,0,0,752.33,876.09ZM372.32,963v26.24h-18.1L341.8,957.84V942.93h30.52Zm0-23.68H341.8V928.91h30.52Zm34.68,254,43.59-56.08,25.65,56.08Zm85.69-59.92H480.13v10.89h12.56v48.26l-31.52-68.91,31.52-40.55Zm130.72,59.92H552l26.57-58.08Zm-55.35-71.76-32.82,71.76h-1.42v-49h13v-10.89h-13V1077.2ZM611,876.09H407.87L513.05,659l.5,0c.26,0,.51,0,.76,0L619.5,876.09Z"/><polygon class="cls-5" points="118.09 520.16 123.13 520.16 123.17 520.16 127.85 520.16 127.85 485.06 118.09 485.06 118.09 520.16"/><polygon class="cls-5" points="114.03 487.88 114.03 520.16 117.02 520.16 117.02 485.06 115.35 485.06 114.03 487.88"/><polygon class="cls-5" points="106.41 520.16 112.96 520.16 112.96 490.16 95.86 526.62 106.41 520.16"/><polygon class="cls-5" points="128.91 485.06 128.91 520.16 131.91 520.16 131.91 488.14 130.47 485.06 128.91 485.06"/><polygon class="cls-5" points="132.97 520.16 139.89 520.16 149.76 526.21 132.97 490.41 132.97 520.16"/></g></svg>