<svg xmlns="http://www.w3.org/2000/svg" viewBox="0 0 767 251.09"><defs><style>.cls-1,.cls-3{fill:#005a96;}.cls-2{fill:#fff;}.cls-3{fill-rule:evenodd;}.cls-4{fill:#0aa;}</style></defs><title>Portalkran_links</title><g id="Basis"><path class="cls-1" d="M586.86,176.45H587V5.09H179V9.81h2l27.94,27.93,1.06,1.06H180.51v4.72H578.36V176.45h2.5s0,0,0,0h-2.4l-3.34,4.44v5.84h5.74a2,2,0,0,0,4,0h5.3v-5.84ZM187.59,9.81h49.17L212.17,34.4Zm54.78,29H214.45l27.92-27.9Zm1.35,0V11.32L271.19,38.8ZM276.07,37,248.88,9.81h27l.17.16Zm1.79,1.79-.44-.44v-27L304.88,38.8ZM309.76,37,282.57,9.81h27.19Zm1.79,1.79-.44-.44V10.79l28,28Zm32.58-1.65L316.8,9.81h27.33Zm1.65,1.65-.3-.3V11.13L373.14,38.8Zm32-2.09-26.9-26.9h26.9Zm1.34-26.9h27.09l-27.09,27.1ZM411.52,38.5l-.31.3H383.85l27.67-27.67Zm1.34-28.69h27.33L412.86,37.15Zm33,28.55-.44.44H417.88l28-28Zm1.35-28.55h27.19L447.23,37Zm32.35,28.55-.44.44h-27l27.47-27.48ZM480.93,10l.16-.16h27L480.93,37ZM513.27,38.8H485.81l27.46-27.48ZM514.62,10l.16-.16h27.7L514.62,37.68Zm33,28.39-.44.44h-27l27.47-27.48ZM549,10l.16-.16h27L549,37ZM578.36,38.8H553.87l24.49-24.5Z"/><g id="Schild_Teichmann_Krane_2" data-name="Schild Teichmann Krane 2"><rect class="cls-2" x="348.36" y="16.72" width="60.07" height="16.09"/><path class="cls-1" d="M408.87,33.24H347.93v-17h60.94Zm-60.08-.86H408V17.15H348.79Z"/><polygon class="cls-3" points="355.45 25.32 356.75 25.32 356.75 23.99 352.57 23.99 352.57 25.32 353.88 25.32 353.88 30.05 355.45 30.05 355.45 25.32"/><polygon class="cls-3" points="360.8 25.32 360.8 23.99 357.36 23.99 357.36 30.05 360.8 30.05 360.8 28.71 358.93 28.71 358.93 27.67 360.71 27.67 360.71 26.34 358.93 26.34 358.93 25.32 360.8 25.32"/><rect class="cls-1" x="361.81" y="23.99" width="1.57" height="6.06"/><path class="cls-3" d="M368.76,24.13a3.7,3.7,0,0,0-1.43-.3,3.27,3.27,0,0,0-2.31,1,3.16,3.16,0,0,0-.89,2.22,3,3,0,0,0,1,2.29,3.38,3.38,0,0,0,2.27.89,4.46,4.46,0,0,0,1.39-.28V28a1.82,1.82,0,0,1-1.36.64A1.56,1.56,0,0,1,365.77,27a1.59,1.59,0,0,1,1.61-1.67,1.71,1.71,0,0,1,1.38.66Z"/><polygon class="cls-3" points="371.35 26.33 371.35 23.99 369.78 23.99 369.78 30.05 371.35 30.05 371.35 27.57 373.63 27.57 373.63 30.05 375.2 30.05 375.2 23.99 373.63 23.99 373.63 26.33 371.35 26.33"/><polygon class="cls-3" points="376.3 30.05 378.04 30.05 377.99 26.78 379.44 30.05 380.88 26.77 380.84 30.05 382.58 30.05 382.58 23.98 380.62 23.98 379.45 26.85 378.25 23.98 376.3 23.98 376.3 30.05"/><polygon class="cls-3" points="390.03 30.05 391.61 30.05 391.61 26.34 394.5 30.05 396.08 30.05 396.08 23.99 394.5 23.99 394.5 27.7 391.61 23.99 390.03 23.99 390.03 30.05"/><polygon class="cls-3" points="396.83 30.05 398.4 30.05 398.4 26.34 401.3 30.05 402.88 30.05 402.88 23.99 401.3 23.99 401.3 27.7 398.4 23.99 396.83 23.99 396.83 30.05"/><polygon class="cls-3" points="387.79 30.05 389.47 30.05 387.19 23.99 385.47 23.99 383.14 30.05 384.81 30.05 386.31 25.86 387.79 30.05"/><polygon class="cls-3" points="386.3 19.32 386.3 22.74 387.2 22.74 387.2 21.72 387.54 21.34 388.46 22.74 389.48 22.74 388.12 20.79 389.34 19.32 388.36 19.32 387.22 20.69 387.2 20.69 387.2 19.32 386.3 19.32"/><path class="cls-3" d="M390.28,22.74h.87V21.19c0-.34.33-.46.64-.46h.26v-.63h-.15a.9.9,0,0,0-.78.41h0v-.35h-.83Z"/><path class="cls-3" d="M393.77,21v-.07c0-.2.14-.33.4-.33s.4.12.4.31-.09.25-.34.3l-.49.11c-.6.12-.86.32-.86.8a.73.73,0,0,0,.82.74.93.93,0,0,0,.86-.34h0a.9.9,0,0,0,.11.27h.83a.83.83,0,0,1-.11-.5V20.89c0-.47-.19-.79-1.22-.79-.66,0-1.19.2-1.19.79V21Zm.8,1c0,.28-.3.4-.53.4a.32.32,0,0,1-.33-.36c0-.23.14-.36.49-.42a1.17,1.17,0,0,0,.37-.13Z"/><path class="cls-3" d="M396.65,22.74h.86V21c0-.29.17-.43.46-.43s.37.1.37.36v1.78h.87V20.83c0-.51-.32-.73-.86-.73a1,1,0,0,0-.86.37h0v-.31h-.83Z"/><path class="cls-3" d="M402.87,21.55v-.14c0-.8-.22-1.31-1.23-1.31-1.17,0-1.35.64-1.35,1.33s0,1.38,1.31,1.38c.81,0,1.19-.34,1.22-.94H402c-.05.32-.16.49-.46.49s-.42-.3-.42-.6v-.21Zm-1.71-.39v-.1c0-.24.1-.51.44-.51s.43.22.44.61Z"/></g></g><g id="Hubhöhe"><rect class="cls-4" x="338.07" y="82.64" width="1.05" height="98.15"/><polygon class="cls-4" points="333.05 87.26 344.14 87.26 338.59 78.02 333.05 87.26"/><polygon class="cls-4" points="333.05 178.23 344.14 178.23 338.59 187.47 333.05 178.23"/><rect class="cls-4" x="337.97" y="196.94" width="1.05" height="43.84"/><polygon class="cls-4" points="332.95 200.44 344.04 200.44 338.49 191.2 332.95 200.44"/><polygon class="cls-4" points="332.95 236.17 344.04 236.17 338.49 245.41 332.95 236.17"/><path class="cls-4" d="M352.94,42.82h-2.67V41.71H325.41l-1.79,1v5l1.79,1.12h0v3h9.51l.68,8.38a4.55,4.55,0,0,0,1.65,7.93v.79h-.09c0,.51,0,1,0,1.52h.69v0c0,.23-.2.29-.18.54a1.26,1.26,0,0,0,.29.32,3.34,3.34,0,0,1,.46.78l.23.36c0,.06.07.13.11.18.2.28.41.58.61.89a.74.74,0,0,1,.17.53,1.31,1.31,0,0,1-.09.44,1,1,0,0,1-.87.63,1,1,0,0,1-.88-.3.2.2,0,0,0-.08-.08c0-.08-.09-.16-.12-.25s-.05-.26-.08-.42-.07-.21-.1-.31-.08-.21-.12-.3a1.52,1.52,0,0,0-.32-.62l-.09-.07a.45.45,0,0,0-.52.17c-.09.23,0,.5,0,.8a.78.78,0,0,0,0,.16c0,.15,0,.33-.05.5v.38a2.76,2.76,0,0,0,.48,1.31,2.86,2.86,0,0,0,.64.61,2.62,2.62,0,0,0,1.34.46H339a3.23,3.23,0,0,0,2-.89,3.15,3.15,0,0,0,.8-1.36,2.9,2.9,0,0,0,.11-.6V74h0a3.12,3.12,0,0,0-.33-1.32c-.05,0-.09-.17-.15-.25s-.06,0,0-.07-.07-.08-.1-.12a2.63,2.63,0,0,0-.4-.42l-.56-.5a6.62,6.62,0,0,1-.58-.51,3.07,3.07,0,0,1-.29-.34h.48c0-.48,0-1,0-1.49,0,0,0,0,0,0h-.11v-.83A4.54,4.54,0,0,0,341,60l.66-8.17h9.82V48.59h-1.22v-.88h2.67l.4-.61V43.43ZM340.43,59.63a4.5,4.5,0,0,0-4.26.16l-.65-8h5.55Z"/></g><g id="Feststütze"><path class="cls-4" d="M237.3,177.1l-2.59,3.83v5.84h4.94a2,2,0,0,0,4,0h4.94v-5.84L246,177.17V5.09H237.3V24.77H188.94L181.65,5.09h-5.51L237.3,173.26Zm0-103.79H206.6l-17-46.74H237.3Zm0,84.39L207.25,75.11H237.3Z"/></g><g id="Ausladung"><path class="cls-4" d="M237.3,177.1l-2.59,3.83v5.84h4.94a2,2,0,0,0,4,0h4.94v-5.84L246,177.17V5.09H237.3V24.77H188.94L181.65,5.09h-5.51L237.3,173.26Zm0-103.79H206.6l-17-46.74H237.3Zm0,84.39L207.25,75.11H237.3Z"/><rect class="cls-4" x="77.47" y="188.65" width="149.77" height="1.05"/><polygon class="cls-4" points="79.54 183.63 79.54 194.72 70.3 189.17 79.54 183.63"/><polygon class="cls-4" points="224.86 183.63 224.86 194.72 234.1 189.17 224.86 183.63"/><rect class="cls-4" x="598.14" y="188.65" width="93.88" height="1.05"/><polygon class="cls-4" points="600.21 183.63 600.21 194.72 590.98 189.17 600.21 183.63"/><polygon class="cls-4" points="687.37 183.63 687.37 194.72 696.61 189.17 687.37 183.63"/><path class="cls-4" d="M761.37,38.76H758.6l-29-29h2.11V5.05H587.52v6.28l27.41,27.43H587.52v4.72h94.2v4.23l1.78,1.12h0v3H693l.68,8.38a4.55,4.55,0,0,0,1.65,7.93c0,.27,0,.55,0,.79h-.1c0,.51,0,1,0,1.52h.7v0c0,.23-.2.29-.18.54a1.3,1.3,0,0,0,.3.32,4.22,4.22,0,0,1,.46.78,3.61,3.61,0,0,0,.23.36c0,.06.07.13.11.18.2.28.4.58.61.89a.84.84,0,0,1,.17.53,2.11,2.11,0,0,1-.09.44,1.09,1.09,0,0,1-1.75.33.3.3,0,0,0-.08-.08,2,2,0,0,1-.13-.25c0-.14,0-.26-.08-.42a2.74,2.74,0,0,0-.1-.31q-.06-.16-.12-.3a1.52,1.52,0,0,0-.32-.62l-.09-.07a.44.44,0,0,0-.51.17,3,3,0,0,0,0,.8,1,1,0,0,1,0,.16c0,.15,0,.33-.05.5v.38a2.76,2.76,0,0,0,.48,1.31,3.09,3.09,0,0,0,.64.61,2.65,2.65,0,0,0,1.35.46h.32a3.09,3.09,0,0,0,2.8-2.25,5.33,5.33,0,0,0,.11-.6V74h0a3.28,3.28,0,0,0-.33-1.32c-.06,0-.1-.17-.16-.25s-.06,0,0-.07-.07-.08-.1-.12a4,4,0,0,0-.4-.42l-.57-.5c-.19-.15-.38-.32-.58-.51a3,3,0,0,1-.28-.34H698c0-.48,0-1,0-1.49,0,0,0,0,0,0h-.1v-.83a4.55,4.55,0,0,0,1.23-8.1l.66-8.17h9.81V48.59h-1.21v-.88H711l.4-.61V43.48h49.94ZM698.53,59.63a4.52,4.52,0,0,0-4.27.16l-.64-8h5.54ZM687.88,9.77V37.1L660.55,9.77ZM619.81,37,592.62,9.77h27l.16.16Zm1.79,1.8-.44-.45v-27l27.46,27.48ZM653.51,37,626.32,9.77h27.19Zm1.34,1.35V10.74l28,28H655.3Zm34.67.45-.3-.31V11.08l27.66,27.68Zm33.4-.64L694.58,9.77h28.34Zm1.34.64V11.08l27.67,27.68Z"/><path class="cls-4" d="M179.47,5.05H35.3V9.76h2.11l-29,29H5.65v4.71H54.52v4.24l1.79,1.12h0v3h9.51l.68,8.38a4.55,4.55,0,0,0,1.65,7.93v.79h-.09c0,.51,0,1,0,1.52h.7v0c0,.23-.2.29-.18.54a1.14,1.14,0,0,0,.3.32,4.22,4.22,0,0,1,.46.78,3.61,3.61,0,0,0,.23.36c0,.06.07.13.11.18.2.28.4.58.61.89a.78.78,0,0,1,.16.53,1.65,1.65,0,0,1-.08.44,1.09,1.09,0,0,1-1.75.33.6.6,0,0,0-.08-.08,2,2,0,0,1-.13-.25c0-.14,0-.26-.08-.42a2.74,2.74,0,0,0-.1-.31q-.06-.16-.12-.3a1.52,1.52,0,0,0-.32-.62l-.09-.07a.44.44,0,0,0-.51.17,3,3,0,0,0,0,.8,1,1,0,0,1,0,.16c0,.15,0,.33,0,.5v.38a2.76,2.76,0,0,0,.48,1.31,3.09,3.09,0,0,0,.64.61,2.65,2.65,0,0,0,1.35.46h.32a3.23,3.23,0,0,0,2-.89,3.37,3.37,0,0,0,.8-1.36,5.33,5.33,0,0,0,.11-.6V74h0a3.28,3.28,0,0,0-.33-1.32c-.06,0-.1-.17-.16-.25s-.06,0,0-.07-.07-.08-.1-.12a4,4,0,0,0-.4-.42l-.57-.5a6.62,6.62,0,0,1-.58-.51,3,3,0,0,1-.28-.34h.47c0-.48,0-1,0-1.49,0,0,0,0,0,0h-.1v-.83A4.55,4.55,0,0,0,71.92,60l.66-8.17h9.81V48.59H81.18v-.88h2.66l.4-.61V43.47h95.23V38.76H152.1l27.37-27.39ZM71.34,59.63a4.58,4.58,0,0,0-2-.46,4.53,4.53,0,0,0-2.28.62l-.64-8H72ZM79.15,9.76h27.33L79.15,37.1Zm-36.39,29H15.1L42.76,11.08Zm1.35-29H72.45L44.11,38.12ZM77.8,11.08V38.45l-.3.31H50.14Zm34.37,27.23-.44.45H84.17l28-28Zm1.35-28.55h27.19L113.52,37Zm32.35,28.55-.45.45h-27l27.47-27.48ZM147.21,37v-27l.17-.17h27Z"/></g><g id="Steuerung"><g id="Krankabine_2" data-name="Krankabine 2"><path class="cls-4" d="M260.53,45.64V90.25l28.27,0,8.49-44.72ZM287.6,88.13l-24.93,0V47.78l32.63,0Z"/><path class="cls-4" d="M282.57,83.4l-4.63-9.21a1.62,1.62,0,0,0-1.68-.86,1.6,1.6,0,0,0-.23,0h-2.76a4.56,4.56,0,0,0,.53-2.15V63.91A4.58,4.58,0,0,0,271,59.7a4.25,4.25,0,1,0-3.92-.09,4.57,4.57,0,0,0-3,4.3V74a4.09,4.09,0,0,0,0,.53,2,2,0,0,0,0,.35,1.62,1.62,0,0,0,1.62,1.62h9.76l4.19,8.32a1.62,1.62,0,1,0,2.89-1.46Z"/></g><path class="cls-4" d="M483.84,152.15h-2.12v-15h-.57v15h-2.6a1.23,1.23,0,0,0-1.26,1.2v23.39a1.23,1.23,0,0,0,1.26,1.21h5.29a1.23,1.23,0,0,0,1.26-1.21V153.35A1.23,1.23,0,0,0,483.84,152.15Zm1,24.35a1.18,1.18,0,0,1-1.18,1.18h-4.93a1.18,1.18,0,0,1-1.18-1.18V153.6a1.18,1.18,0,0,1,1.18-1.18h4.93a1.18,1.18,0,0,1,1.18,1.18Z"/><path class="cls-4" d="M483.29,153h-4.2a1.08,1.08,0,0,0-1,1.13V176a1.08,1.08,0,0,0,1,1.13h4.2a1.08,1.08,0,0,0,1-1.13V154.08A1.08,1.08,0,0,0,483.29,153Zm-1.93,22.11a1.34,1.34,0,1,1,1.33-1.34A1.34,1.34,0,0,1,481.36,175.06Zm0-3.49a1.34,1.34,0,1,1,1.33-1.33A1.34,1.34,0,0,1,481.36,171.57Zm0-3.51a1.34,1.34,0,1,1,1.33-1.34A1.34,1.34,0,0,1,481.36,168.06Zm0-3.49a1.34,1.34,0,1,1,1.33-1.34A1.34,1.34,0,0,1,481.36,164.57Zm0-3.72a1.34,1.34,0,1,1,1.33-1.34A1.34,1.34,0,0,1,481.36,160.85Zm0-3.72a1.34,1.34,0,1,1,1.33-1.34A1.34,1.34,0,0,1,481.36,157.13Z"/><path class="cls-4" d="M438.79,150a3.54,3.54,0,0,0-.07.73,3.89,3.89,0,0,0,7.77,0,4.4,4.4,0,0,0-.07-.73Z"/><path class="cls-4" d="M438.4,148.87h8.84a.76.76,0,0,0,0-1.51H447a4.57,4.57,0,0,0-9.07.15.76.76,0,0,0,.44,1.36Z"/><path class="cls-4" d="M457.16,158.22a6.41,6.41,0,0,1,0-9.5l-.68-.75a7.42,7.42,0,0,0,0,11Z"/><path class="cls-4" d="M457.76,157.56l.67-.75a4.5,4.5,0,0,1,0-6.69l-.67-.76a5.57,5.57,0,0,0-1.82,4.11A5.51,5.51,0,0,0,457.76,157.56Z"/><path class="cls-4" d="M459.1,156.07l.68-.74a2.57,2.57,0,0,1,0-3.72l-.68-.75a3.51,3.51,0,0,0-1.15,2.61A3.48,3.48,0,0,0,459.1,156.07Z"/><path class="cls-4" d="M466.73,158.22l.68.74a7.41,7.41,0,0,0,0-11l-.68.75a6.4,6.4,0,0,1,0,9.5Z"/><path class="cls-4" d="M465.47,156.81l.67.75a5.51,5.51,0,0,0,1.82-4.09,5.57,5.57,0,0,0-1.82-4.11l-.67.76a4.5,4.5,0,0,1,0,6.69Z"/><path class="cls-4" d="M464.8,156.07a3.48,3.48,0,0,0,1.15-2.6,3.51,3.51,0,0,0-1.15-2.61l-.68.75a2.57,2.57,0,0,1,0,3.72Z"/><path class="cls-4" d="M462.19,153.46c0-.19-.17-.51-.32-.51s-.27.32-.27.51l-.09,7.63h-5.89v2.36l-2.62-.86a.16.16,0,0,1-.08-.06L448,155.8H437l-2.73,3.85v10.63a1.79,1.79,0,0,0,3.58,0v-8.84a.26.26,0,0,1,.24-.27.27.27,0,0,1,.29.27V185a2,2,0,0,0,2,1.92h0a2,2,0,0,0,2-1.92V173.28a.18.18,0,0,1,.17-.18H443a.18.18,0,0,1,.18.18V185a2,2,0,0,0,2,1.92h0a2,2,0,0,0,2-1.92V172.12l0-10.43a.18.18,0,0,1,.31-.12c1,1.14,3,3.53,3,3.53a36.78,36.78,0,0,0,5.11,1.9v3.88h12.5v-9.79h-5.89Z"/></g><g id="Spurweite"><rect class="cls-4" x="253.63" y="188.65" width="312.9" height="1.05"/><polygon class="cls-4" points="258.24 183.63 258.24 194.72 249 189.17 258.24 183.63"/><polygon class="cls-4" points="564.03 183.63 564.03 194.72 573.27 189.17 564.03 183.63"/></g><g id="Traglast"><path class="cls-4" d="M352.94,42.82h-2.67V41.71H325.41l-1.79,1v5l1.79,1.12h0v3h9.51l.68,8.38a4.55,4.55,0,0,0,1.65,7.93v.79h-.09c0,.51,0,1,0,1.52h.69v0c0,.23-.2.29-.18.54a1.26,1.26,0,0,0,.29.32,3.34,3.34,0,0,1,.46.78l.23.36c0,.06.07.13.11.18.2.28.41.58.61.89a.74.74,0,0,1,.17.53,1.31,1.31,0,0,1-.09.44,1,1,0,0,1-.87.63,1,1,0,0,1-.88-.3.2.2,0,0,0-.08-.08c0-.08-.09-.16-.12-.25s-.05-.26-.08-.42-.07-.21-.1-.31-.08-.21-.12-.3a1.52,1.52,0,0,0-.32-.62l-.09-.07a.45.45,0,0,0-.52.17c-.09.23,0,.5,0,.8a.78.78,0,0,0,0,.16c0,.15,0,.33-.05.5v.38a2.76,2.76,0,0,0,.48,1.31,2.86,2.86,0,0,0,.64.61,2.62,2.62,0,0,0,1.34.46H339a3.23,3.23,0,0,0,2-.89,3.15,3.15,0,0,0,.8-1.36,2.9,2.9,0,0,0,.11-.6V74h0a3.12,3.12,0,0,0-.33-1.32c-.05,0-.09-.17-.15-.25s-.06,0,0-.07-.07-.08-.1-.12a2.63,2.63,0,0,0-.4-.42l-.56-.5a6.62,6.62,0,0,1-.58-.51,3.07,3.07,0,0,1-.29-.34h.48c0-.48,0-1,0-1.49,0,0,0,0,0,0h-.11v-.83A4.54,4.54,0,0,0,341,60l.66-8.17h9.82V48.59h-1.22v-.88h2.67l.4-.61V43.43ZM340.43,59.63a4.5,4.5,0,0,0-4.26.16l-.65-8h5.55Z"/></g></svg>