<svg xmlns="http://www.w3.org/2000/svg" viewBox="0 0 767 251.09"><defs><style>.cls-1,.cls-3{fill:#005a96;}.cls-2{fill:#fff;}.cls-3{fill-rule:evenodd;}.cls-4{fill:#0aa;}</style></defs><title>Portalkran_zentriert</title><g id="Basis"><path class="cls-1" d="M587,176.27h.16V4.75H178.69V9.47h1.95l28,28,1.06,1.06H180.26v4.72H578.47V176.27H581v0h-2.4l-3.34,4.44v5.85H581a2,2,0,0,0,4,0h5.3v-5.85ZM187.34,9.47h49.21L212,34.09Zm54.84,29h-28l28-27.93Zm1.34,0V11L271,38.49ZM275.9,36.7,248.69,9.47h27.05l.16.16Zm1.79,1.79-.44-.44V11l27.49,27.51Zm31.94-1.79L282.41,9.47h27.22Zm1.79,1.79-.45-.44V10.45l28,28ZM344,36.84,316.67,9.47H344Zm1.65,1.65-.31-.31V10.79l27.69,27.7Zm32-2.09L350.74,9.47h26.91ZM379,9.47h27.11L379,36.59Zm32.48,28.72-.31.3H383.78l27.7-27.7Zm1.34-28.72h27.35L412.82,36.84Zm33.05,28.58-.44.44H417.85l28-28Zm1.35-28.58h27.21L447.22,36.7ZM479.6,38.05l-.44.44H452.11L479.6,11ZM481,9.63l.16-.16h27.05L481,36.7Zm32.37,28.86H485.83L513.32,11Zm1.35-28.86.17-.16h27.72l-27.89,27.9Zm33.05,28.42-.44.44h-27L547.72,11Zm1.35-28.42.17-.16h27L549.07,36.7Zm29.4,28.86H554L578.47,14Z"/><g id="Schild_Teichmann_Krane_2" data-name="Schild Teichmann Krane 2"><rect class="cls-2" x="348.26" y="16.39" width="60.13" height="16.11"/><path class="cls-1" d="M408.82,32.93h-61V16h61Zm-60.13-.87H408V16.82H348.69Z"/><polygon class="cls-3" points="355.36 25 356.66 25 356.66 23.66 352.48 23.66 352.48 25 353.78 25 353.78 29.73 355.36 29.73 355.36 25"/><polygon class="cls-3" points="360.71 25 360.71 23.66 357.26 23.66 357.26 29.73 360.71 29.73 360.71 28.39 358.84 28.39 358.84 27.35 360.62 27.35 360.62 26.01 358.84 26.01 358.84 25 360.71 25"/><rect class="cls-1" x="361.72" y="23.66" width="1.58" height="6.07"/><path class="cls-3" d="M368.68,23.81a3.58,3.58,0,0,0-1.44-.31,3.31,3.31,0,0,0-2.31,1A3.22,3.22,0,0,0,364,26.7a3,3,0,0,0,1,2.3,3.4,3.4,0,0,0,2.28.89,4.46,4.46,0,0,0,1.39-.28V27.72a1.82,1.82,0,0,1-1.36.64,1.57,1.57,0,0,1-1.64-1.65A1.6,1.6,0,0,1,367.3,25a1.69,1.69,0,0,1,1.38.67Z"/><polygon class="cls-3" points="371.27 26 371.27 23.66 369.7 23.66 369.7 29.73 371.27 29.73 371.27 27.24 373.55 27.24 373.55 29.73 375.12 29.73 375.12 23.66 373.55 23.66 373.55 26 371.27 26"/><polygon class="cls-3" points="376.23 29.73 377.96 29.73 377.92 26.46 379.36 29.73 380.8 26.44 380.77 29.73 382.51 29.73 382.51 23.65 380.54 23.65 379.38 26.53 378.18 23.65 376.23 23.65 376.23 29.73"/><polygon class="cls-3" points="389.97 29.73 391.55 29.73 391.55 26.01 394.45 29.73 396.02 29.73 396.02 23.66 394.45 23.66 394.45 27.37 391.55 23.66 389.97 23.66 389.97 29.73"/><polygon class="cls-3" points="396.77 29.73 398.35 29.73 398.35 26.01 401.25 29.73 402.83 29.73 402.83 23.66 401.25 23.66 401.25 27.37 398.35 23.66 396.77 23.66 396.77 29.73"/><polygon class="cls-3" points="387.73 29.73 389.41 29.73 387.13 23.66 385.4 23.66 383.07 29.73 384.75 29.73 386.25 25.54 387.73 29.73"/><polygon class="cls-3" points="386.24 18.99 386.24 22.41 387.14 22.41 387.14 21.4 387.47 21.01 388.4 22.41 389.42 22.41 388.06 20.46 389.28 18.99 388.3 18.99 387.15 20.36 387.14 20.36 387.14 18.99 386.24 18.99"/><path class="cls-3" d="M390.22,22.41h.86V20.86c0-.34.34-.46.64-.46H392v-.63h-.15a.89.89,0,0,0-.78.41h0v-.35h-.83Z"/><path class="cls-3" d="M393.71,20.62v-.07c0-.2.14-.33.4-.33s.4.12.4.31-.08.25-.34.3l-.49.11c-.6.12-.86.32-.86.8a.73.73,0,0,0,.82.74.92.92,0,0,0,.86-.34h0a.9.9,0,0,0,.11.27h.83a.83.83,0,0,1-.11-.5V20.56c0-.47-.19-.79-1.22-.79-.65,0-1.19.2-1.19.79v.06Zm.8,1c0,.28-.3.4-.53.4a.32.32,0,0,1-.33-.36c0-.23.14-.36.49-.42a1.09,1.09,0,0,0,.37-.13Z"/><path class="cls-3" d="M396.59,22.41h.87V20.7c0-.29.16-.43.46-.43s.37.1.37.36v1.78h.87V20.5c0-.51-.33-.73-.86-.73a1,1,0,0,0-.87.37h0v-.31h-.83Z"/><path class="cls-3" d="M402.82,21.22v-.14c0-.8-.22-1.31-1.24-1.31s-1.34.64-1.34,1.33.05,1.38,1.31,1.38c.81,0,1.19-.34,1.22-.94H402c-.05.32-.17.49-.46.49s-.42-.3-.42-.6v-.21Zm-1.71-.39v-.1c0-.24.09-.51.44-.51s.42.22.44.61Z"/></g></g><g id="Hubhöhe"><rect class="cls-4" x="337.95" y="82.17" width="1.05" height="98.24"/><polygon class="cls-4" points="332.93 86.79 344.03 86.79 338.48 77.54 332.93 86.79"/><polygon class="cls-4" points="332.93 177.85 344.03 177.85 338.48 187.09 332.93 177.85"/><rect class="cls-4" x="337.86" y="196.58" width="1.05" height="43.88"/><polygon class="cls-4" points="332.83 200.08 343.93 200.08 338.38 190.83 332.83 200.08"/><polygon class="cls-4" points="332.83 235.84 343.93 235.84 338.38 245.09 332.83 235.84"/><path class="cls-4" d="M352.84,42.31h-2.67V41.2H325.29l-1.79,1v5l1.79,1.11h0v3h9.52l.67,8.39a4.55,4.55,0,0,0,1.66,7.94v.79H337c0,.5,0,1,0,1.51h.69v0c0,.23-.19.29-.17.54a1.26,1.26,0,0,0,.29.32,3.34,3.34,0,0,1,.46.78l.23.36.11.19c.2.28.41.58.61.88a.74.74,0,0,1,.17.53,1.43,1.43,0,0,1-.09.45,1,1,0,0,1-.87.63,1.07,1.07,0,0,1-.88-.31.6.6,0,0,0-.08-.08c0-.08-.09-.16-.12-.25s-.05-.26-.08-.41a2.44,2.44,0,0,0-.11-.32,2.65,2.65,0,0,0-.11-.3,1.53,1.53,0,0,0-.33-.62s-.05,0-.08-.06a.42.42,0,0,0-.52.17c-.09.23,0,.49,0,.79l0,.16c0,.15,0,.33-.05.5v.38a2.72,2.72,0,0,0,.49,1.31,2.9,2.9,0,0,0,.64.62,2.53,2.53,0,0,0,1.34.45h.33a3.15,3.15,0,0,0,2-.89,3.27,3.27,0,0,0,.81-1.36,4.61,4.61,0,0,0,.11-.6v-.35h0a3.28,3.28,0,0,0-.33-1.32c-.06,0-.1-.17-.16-.25s-.06,0,0-.07-.07-.08-.11-.12a3.08,3.08,0,0,0-.39-.42l-.57-.5a6.62,6.62,0,0,1-.58-.51,2.2,2.2,0,0,1-.28-.34h.47c0-.48,0-1,0-1.5,0,0,0,0,0,0h-.11v-.83a4.55,4.55,0,0,0,1.24-8.11l.66-8.18h9.82V48.09h-1.22v-.88h2.67l.4-.61V42.93ZM340.33,59.14a4.61,4.61,0,0,0-2-.46,4.53,4.53,0,0,0-2.28.62l-.65-8H341Z"/></g><g id="Feststütze"><path class="cls-4" d="M214.15,166.32,245.27,4.68l-5.13,0L229.46,58.94H190.17L179.82,4.68l-5.47,0,31.09,161.43V176.4l-2.6,3.73V186h5a2,2,0,0,0,4,0h5v-5.88l-2.64-3.9ZM190.52,60.75h38.59l-5.33,27.57H195.85Zm5.68,29.38h27.23l-12.57,65h-2.09Z"/></g><g id="Ausladung"><path class="cls-4" d="M214.15,166.32,245.27,4.68l-5.13,0L229.46,58.94H190.17L179.82,4.68l-5.47,0,31.09,161.43V176.4l-2.6,3.73V186h5a2,2,0,0,0,4,0h5v-5.88l-2.64-3.9ZM190.52,60.75h38.59l-5.33,27.57H195.85Zm5.68,29.38h27.23l-12.57,65h-2.09Z"/><rect class="cls-4" x="77.12" y="188.28" width="118.48" height="1.05"/><polygon class="cls-4" points="79.19 183.25 79.19 194.35 69.94 188.8 79.19 183.25"/><polygon class="cls-4" points="190.97 183.25 190.97 194.35 200.22 188.8 190.97 183.25"/><rect class="cls-4" x="598.27" y="188.28" width="93.97" height="1.05"/><polygon class="cls-4" points="600.35 183.25 600.35 194.35 591.1 188.8 600.35 183.25"/><polygon class="cls-4" points="687.58 183.25 687.58 194.35 696.83 188.8 687.58 183.25"/><path class="cls-4" d="M761.66,38.44h-2.78l-29-29H732V4.7H587.64V11l27.44,27.45H587.64v4.73h95v4l1.78,1.11h0v3h9.51l.68,8.39a4.55,4.55,0,0,0,1.66,7.94c0,.27,0,.55,0,.79h-.1c0,.5,0,1,0,1.51h.7v0c0,.23-.19.29-.17.54a1.1,1.1,0,0,0,.29.32,3.73,3.73,0,0,1,.46.78l.23.36.11.19c.2.28.41.58.61.88a.79.79,0,0,1,.17.53,1.43,1.43,0,0,1-.09.45,1,1,0,0,1-.87.63,1.06,1.06,0,0,1-.88-.31.6.6,0,0,0-.08-.08,1.92,1.92,0,0,1-.12-.25,2.7,2.7,0,0,1-.08-.41,2.44,2.44,0,0,0-.11-.32l-.11-.3a1.66,1.66,0,0,0-.33-.62s0,0-.09-.06a.41.41,0,0,0-.51.17,2.9,2.9,0,0,0,0,.79.88.88,0,0,1,0,.16c0,.15,0,.33,0,.5v.38a2.63,2.63,0,0,0,.49,1.31,2.9,2.9,0,0,0,.64.62,2.53,2.53,0,0,0,1.34.45H698a3.09,3.09,0,0,0,2.8-2.25,2.67,2.67,0,0,0,.11-.6v-.35h0a3.45,3.45,0,0,0-.33-1.32c-.06,0-.1-.17-.16-.25s-.06,0,0-.07-.08-.08-.11-.12a3.08,3.08,0,0,0-.39-.42l-.57-.5a6.62,6.62,0,0,1-.58-.51,2.28,2.28,0,0,1-.29-.34h.48c0-.48,0-1,0-1.5,0,0,0,0,0,0h-.11v-.83A4.55,4.55,0,0,0,700,59.48l.66-8.18h9.83V48.09H709.3v-.88H712l.4-.61V43.17h49.29Zm-62.21,20.7a4.5,4.5,0,0,0-4.26.16l-.65-8h5.55ZM688.09,9.43V36.79L660.74,9.43ZM620,36.65,592.75,9.43h27l.16.16Zm1.79,1.79-.44-.44V10.94l27.49,27.5Zm31.94-1.79L626.48,9.43h27.21ZM655,38V10.4l28,28H655.48Zm34.7.44-.3-.3V10.74l27.68,27.7Zm33.42-.64L694.8,9.43h28.36Zm1.35.64V10.74l27.69,27.7Z"/><path class="cls-4" d="M179.91,4.7H35.61V9.42h2.11l-29,29H5.93v4.73H54.15v4l1.79,1.11h0v3h9.52l.68,8.39a4.55,4.55,0,0,0,1.65,7.94v.79H67.7c0,.5,0,1,0,1.51h.7v0c0,.23-.2.29-.18.54a1.14,1.14,0,0,0,.3.32,4.22,4.22,0,0,1,.46.78,3.61,3.61,0,0,0,.23.36l.11.19.61.88a.84.84,0,0,1,.17.53A1.79,1.79,0,0,1,70,74a1,1,0,0,1-.88.63,1,1,0,0,1-.87-.31l-.08-.08A2,2,0,0,1,68,74c0-.14,0-.26-.08-.41a2.33,2.33,0,0,0-.1-.32c0-.1-.08-.21-.12-.3a1.52,1.52,0,0,0-.32-.62.47.47,0,0,0-.09-.06.43.43,0,0,0-.52.17,3.41,3.41,0,0,0,0,.79s0,.11,0,.16,0,.33,0,.5v.38a2.72,2.72,0,0,0,.48,1.31,3.14,3.14,0,0,0,.64.62,2.56,2.56,0,0,0,1.35.45h.32a3.09,3.09,0,0,0,2.8-2.25,4.61,4.61,0,0,0,.11-.6v-.35h0a3.28,3.28,0,0,0-.33-1.32,1.37,1.37,0,0,1-.15-.25s-.07,0,0-.07-.07-.08-.1-.12a3.16,3.16,0,0,0-.4-.42l-.56-.5a6.7,6.7,0,0,1-.59-.51,3,3,0,0,1-.28-.34h.48c0-.48,0-1,0-1.5,0,0,0,0,0,0h-.1v-.83a4.55,4.55,0,0,0,1.23-8.11l.66-8.18H82V48.09H80.83v-.88H83.5l.4-.61V43.17h96V38.44h-27.4L179.91,11ZM71,59.14a4.52,4.52,0,0,0-4.27.16l-.65-8h5.55ZM79.5,9.42h27.35L79.5,36.79Zm-36.42,29H15.39l27.69-27.7Zm1.35-29H72.79L44.43,37.8Zm33.72,1.32v27.4l-.3.3H50.47ZM112.55,38l-.44.44H84.53l28-28ZM113.9,9.42h27.22L113.9,36.65ZM146.28,38l-.44.44h-27l27.49-27.5Zm1.35-1.35V9.59l.16-.17h27.05Z"/></g><g id="Steuerung"><g id="Krankabine_2" data-name="Krankabine 2"><path class="cls-4" d="M260.34,45.34V90l28.3.05,8.5-44.77Zm27.1,42.52H262.49V47.48l32.66,0Z"/><path class="cls-4" d="M282.41,83.13l-4.64-9.22a1.61,1.61,0,0,0-1.67-.86,2,2,0,0,0-.24,0H273.1a4.57,4.57,0,0,0,.53-2.16V63.62a4.57,4.57,0,0,0-2.76-4.21,4.27,4.27,0,1,0-3.92-.1,4.6,4.6,0,0,0-3,4.31V73.76a4.09,4.09,0,0,0,0,.53,2,2,0,0,0,0,.35,1.62,1.62,0,0,0,1.62,1.62h9.78l4.19,8.33a1.62,1.62,0,1,0,2.89-1.46Z"/></g><path class="cls-4" d="M483.86,151.74h-2.12v-15h-.57v15h-2.6A1.24,1.24,0,0,0,477.3,153v23.41a1.24,1.24,0,0,0,1.27,1.21h5.29a1.24,1.24,0,0,0,1.27-1.21V153A1.24,1.24,0,0,0,483.86,151.74Zm1,24.38a1.18,1.18,0,0,1-1.18,1.18h-4.93a1.18,1.18,0,0,1-1.18-1.18V153.19a1.18,1.18,0,0,1,1.18-1.18h4.93a1.18,1.18,0,0,1,1.18,1.18Z"/><path class="cls-4" d="M483.32,152.55h-4.2a1.08,1.08,0,0,0-1,1.13v21.95a1.07,1.07,0,0,0,1,1.13h4.2a1.07,1.07,0,0,0,1-1.13V153.68A1.08,1.08,0,0,0,483.32,152.55Zm-1.94,22.13a1.34,1.34,0,1,1,1.34-1.34A1.34,1.34,0,0,1,481.38,174.68Zm0-3.49a1.34,1.34,0,1,1,1.34-1.34A1.34,1.34,0,0,1,481.38,171.19Zm0-3.52a1.34,1.34,0,1,1,1.34-1.34A1.34,1.34,0,0,1,481.38,167.67Zm0-3.5a1.34,1.34,0,1,1,1.34-1.33A1.33,1.33,0,0,1,481.38,164.17Zm0-3.72a1.34,1.34,0,1,1,1.34-1.34A1.34,1.34,0,0,1,481.38,160.45Zm0-3.72a1.34,1.34,0,1,1,1.34-1.34A1.34,1.34,0,0,1,481.38,156.73Z"/><path class="cls-4" d="M438.77,149.63a4.4,4.4,0,0,0-.07.73,3.89,3.89,0,0,0,7.78,0,4.4,4.4,0,0,0-.07-.73Z"/><path class="cls-4" d="M438.39,148.46h8.85a.76.76,0,0,0,0-1.51H447a4.57,4.57,0,0,0-9.07.15.77.77,0,0,0-.3.6A.76.76,0,0,0,438.39,148.46Z"/><path class="cls-4" d="M457.16,157.82a6.46,6.46,0,0,1-2.1-4.76,6.39,6.39,0,0,1,2.11-4.75l-.68-.74a7.42,7.42,0,0,0,0,11Z"/><path class="cls-4" d="M457.76,157.16l.67-.75a4.51,4.51,0,0,1,0-6.7l-.67-.75a5.53,5.53,0,0,0,0,8.2Z"/><path class="cls-4" d="M459.1,155.67l.68-.75a2.59,2.59,0,0,1,0-3.72l-.68-.74a3.53,3.53,0,0,0,0,5.21Z"/><path class="cls-4" d="M466.74,157.82l.68.74a7.41,7.41,0,0,0,0-11l-.68.74a6.41,6.41,0,0,1,0,9.51Z"/><path class="cls-4" d="M465.48,156.41l.67.75a5.53,5.53,0,0,0,0-8.2l-.67.75a4.51,4.51,0,0,1,0,6.7Z"/><path class="cls-4" d="M464.81,155.67a3.53,3.53,0,0,0,0-5.21l-.68.74a2.59,2.59,0,0,1,0,3.72Z"/><path class="cls-4" d="M462.19,153.06c0-.2-.17-.52-.32-.52s-.27.32-.27.52l-.08,7.63h-5.9v2.37l-2.63-.87a.18.18,0,0,1-.07-.05L448,155.4H437l-2.74,3.85v10.64a1.8,1.8,0,0,0,3.6,0V161a.26.26,0,0,1,.24-.27.28.28,0,0,1,.29.27v23.54a1.94,1.94,0,0,0,2,1.92h0a1.94,1.94,0,0,0,2-1.92V172.89a.18.18,0,0,1,.18-.17H443a.18.18,0,0,1,.18.17v11.69a2,2,0,0,0,2,1.92h0a2,2,0,0,0,2-1.92V161.3a.17.17,0,0,1,.3-.12c1,1.13,3,3.53,3,3.53a36.55,36.55,0,0,0,5.12,1.9v3.88h12.51v-9.8h-5.9Z"/></g><g id="Spurweite"><rect class="cls-4" x="222.58" y="188.28" width="344.05" height="1.05"/><polygon class="cls-4" points="227.19 183.25 227.19 194.35 217.94 188.8 227.19 183.25"/><polygon class="cls-4" points="564.13 183.25 564.13 194.35 573.38 188.8 564.13 183.25"/></g><g id="Traglast"><path class="cls-4" d="M352.84,42.31h-2.67V41.2H325.29l-1.79,1v5l1.79,1.11h0v3h9.52l.67,8.39a4.55,4.55,0,0,0,1.66,7.94v.79H337c0,.5,0,1,0,1.51h.69v0c0,.23-.19.29-.17.54a1.26,1.26,0,0,0,.29.32,3.34,3.34,0,0,1,.46.78l.23.36.11.19c.2.28.41.58.61.88a.74.74,0,0,1,.17.53,1.43,1.43,0,0,1-.09.45,1,1,0,0,1-.87.63,1.07,1.07,0,0,1-.88-.31.6.6,0,0,0-.08-.08c0-.08-.09-.16-.12-.25s-.05-.26-.08-.41a2.44,2.44,0,0,0-.11-.32,2.65,2.65,0,0,0-.11-.3,1.53,1.53,0,0,0-.33-.62s-.05,0-.08-.06a.42.42,0,0,0-.52.17c-.09.23,0,.49,0,.79l0,.16c0,.15,0,.33-.05.5v.38a2.72,2.72,0,0,0,.49,1.31,2.9,2.9,0,0,0,.64.62,2.53,2.53,0,0,0,1.34.45h.33a3.15,3.15,0,0,0,2-.89,3.27,3.27,0,0,0,.81-1.36,4.61,4.61,0,0,0,.11-.6v-.35h0a3.28,3.28,0,0,0-.33-1.32c-.06,0-.1-.17-.16-.25s-.06,0,0-.07-.07-.08-.11-.12a3.08,3.08,0,0,0-.39-.42l-.57-.5a6.62,6.62,0,0,1-.58-.51,2.2,2.2,0,0,1-.28-.34h.47c0-.48,0-1,0-1.5,0,0,0,0,0,0h-.11v-.83a4.55,4.55,0,0,0,1.24-8.11l.66-8.18h9.82V48.09h-1.22v-.88h2.67l.4-.61V42.93ZM340.33,59.14a4.61,4.61,0,0,0-2-.46,4.53,4.53,0,0,0-2.28.62l-.65-8H341Z"/></g></svg>