<svg xmlns="http://www.w3.org/2000/svg" viewBox="0 0 755.72 249.22"><defs><style>.cls-1,.cls-3{fill:#005a96;}.cls-2,.cls-4{fill:#fff;}.cls-2{stroke:#005a96;stroke-miterlimit:10;stroke-width:0.82px;}.cls-3{fill-rule:evenodd;}.cls-5{fill:none;}.cls-6{fill:#0aa;}</style></defs><title>Portalkran_Vollwand_zentriert</title><g id="Basis"><rect class="cls-1" x="174.34" y="0.02" width="407.08" height="4.03"/><path class="cls-1" d="M585.82,173.26V10.85H178.74V41.94H577.18V173.46L574,177.64v5.83h5.74a2,2,0,0,0,4,0H589v-5.83Z" transform="translate(-4.4 -4.02)"/><rect class="cls-2" x="343.34" y="11.62" width="59.93" height="16.05"/><polygon class="cls-3" points="350.42 20.2 351.71 20.2 351.71 18.87 347.54 18.87 347.54 20.2 348.85 20.2 348.85 24.91 350.42 24.91 350.42 20.2"/><polygon class="cls-3" points="355.75 20.2 355.75 18.87 352.32 18.87 352.32 24.91 355.75 24.91 355.75 23.58 353.89 23.58 353.89 22.54 355.66 22.54 355.66 21.21 353.89 21.21 353.89 20.2 355.75 20.2"/><rect class="cls-1" x="356.76" y="18.87" width="1.57" height="6.04"/><path class="cls-3" d="M368.09,23a3.7,3.7,0,0,0-1.43-.3,3.27,3.27,0,0,0-2.3,1,3.13,3.13,0,0,0-.89,2.21,2.93,2.93,0,0,0,1,2.28,3.36,3.36,0,0,0,2.27.89,4.41,4.41,0,0,0,1.38-.28V26.93a1.81,1.81,0,0,1-1.35.64,1.57,1.57,0,0,1-1.64-1.64,1.6,1.6,0,0,1,1.62-1.68,1.68,1.68,0,0,1,1.37.67Z" transform="translate(-4.4 -4.02)"/><polygon class="cls-3" points="366.28 21.2 366.28 18.87 364.7 18.87 364.7 24.91 366.28 24.91 366.28 22.43 368.55 22.43 368.55 24.91 370.12 24.91 370.12 18.87 368.55 18.87 368.55 21.2 366.28 21.2"/><polygon class="cls-3" points="371.21 24.91 372.95 24.91 372.9 21.65 374.34 24.91 375.78 21.64 375.74 24.91 377.47 24.91 377.47 18.86 375.52 18.86 374.36 21.72 373.16 18.86 371.21 18.86 371.21 24.91"/><polygon class="cls-3" points="384.91 24.91 386.48 24.91 386.48 21.21 389.38 24.91 390.94 24.91 390.94 18.87 389.38 18.87 389.38 22.56 386.48 18.87 384.91 18.87 384.91 24.91"/><polygon class="cls-3" points="391.69 24.91 393.26 24.91 393.26 21.21 396.15 24.91 397.73 24.91 397.73 18.87 396.15 18.87 396.15 22.56 393.26 18.87 391.69 18.87 391.69 24.91"/><polygon class="cls-3" points="382.68 24.91 384.35 24.91 382.08 18.87 380.36 18.87 378.04 24.91 379.7 24.91 381.2 20.73 382.68 24.91"/><polygon class="cls-3" points="381.19 14.21 381.19 17.62 382.09 17.62 382.09 16.61 382.42 16.22 383.35 17.62 384.36 17.62 383.01 15.68 384.22 14.21 383.25 14.21 382.1 15.58 382.09 15.58 382.09 14.21 381.19 14.21"/><path class="cls-3" d="M389.56,21.64h.86V20.1c0-.34.34-.46.64-.46h.27V19h-.16a.89.89,0,0,0-.77.41h0v-.34h-.82Z" transform="translate(-4.4 -4.02)"/><path class="cls-3" d="M393,19.86v-.07c0-.2.13-.33.4-.33s.4.12.4.31-.09.25-.34.3l-.49.1c-.6.13-.85.32-.85.81a.72.72,0,0,0,.81.73.94.94,0,0,0,.86-.33h0a.73.73,0,0,0,.11.26h.82a.85.85,0,0,1-.1-.49V19.8c0-.47-.2-.79-1.22-.79-.66,0-1.19.2-1.19.79v.06Zm.8,1c0,.28-.3.39-.53.39a.32.32,0,0,1-.33-.36c0-.23.14-.35.49-.41a1.17,1.17,0,0,0,.37-.13Z" transform="translate(-4.4 -4.02)"/><path class="cls-3" d="M395.91,21.64h.86v-1.7c0-.29.17-.43.46-.43s.37.11.37.36v1.77h.87v-1.9c0-.51-.32-.73-.86-.73a1,1,0,0,0-.86.37h0v-.3h-.83Z" transform="translate(-4.4 -4.02)"/><path class="cls-3" d="M402.12,20.46v-.15c0-.79-.23-1.3-1.23-1.3-1.17,0-1.34.64-1.34,1.33s.05,1.37,1.3,1.37c.81,0,1.19-.33,1.22-.93h-.78c-.05.32-.17.48-.45.48s-.43-.29-.43-.6v-.2Zm-1.71-.39V20c0-.24.1-.51.44-.51s.42.22.44.61Z" transform="translate(-4.4 -4.02)"/><g id="Schild_Teichmann_Krane_6" data-name="Schild Teichmann Krane 6"><rect class="cls-4" x="343.34" y="11.62" width="59.93" height="16.04"/><polygon class="cls-3" points="350.42 20.2 351.71 20.2 351.71 18.87 347.54 18.87 347.54 20.2 348.85 20.2 348.85 24.91 350.42 24.91 350.42 20.2"/><polygon class="cls-3" points="355.75 20.2 355.75 18.87 352.32 18.87 352.32 24.91 355.75 24.91 355.75 23.58 353.89 23.58 353.89 22.54 355.66 22.54 355.66 21.21 353.89 21.21 353.89 20.2 355.75 20.2"/><rect class="cls-1" x="356.76" y="18.87" width="1.57" height="6.04"/><path class="cls-3" d="M368.09,23a3.7,3.7,0,0,0-1.43-.3,3.27,3.27,0,0,0-2.3,1,3.13,3.13,0,0,0-.89,2.21,2.93,2.93,0,0,0,1,2.28,3.36,3.36,0,0,0,2.27.89,4.41,4.41,0,0,0,1.38-.28V26.93a1.81,1.81,0,0,1-1.35.64,1.57,1.57,0,0,1-1.64-1.64,1.6,1.6,0,0,1,1.62-1.68,1.68,1.68,0,0,1,1.37.67Z" transform="translate(-4.4 -4.02)"/><polygon class="cls-3" points="366.28 21.2 366.28 18.87 364.7 18.87 364.7 24.91 366.28 24.91 366.28 22.43 368.55 22.43 368.55 24.91 370.12 24.91 370.12 18.87 368.55 18.87 368.55 21.2 366.28 21.2"/><polygon class="cls-3" points="371.21 24.91 372.95 24.91 372.9 21.65 374.34 24.91 375.78 21.64 375.74 24.91 377.47 24.91 377.47 18.86 375.52 18.86 374.36 21.72 373.16 18.86 371.21 18.86 371.21 24.91"/><polygon class="cls-3" points="384.91 24.91 386.48 24.91 386.48 21.21 389.38 24.91 390.94 24.91 390.94 18.87 389.38 18.87 389.38 22.56 386.48 18.87 384.91 18.87 384.91 24.91"/><polygon class="cls-3" points="391.69 24.91 393.26 24.91 393.26 21.21 396.15 24.91 397.73 24.91 397.73 18.87 396.15 18.87 396.15 22.56 393.26 18.87 391.69 18.87 391.69 24.91"/><polygon class="cls-3" points="382.68 24.91 384.35 24.91 382.08 18.87 380.36 18.87 378.04 24.91 379.7 24.91 381.2 20.73 382.68 24.91"/><polygon class="cls-3" points="381.19 14.21 381.19 17.62 382.09 17.62 382.09 16.61 382.42 16.22 383.35 17.62 384.36 17.62 383.01 15.68 384.22 14.21 383.25 14.21 382.1 15.58 382.09 15.58 382.09 14.21 381.19 14.21"/><path class="cls-3" d="M389.56,21.64h.86V20.1c0-.34.34-.46.64-.46h.27V19h-.16a.89.89,0,0,0-.77.41h0v-.34h-.82Z" transform="translate(-4.4 -4.02)"/><path class="cls-3" d="M393,19.86v-.07c0-.2.13-.33.4-.33s.4.12.4.31-.09.25-.34.3l-.49.1c-.6.13-.85.32-.85.81a.72.72,0,0,0,.81.73.94.94,0,0,0,.86-.33h0a.73.73,0,0,0,.11.26h.82a.85.85,0,0,1-.1-.49V19.8c0-.47-.2-.79-1.22-.79-.66,0-1.19.2-1.19.79v.06Zm.8,1c0,.28-.3.39-.53.39a.32.32,0,0,1-.33-.36c0-.23.14-.35.49-.41a1.17,1.17,0,0,0,.37-.13Z" transform="translate(-4.4 -4.02)"/><path class="cls-3" d="M395.91,21.64h.86v-1.7c0-.29.17-.43.46-.43s.37.11.37.36v1.77h.87v-1.9c0-.51-.32-.73-.86-.73a1,1,0,0,0-.86.37h0v-.3h-.83Z" transform="translate(-4.4 -4.02)"/><path class="cls-3" d="M402.12,20.46v-.15c0-.79-.23-1.3-1.23-1.3-1.17,0-1.34.64-1.34,1.33s.05,1.37,1.3,1.37c.81,0,1.19-.33,1.22-.93h-.78c-.05.32-.17.48-.45.48s-.43-.29-.43-.6v-.2Zm-1.71-.39V20c0-.24.1-.51.44-.51s.42.22.44.61Z" transform="translate(-4.4 -4.02)"/></g><polygon class="cls-5" points="236.52 148.15 239.42 148.15 264.55 37.94 211.4 37.94 236.52 148.15"/></g><g id="Hubhöhe"><rect class="cls-6" x="382.92" y="82.57" width="1.24" height="93.14"/><polygon class="cls-6" points="377.02 88 390.06 88 383.54 77.14 377.02 88"/><polygon class="cls-6" points="377.02 170.24 390.06 170.24 383.54 181.1 377.02 170.24"/><rect class="cls-6" x="382.81" y="192.24" width="1.24" height="51.54"/><polygon class="cls-6" points="376.9 196.35 389.94 196.35 383.42 185.49 376.9 196.35"/><polygon class="cls-6" points="376.9 238.36 389.94 238.36 383.42 249.22 376.9 238.36"/></g><g id="Ausladung"><path class="cls-6" d="M275.75,42h-6.67L244,152.17h-2.9L215.94,42h-6.67l28.78,126.26,0,5.78h.1l-2.48,3.67v5.83h4.93a2,2,0,0,0,4,0h4.93v-5.83L246.92,174l0-5.65Z" transform="translate(-4.4 -4.02)"/><rect class="cls-6" x="55.17" y="182.47" width="172.08" height="1.24"/><polygon class="cls-6" points="57.62 176.57 57.62 189.61 46.76 183.08 57.62 176.57"/><polygon class="cls-6" points="220.23 176.57 220.23 189.61 231.09 183.08 220.23 176.57"/><rect class="cls-6" x="593.18" y="182.47" width="106.56" height="1.24"/><polygon class="cls-6" points="595.62 176.57 595.62 189.61 584.76 183.08 595.62 176.57"/><polygon class="cls-6" points="699.73 176.57 699.73 189.61 710.6 183.08 699.73 176.57"/><path class="cls-6" d="M4.4,30.57V41.94H34.19v3.59l2.1,1.31h0v3.49H47.47l.8,9.86a5.34,5.34,0,0,0,1.94,9.32v.94H50.1c0,.59,0,1.2,0,1.77h.82v0c0,.28-.23.35-.21.64a1.8,1.8,0,0,0,.35.38,4.05,4.05,0,0,1,.54.91l.27.43c0,.07.08.14.13.21.24.33.48.68.72,1a1,1,0,0,1,.2.63,2.37,2.37,0,0,1-.11.52,1.18,1.18,0,0,1-1,.74,1.25,1.25,0,0,1-1-.36.43.43,0,0,0-.1-.09,2.75,2.75,0,0,1-.14-.3c0-.16-.06-.31-.1-.49s-.08-.25-.12-.37-.09-.24-.14-.35a1.8,1.8,0,0,0-.38-.73.23.23,0,0,0-.1-.07.52.52,0,0,0-.61.2,3.57,3.57,0,0,0,0,.93l0,.19c0,.18,0,.39-.06.58v.45a3.24,3.24,0,0,0,.57,1.54,3.21,3.21,0,0,0,.75.72,3,3,0,0,0,1.58.54h.38a3.65,3.65,0,0,0,3.29-2.64,5,5,0,0,0,.13-.71v-.41h0a3.91,3.91,0,0,0-.39-1.55,1.83,1.83,0,0,1-.18-.29s-.08-.06,0-.09-.09-.09-.12-.14a3.61,3.61,0,0,0-.47-.49l-.66-.59q-.34-.27-.69-.6a2.13,2.13,0,0,1-.33-.4h.56c0-.57,0-1.17,0-1.76,0,0,0,0,0,0h-.12v-1a5.35,5.35,0,0,0,1.45-9.53l.77-9.61H67V46.56H65.52v-1h3.14l.47-.72V41.94H177.9V10.85H24.48ZM54,59.55a5.34,5.34,0,0,0-5,.18l-.76-9.4H54.7Z" transform="translate(-4.4 -4.02)"/><polygon class="cls-6" points="27.47 0.02 23.36 4.05 173.5 4.05 173.5 0.02 27.47 0.02"/><path class="cls-6" d="M760.12,30.55,740,10.83H586.62V41.92h110.8v3.61l2.1,1.31h0v3.49h11.18l.79,9.86a5.35,5.35,0,0,0,2,9.32c0,.32,0,.65,0,.94h-.11c0,.59,0,1.2,0,1.77h.81s0,0,0,0c0,.28-.23.35-.21.64s.22.25.34.38a4.08,4.08,0,0,1,.55.91c.08.14.17.28.27.43a2.39,2.39,0,0,0,.13.21l.71,1a.9.9,0,0,1,.2.63,1.92,1.92,0,0,1-.1.52,1.2,1.2,0,0,1-1,.74,1.29,1.29,0,0,1-1-.36l-.09-.09a2.8,2.8,0,0,1-.15-.3c0-.16,0-.31-.09-.49l-.12-.37c0-.12-.1-.24-.14-.35a1.8,1.8,0,0,0-.38-.73.34.34,0,0,0-.11-.07.5.5,0,0,0-.6.2c-.11.27,0,.58,0,.93,0,.06,0,.12,0,.19s0,.39-.06.58v.45a3.14,3.14,0,0,0,.57,1.54,3.21,3.21,0,0,0,.75.72,3,3,0,0,0,1.58.54h.38a3.72,3.72,0,0,0,2.34-1,3.65,3.65,0,0,0,.94-1.59,3.89,3.89,0,0,0,.13-.71v-.41h0a3.76,3.76,0,0,0-.38-1.55c-.07,0-.12-.2-.18-.29s-.08-.06-.05-.09-.08-.09-.12-.14a4.24,4.24,0,0,0-.46-.49c-.23-.19-.44-.4-.67-.59a7.49,7.49,0,0,1-.68-.6,2.18,2.18,0,0,1-.34-.4h.56c0-.57,0-1.17,0-1.76,0,0,0,0,0,0h-.13v-1a5.35,5.35,0,0,0,1.45-9.53l.78-9.61h11.53V46.56h-1.42v-1h3.13l.47-.72V41.92h27.76Zm-42.93,29a5.32,5.32,0,0,0-5,.18l-.76-9.4h6.52Z" transform="translate(-4.4 -4.02)"/><polygon class="cls-6" points="728.26 0 582.23 0 582.23 4.03 732.36 4.03 728.26 0"/></g><g id="Spurweite"><rect class="cls-6" x="254.54" y="182.47" width="306.61" height="1.24"/><polygon class="cls-6" points="257 176.57 257 189.61 246.14 183.08 257 176.57"/><polygon class="cls-6" points="558.02 176.57 558.02 189.61 568.89 183.08 558.02 176.57"/></g><g id="Steuerung"><g id="Krankabine_2" data-name="Krankabine 2"><path class="cls-6" d="M317.72,44.11V90.93l29.69.06L356.33,44Zm28.43,44.6-26.18,0V46.36l34.26,0Z" transform="translate(-4.4 -4.02)"/><path class="cls-6" d="M340.87,83.75,336,74.08a1.7,1.7,0,0,0-1.76-.91l-.25,0h-2.9a4.83,4.83,0,0,0,.56-2.27V63.29a4.8,4.8,0,0,0-2.9-4.42,4.47,4.47,0,1,0-4.11-.1,4.8,4.8,0,0,0-3.16,4.52V73.91a3.2,3.2,0,0,0,0,.56,1.5,1.5,0,0,0,0,.37,1.69,1.69,0,0,0,1.69,1.7h10.26l4.4,8.73a1.69,1.69,0,0,0,2.27.76A1.7,1.7,0,0,0,340.87,83.75Z" transform="translate(-4.4 -4.02)"/></g><path class="cls-6" d="M500.21,143.6h-2.49V126h-.67V143.6H494A1.46,1.46,0,0,0,492.5,145v27.5a1.46,1.46,0,0,0,1.49,1.42h6.22a1.46,1.46,0,0,0,1.49-1.42V145A1.46,1.46,0,0,0,500.21,143.6Zm1.17,28.63a1.39,1.39,0,0,1-1.39,1.39h-5.78a1.39,1.39,0,0,1-1.39-1.39V145.3a1.38,1.38,0,0,1,1.39-1.38H500a1.38,1.38,0,0,1,1.39,1.38Z" transform="translate(-4.4 -4.02)"/><path class="cls-6" d="M499.57,144.55h-4.94a1.26,1.26,0,0,0-1.18,1.33v25.78a1.26,1.26,0,0,0,1.18,1.33h4.94a1.26,1.26,0,0,0,1.18-1.33V145.88A1.26,1.26,0,0,0,499.57,144.55Zm-2.28,26a1.57,1.57,0,1,1,1.57-1.57A1.57,1.57,0,0,1,497.29,170.54Zm0-4.1a1.58,1.58,0,1,1,1.57-1.57A1.57,1.57,0,0,1,497.29,166.44Zm0-4.14a1.57,1.57,0,1,1,1.57-1.57A1.57,1.57,0,0,1,497.29,162.3Zm0-4.1a1.57,1.57,0,1,1,1.57-1.57A1.57,1.57,0,0,1,497.29,158.2Zm0-4.37a1.58,1.58,0,1,1,1.57-1.57A1.57,1.57,0,0,1,497.29,153.83Zm0-4.38a1.57,1.57,0,1,1,1.57-1.57A1.57,1.57,0,0,1,497.29,149.45Z" transform="translate(-4.4 -4.02)"/><path class="cls-6" d="M447.24,141.12a4.91,4.91,0,0,0-.08.86,4.57,4.57,0,1,0,9.13,0,4.91,4.91,0,0,0-.08-.86Z" transform="translate(-4.4 -4.02)"/><path class="cls-6" d="M446.79,139.74h10.39a.89.89,0,0,0,0-1.77h-.24a5.38,5.38,0,0,0-10.67.17.92.92,0,0,0-.34.71A.87.87,0,0,0,446.79,139.74Z" transform="translate(-4.4 -4.02)"/><path class="cls-6" d="M468.84,150.73a7.52,7.52,0,0,1,0-11.16l-.8-.88a8.71,8.71,0,0,0,0,12.91Z" transform="translate(-4.4 -4.02)"/><path class="cls-6" d="M469.54,150l.79-.88a5.29,5.29,0,0,1,0-7.86l-.79-.89a6.51,6.51,0,0,0,0,9.63Z" transform="translate(-4.4 -4.02)"/><path class="cls-6" d="M471.12,148.21l.8-.87a3,3,0,0,1,0-4.38l-.8-.87a4.14,4.14,0,0,0,0,6.12Z" transform="translate(-4.4 -4.02)"/><path class="cls-6" d="M480.1,150.73l.79.88a8.71,8.71,0,0,0,0-12.92l-.79.88a7.52,7.52,0,0,1,0,11.16Z" transform="translate(-4.4 -4.02)"/><path class="cls-6" d="M478.61,149.08l.79.88a6.49,6.49,0,0,0,0-9.63l-.79.89a5.29,5.29,0,0,1,0,7.86Z" transform="translate(-4.4 -4.02)"/><path class="cls-6" d="M477.82,148.21a4.12,4.12,0,0,0,0-6.12L477,143a3,3,0,0,1,0,4.38Z" transform="translate(-4.4 -4.02)"/><path class="cls-6" d="M474.75,145.14c0-.22-.2-.6-.37-.6s-.32.38-.32.6l-.1,9H467v2.78l-3.08-1a.15.15,0,0,1-.09-.06l-5.75-7.91H445.17L442,152.42v12.5a2.11,2.11,0,0,0,4.22,0v-10.4a.32.32,0,0,1,.28-.32.33.33,0,0,1,.34.32v27.65a2.29,2.29,0,0,0,2.31,2.25h0a2.28,2.28,0,0,0,2.3-2.25V168.44a.2.2,0,0,1,.21-.2h.55a.21.21,0,0,1,.21.2v13.73a2.31,2.31,0,0,0,2.34,2.25h0a2.31,2.31,0,0,0,2.33-2.25V167.08l0-12.26a.21.21,0,0,1,.36-.14c1.21,1.34,3.57,4.15,3.57,4.15a45.34,45.34,0,0,0,6,2.24v4.55h14.7V154.11H474.8Z" transform="translate(-4.4 -4.02)"/></g><g id="Traglast"><path class="cls-6" d="M404.81,39.78h-3.14V38.47H372.44l-2.1,1.24v5.82l2.1,1.31h0v3.49h11.18l.8,9.86a5.34,5.34,0,0,0,1.94,9.32v.94h-.11c0,.59,0,1.2,0,1.77h.82v0c0,.28-.23.35-.21.64a1.57,1.57,0,0,0,.35.38,4.05,4.05,0,0,1,.54.91l.27.43c.05.07.08.14.13.21.24.33.48.68.72,1a1,1,0,0,1,.2.63A2.37,2.37,0,0,1,389,77a1.2,1.2,0,0,1-1,.74,1.25,1.25,0,0,1-1-.36.43.43,0,0,0-.1-.09c0-.1-.11-.19-.15-.3s0-.31-.09-.49-.08-.25-.12-.37-.09-.24-.14-.35a1.8,1.8,0,0,0-.38-.73.3.3,0,0,0-.1-.07.52.52,0,0,0-.61.2,4,4,0,0,0,0,.93,1.37,1.37,0,0,1,0,.19c0,.18,0,.39-.06.58v.45a3.24,3.24,0,0,0,.57,1.54,3.21,3.21,0,0,0,.75.72,3,3,0,0,0,1.58.54h.38a3.65,3.65,0,0,0,3.29-2.64,5,5,0,0,0,.13-.71v-.41h0a3.91,3.91,0,0,0-.39-1.55,1.83,1.83,0,0,1-.18-.29s-.08-.06,0-.09-.09-.09-.12-.14a4.34,4.34,0,0,0-.47-.49l-.66-.59q-.35-.27-.69-.6a2.13,2.13,0,0,1-.33-.4h.56c0-.57,0-1.17,0-1.76,0,0,0,0,0,0h-.12v-1a5.35,5.35,0,0,0,1.45-9.53l.77-9.61H403.1V46.56h-1.43v-1h3.14l.47-.72V40.5ZM390.1,59.55a5.19,5.19,0,0,0-2.33-.54,5.29,5.29,0,0,0-2.68.72l-.76-9.4h6.52Z" transform="translate(-4.4 -4.02)"/></g></svg>