<svg xmlns="http://www.w3.org/2000/svg" viewBox="0 0 767 251.09"><defs><style>.cls-1,.cls-3{fill:#005a96;}.cls-2{fill:#fff;}.cls-3{fill-rule:evenodd;}.cls-4{fill:#0aa;}</style></defs><title>Portalkran_rechts</title><g id="Basis"><path class="cls-1" d="M586.44,176.12h.16V5.17H179.29v4.7h2l27.88,27.87,1.06,1.06H180.85v4.7H578V176.12h2.49a0,0,0,0,1,0,0h-2.39l-3.33,4.43v5.83h5.73a2,2,0,0,0,4,0h5.29v-5.83ZM187.92,9.87H237L212.45,34.41ZM242.6,38.8H214.73L242.6,11Zm1.34,0V11.38L271.36,38.8ZM276.23,37,249.09,9.87h27l.17.17ZM278,38.8l-.45-.44v-27L305,38.8ZM309.86,37,282.72,9.87h27.14Zm1.79,1.79-.44-.44V10.85L339.15,38.8Zm32.51-1.65L316.89,9.87h27.27Zm1.65,1.65-.3-.31V11.19L373.12,38.8Zm31.89-2.09L350.86,9.87H377.7ZM379,9.87h27l-27,27ZM411.43,38.5l-.31.3H383.81l27.62-27.61Zm1.34-28.63h27.28L412.77,37.15Zm33,28.49-.44.44H417.78l28-27.95Zm1.34-28.49h27.14L447.07,37Zm32.29,28.49-.44.44H452l27.41-27.42ZM480.71,10l.16-.17h27L480.71,37ZM513,38.8H485.58L513,11.38ZM514.34,10l.16-.17h27.65L514.34,37.68Zm33,28.32-.44.44h-27L547.3,11.38ZM548.64,10l.17-.17h27L548.64,37ZM578,38.8H553.52L578,14.35Z"/><g id="Schild_Teichmann_Krane_2" data-name="Schild Teichmann Krane 2"><rect class="cls-2" x="348.39" y="16.77" width="59.96" height="16.05"/><path class="cls-1" d="M408.78,33.25H348V16.34h60.82Zm-60-.86h59.1V17.2h-59.1Z"/><polygon class="cls-3" points="355.46 25.35 356.76 25.35 356.76 24.02 352.59 24.02 352.59 25.35 353.89 25.35 353.89 30.07 355.46 30.07 355.46 25.35"/><polygon class="cls-3" points="360.81 25.35 360.81 24.02 357.37 24.02 357.37 30.07 360.81 30.07 360.81 28.73 358.94 28.73 358.94 27.69 360.71 27.69 360.71 26.36 358.94 26.36 358.94 25.35 360.81 25.35"/><rect class="cls-1" x="361.81" y="24.02" width="1.57" height="6.05"/><path class="cls-3" d="M368.75,24.16a3.7,3.7,0,0,0-1.43-.3,3.27,3.27,0,0,0-2.3,1,3.13,3.13,0,0,0-.89,2.21,3,3,0,0,0,1,2.29,3.33,3.33,0,0,0,2.26.89,4.22,4.22,0,0,0,1.39-.29V28.06a1.81,1.81,0,0,1-1.35.64,1.57,1.57,0,0,1-1.64-1.64,1.6,1.6,0,0,1,1.61-1.68,1.71,1.71,0,0,1,1.38.67Z"/><polygon class="cls-3" points="371.33 26.35 371.33 24.02 369.76 24.02 369.76 30.07 371.33 30.07 371.33 27.59 373.61 27.59 373.61 30.07 375.18 30.07 375.18 24.02 373.61 24.02 373.61 26.35 371.33 26.35"/><polygon class="cls-3" points="376.28 30.07 378.01 30.07 377.96 26.81 379.4 30.07 380.84 26.79 380.81 30.07 382.54 30.07 382.54 24.01 380.58 24.01 379.42 26.88 378.23 24.01 376.28 24.01 376.28 30.07"/><polygon class="cls-3" points="389.98 30.07 391.55 30.07 391.55 26.36 394.44 30.07 396.02 30.07 396.02 24.02 394.44 24.02 394.44 27.72 391.55 24.02 389.98 24.02 389.98 30.07"/><polygon class="cls-3" points="396.76 30.07 398.34 30.07 398.34 26.36 401.23 30.07 402.8 30.07 402.8 24.02 401.23 24.02 401.23 27.72 398.34 24.02 396.76 24.02 396.76 30.07"/><polygon class="cls-3" points="387.75 30.07 389.42 30.07 387.15 24.02 385.43 24.02 383.1 30.07 384.77 30.07 386.27 25.89 387.75 30.07"/><polygon class="cls-3" points="386.26 19.36 386.26 22.77 387.16 22.77 387.16 21.76 387.49 21.38 388.41 22.77 389.43 22.77 388.07 20.82 389.29 19.36 388.31 19.36 387.17 20.73 387.16 20.73 387.16 19.36 386.26 19.36"/><path class="cls-3" d="M390.23,22.77h.86V21.23c0-.34.34-.46.64-.46H392v-.63h-.16a.89.89,0,0,0-.77.41h0V20.2h-.83Z"/><path class="cls-3" d="M393.71,21v-.07c0-.2.14-.33.4-.33s.4.12.4.31-.08.25-.34.3l-.49.1c-.6.13-.85.32-.85.8a.72.72,0,0,0,.81.74.93.93,0,0,0,.86-.33h0a1,1,0,0,0,.11.26h.83a.79.79,0,0,1-.11-.49V20.92c0-.46-.19-.78-1.22-.78-.65,0-1.19.2-1.19.79V21Zm.8,1c0,.29-.3.4-.53.4a.32.32,0,0,1-.33-.36c0-.23.14-.36.49-.41a1.36,1.36,0,0,0,.37-.13Z"/><path class="cls-3" d="M396.58,22.77h.87v-1.7c0-.29.16-.43.46-.43s.37.1.37.36v1.77h.86v-1.9c0-.51-.32-.73-.86-.73a1,1,0,0,0-.86.37h0V20.2h-.83Z"/><path class="cls-3" d="M402.8,21.59v-.15c0-.79-.23-1.3-1.24-1.3-1.16,0-1.34.64-1.34,1.33s0,1.37,1.31,1.37c.81,0,1.19-.33,1.22-.93H402c-.05.31-.17.48-.46.48s-.42-.3-.42-.6v-.2Zm-1.71-.39v-.1c0-.24.09-.51.44-.51s.42.21.44.61Z"/></g></g><g id="Ausladung"><rect class="cls-4" x="77.3" y="188.41" width="93.71" height="1.05"/><polygon class="cls-4" points="79.36 183.4 79.36 194.47 70.14 188.93 79.36 183.4"/><polygon class="cls-4" points="166.36 183.4 166.36 194.47 175.58 188.93 166.36 183.4"/><rect class="cls-4" x="597.71" y="188.41" width="93.71" height="1.05"/><polygon class="cls-4" points="599.77 183.4 599.77 194.47 590.55 188.93 599.77 183.4"/><polygon class="cls-4" points="686.77 183.4 686.77 194.47 695.99 188.93 686.77 183.4"/><path class="cls-4" d="M760.64,38.75h-2.78L728.94,9.83H731V5.12H587.1v6.27l27.36,27.36H587.1v4.71h94v4.27l1.79,1.11h0v3h9.49l.68,8.37a4.53,4.53,0,0,0,1.65,7.91v.79h-.1c0,.5,0,1,0,1.51h.69c0,.24-.19.3-.17.55a1.24,1.24,0,0,0,.29.32,3.41,3.41,0,0,1,.46.77c.07.12.15.24.23.36l.11.19.61.88A.84.84,0,0,1,697,74a2.11,2.11,0,0,1-.09.44,1.08,1.08,0,0,1-1.75.32l-.08-.07a1.92,1.92,0,0,1-.12-.25,2.61,2.61,0,0,1-.08-.42,3,3,0,0,0-.11-.31,2.09,2.09,0,0,0-.11-.3,1.53,1.53,0,0,0-.33-.62.24.24,0,0,0-.08-.06.42.42,0,0,0-.52.17c-.09.23,0,.49,0,.79,0,0,0,.1,0,.16s0,.33-.05.5v.38a2.68,2.68,0,0,0,.48,1.3,2.9,2.9,0,0,0,.64.62,2.53,2.53,0,0,0,1.34.45h.32a3.2,3.2,0,0,0,2-.88,3.28,3.28,0,0,0,.8-1.36,2.9,2.9,0,0,0,.11-.6v-.35h0a3,3,0,0,0-.33-1.31s-.09-.17-.15-.25-.06,0,0-.08-.07-.07-.1-.11a3.08,3.08,0,0,0-.39-.42l-.57-.5c-.19-.16-.39-.32-.58-.51a3,3,0,0,1-.28-.34h.47c0-.48,0-1,0-1.5,0,0,0,0,0,0h-.1v-.83A4.53,4.53,0,0,0,698.48,60l.66-8.15h9.8V48.6h-1.21v-.87h2.66l.4-.61V43.46h49.85ZM697.91,59.63a4.55,4.55,0,0,0-2-.46,4.49,4.49,0,0,0-2.27.62l-.64-8h5.53ZM687.27,9.83V37.1L660,9.83ZM619.34,37,592.2,9.83h27l.17.16Zm1.78,1.79-.44-.44v-27l27.41,27.41ZM653,37,625.83,9.83H653Zm1.34,1.35V10.81l28,27.94H654.75Zm34.61.44-.3-.3V11.14l27.61,27.61Zm33.33-.64L694,9.83h28.29Zm1.34.64V11.14l27.62,27.61Z"/><path class="cls-4" d="M178.41,5.12H34.51V9.83h2.1L7.69,38.75H4.91v4.71H55.09v4.27l1.79,1.11h0v3h9.49l.68,8.37a4.53,4.53,0,0,0,1.65,7.91v.79h-.1c0,.5,0,1,0,1.51h.69c0,.24-.19.3-.17.55a1.24,1.24,0,0,0,.29.32,3.41,3.41,0,0,1,.46.77c.07.12.15.24.23.36l.11.19.61.88A.84.84,0,0,1,71,74a1.62,1.62,0,0,1-.09.44,1,1,0,0,1-.88.63,1,1,0,0,1-.87-.31l-.08-.07a1.92,1.92,0,0,1-.12-.25c0-.14,0-.26-.08-.42a3,3,0,0,0-.11-.31,2.09,2.09,0,0,0-.11-.3,1.65,1.65,0,0,0-.32-.62l-.09-.06a.43.43,0,0,0-.52.17c-.09.23,0,.49,0,.79,0,0,0,.1,0,.16s0,.33,0,.5v.38a2.68,2.68,0,0,0,.48,1.3,2.9,2.9,0,0,0,.64.62,2.53,2.53,0,0,0,1.34.45h.32a3.17,3.17,0,0,0,2-.88,3.28,3.28,0,0,0,.8-1.36,2.9,2.9,0,0,0,.11-.6v-.35h0A3.19,3.19,0,0,0,73,72.61a1.81,1.81,0,0,1-.16-.25s-.06,0,0-.08-.08-.07-.11-.11a3.08,3.08,0,0,0-.39-.42l-.57-.5c-.19-.16-.39-.32-.58-.51a3,3,0,0,1-.28-.34h.47c0-.48,0-1,0-1.5,0,0,0,0,0,0h-.1v-.83A4.54,4.54,0,0,0,72.46,60l.65-8.15h9.8V48.6H81.7v-.87h2.66l.4-.61V43.46h93.65V38.75H151.09l27.32-27.32ZM71.88,59.63a4.55,4.55,0,0,0-2-.46,4.49,4.49,0,0,0-2.27.62l-.64-8h5.53Zm6.4-49.8h27.27L78.28,37.1ZM42,38.75H14.34L42,11.14ZM43.3,9.83H71.59L43.3,38.11Zm33.63,1.31V38.45l-.3.3H49.32Zm34.31,27.17-.44.44H83.29L111.24,10.8Zm1.34-28.48h27.14L112.58,37Zm32.29,28.48-.44.44h-27l27.41-27.41ZM146.21,37V10l.17-.16h27Z"/><path class="cls-4" d="M187.73,172.94,248.78,5.17h-5.51L236,24.8H187.73V5.17h-8.64V176.84l-2.61,3.75v5.83h4.93a2,2,0,0,0,4,0h4.92v-5.83l-2.58-3.82Zm0-146.35h47.62l-17,46.63H187.73Zm0,48.43h30l-30,82.4Z"/></g><g id="Hubhöhe"><rect class="cls-4" x="338.11" y="82.59" width="1.05" height="97.97"/><polygon class="cls-4" points="333.1 87.2 344.17 87.2 338.63 77.98 333.1 87.2"/><polygon class="cls-4" points="333.1 178 344.17 178 338.63 187.23 333.1 178"/><rect class="cls-4" x="338.01" y="196.69" width="1.05" height="43.76"/><polygon class="cls-4" points="333 200.18 344.07 200.18 338.53 190.95 333 200.18"/><polygon class="cls-4" points="333 235.84 344.07 235.84 338.53 245.06 333 235.84"/><path class="cls-4" d="M353,42.85H350.3V41.74H325.48l-1.79,1v4.95l1.79,1.11h0v3H335l.68,8.37a4.53,4.53,0,0,0,1.65,7.91c0,.27,0,.55,0,.79h-.1c0,.5,0,1,0,1.51h.7c0,.24-.2.3-.18.55a1.5,1.5,0,0,0,.3.32,3.83,3.83,0,0,1,.46.77,3.61,3.61,0,0,0,.23.36l.11.19c.2.28.4.58.6.88a.74.74,0,0,1,.17.53,1.65,1.65,0,0,1-.08.44,1.08,1.08,0,0,1-1.75.32l-.08-.07a1.92,1.92,0,0,1-.12-.25,2.61,2.61,0,0,1-.08-.42,3,3,0,0,0-.11-.31l-.11-.3a1.66,1.66,0,0,0-.33-.62s-.05,0-.08-.06a.42.42,0,0,0-.52.17c-.09.23,0,.49,0,.79a.78.78,0,0,0,0,.16c0,.15,0,.33-.06.5v.38a2.69,2.69,0,0,0,.49,1.3,2.9,2.9,0,0,0,.64.62,2.53,2.53,0,0,0,1.34.45H339a3.2,3.2,0,0,0,2-.88,3.28,3.28,0,0,0,.8-1.36,5.33,5.33,0,0,0,.11-.6v-.35h0a3.19,3.19,0,0,0-.33-1.31,1.83,1.83,0,0,1-.15-.25s-.07,0,0-.08-.07-.07-.1-.11a3.08,3.08,0,0,0-.39-.42l-.57-.5c-.19-.16-.39-.32-.58-.51a3,3,0,0,1-.28-.34h.47c0-.48,0-1,0-1.5,0,0,0,0,0,0h-.1v-.83A4.54,4.54,0,0,0,341.05,60l.66-8.15h9.8V48.6H350.3v-.87H353l.4-.61V43.46ZM340.48,59.63a4.58,4.58,0,0,0-2-.46,4.49,4.49,0,0,0-2.27.62l-.65-8h5.54Z"/></g><g id="Feststütze"><path class="cls-4" d="M187.73,172.94,248.78,5.17h-5.51L236,24.8H187.73V5.17h-8.64V176.84l-2.61,3.75v5.83h4.93a2,2,0,0,0,4,0h4.92v-5.83l-2.58-3.82Zm0-146.35h47.62l-17,46.63H187.73Zm0,48.43h30l-30,82.4Z"/></g><g id="Spurweite"><rect class="cls-4" x="198.28" y="188.41" width="367.87" height="1.05"/><polygon class="cls-4" points="200.37 183.4 200.37 194.47 191.15 188.93 200.37 183.4"/><polygon class="cls-4" points="563.66 183.4 563.66 194.47 572.88 188.93 563.66 183.4"/></g><g id="Steuerung"><g id="Krankabine_2" data-name="Krankabine 2"><path class="cls-4" d="M260.72,45.62V90.13l28.22.05,8.47-44.62Zm27,42.39-24.89,0V47.76l32.57,0Z"/><path class="cls-4" d="M282.72,83.3l-4.62-9.19a1.63,1.63,0,0,0-1.68-.87l-.23,0h-2.76a4.45,4.45,0,0,0,.54-2.15V63.85a4.58,4.58,0,0,0-2.76-4.2,4.24,4.24,0,1,0-3.91-.09,4.58,4.58,0,0,0-3,4.29V74a2.81,2.81,0,0,0,0,.53,1.34,1.34,0,0,0,0,.35,1.63,1.63,0,0,0,1.62,1.62h9.75l4.17,8.3a1.62,1.62,0,0,0,2.89-1.45Z"/></g><path class="cls-4" d="M483.61,152H481.5V137h-.57v15h-2.59a1.23,1.23,0,0,0-1.27,1.2v23.35a1.24,1.24,0,0,0,1.27,1.2h5.27a1.24,1.24,0,0,0,1.27-1.2V153.18A1.23,1.23,0,0,0,483.61,152Zm1,24.3a1.18,1.18,0,0,1-1.18,1.18h-4.91a1.18,1.18,0,0,1-1.18-1.18V153.42a1.18,1.18,0,0,1,1.18-1.18h4.91a1.18,1.18,0,0,1,1.18,1.18Z"/><path class="cls-4" d="M483.07,152.78h-4.19a1.07,1.07,0,0,0-1,1.13V175.8a1.07,1.07,0,0,0,1,1.12h4.19a1.07,1.07,0,0,0,1-1.12V153.91A1.07,1.07,0,0,0,483.07,152.78Zm-1.93,22.06a1.33,1.33,0,1,1,1.33-1.33A1.33,1.33,0,0,1,481.14,174.84Zm0-3.48a1.34,1.34,0,1,1,1.33-1.33A1.34,1.34,0,0,1,481.14,171.36Zm0-3.51a1.34,1.34,0,1,1,1.33-1.33A1.34,1.34,0,0,1,481.14,167.85Zm0-3.48a1.34,1.34,0,1,1,1.33-1.33A1.34,1.34,0,0,1,481.14,164.37Zm0-3.71a1.34,1.34,0,1,1,1.33-1.34A1.34,1.34,0,0,1,481.14,160.66Zm0-3.72a1.33,1.33,0,1,1,1.33-1.33A1.33,1.33,0,0,1,481.14,156.94Z"/><path class="cls-4" d="M438.65,149.87a3.48,3.48,0,0,0-.07.73,3.88,3.88,0,0,0,7.75,0,3.48,3.48,0,0,0-.07-.73Z"/><path class="cls-4" d="M438.26,148.7h8.83a.76.76,0,0,0,0-1.51h-.21a4.57,4.57,0,0,0-9.06.15.76.76,0,0,0,.44,1.36Z"/><path class="cls-4" d="M457,158a6.39,6.39,0,0,1,0-9.48l-.68-.74a7.38,7.38,0,0,0,0,10.95Z"/><path class="cls-4" d="M457.58,157.38l.67-.75a4.49,4.49,0,0,1,0-6.68l-.67-.75a5.53,5.53,0,0,0,0,8.18Z"/><path class="cls-4" d="M458.92,155.89l.68-.74a2.59,2.59,0,0,1,0-3.72l-.68-.74a3.51,3.51,0,0,0,0,5.2Z"/><path class="cls-4" d="M466.54,158l.67.74a7.37,7.37,0,0,0,0-11l-.67.74a6.4,6.4,0,0,1,0,9.48Z"/><path class="cls-4" d="M465.28,156.63l.67.75a5.53,5.53,0,0,0,0-8.18l-.67.75a4.51,4.51,0,0,1,0,6.68Z"/><path class="cls-4" d="M464.61,155.89a3.51,3.51,0,0,0,0-5.2l-.68.74a2.57,2.57,0,0,1,0,3.72Z"/><path class="cls-4" d="M462,153.29c0-.2-.17-.52-.31-.52s-.27.32-.27.52l-.09,7.61h-5.88v2.36l-2.62-.87a.14.14,0,0,1-.08,0l-4.88-6.72h-11l-2.73,3.84v10.61a1.8,1.8,0,0,0,3.59,0v-8.82A.26.26,0,0,1,438,161a.27.27,0,0,1,.29.27v23.47a1.94,1.94,0,0,0,2,1.91h0a1.93,1.93,0,0,0,1.95-1.91V173.07a.18.18,0,0,1,.17-.18h.47a.18.18,0,0,1,.18.18v11.65a2,2,0,0,0,2,1.91h0a2,2,0,0,0,2-1.91V171.91l0-10.41a.17.17,0,0,1,.3-.12c1,1.13,3,3.52,3,3.52a36.48,36.48,0,0,0,5.1,1.9v3.87h12.48V160.9H462Z"/></g><g id="Traglast"><path class="cls-4" d="M353,42.85H350.3V41.74H325.48l-1.79,1v4.95l1.79,1.11h0v3H335l.68,8.37a4.53,4.53,0,0,0,1.65,7.91c0,.27,0,.55,0,.79h-.1c0,.5,0,1,0,1.51h.7c0,.24-.2.3-.18.55a1.5,1.5,0,0,0,.3.32,3.83,3.83,0,0,1,.46.77,3.61,3.61,0,0,0,.23.36l.11.19c.2.28.4.58.6.88a.74.74,0,0,1,.17.53,1.65,1.65,0,0,1-.08.44,1.08,1.08,0,0,1-1.75.32l-.08-.07a1.92,1.92,0,0,1-.12-.25,2.61,2.61,0,0,1-.08-.42,3,3,0,0,0-.11-.31l-.11-.3a1.66,1.66,0,0,0-.33-.62s-.05,0-.08-.06a.42.42,0,0,0-.52.17c-.09.23,0,.49,0,.79a.78.78,0,0,0,0,.16c0,.15,0,.33-.06.5v.38a2.69,2.69,0,0,0,.49,1.3,2.9,2.9,0,0,0,.64.62,2.53,2.53,0,0,0,1.34.45H339a3.2,3.2,0,0,0,2-.88,3.28,3.28,0,0,0,.8-1.36,5.33,5.33,0,0,0,.11-.6v-.35h0a3.19,3.19,0,0,0-.33-1.31,1.83,1.83,0,0,1-.15-.25s-.07,0,0-.08-.07-.07-.1-.11a3.08,3.08,0,0,0-.39-.42l-.57-.5c-.19-.16-.39-.32-.58-.51a3,3,0,0,1-.28-.34h.47c0-.48,0-1,0-1.5,0,0,0,0,0,0h-.1v-.83A4.54,4.54,0,0,0,341.05,60l.66-8.15h9.8V48.6H350.3v-.87H353l.4-.61V43.46ZM340.48,59.63a4.58,4.58,0,0,0-2-.46,4.49,4.49,0,0,0-2.27.62l-.65-8h5.54Z"/></g></svg>